<svg xmlns="http://www.w3.org/2000/svg" width="538" height="139" viewBox="0 0 538 139">
    <g fill="none" fill-rule="evenodd">
        <path fill="#388E3C" d="M49.52 88.244c-11.992 0-21.713 9.722-21.713 21.713v28.447h43.426v-28.447c0-11.991-9.721-21.713-21.713-21.713z"/>
        <path fill="#2E7D32" d="M7.957 120.508c0 8.375 6.79 15.165 15.164 15.165 8.375 0 15.165-6.79 15.165-15.165 0-8.374-6.79-15.164-15.165-15.164s-15.164 6.79-15.164 15.164"/>
        <path fill="#1B5E20" d="M256.824 125.586c0 5.57 4.516 10.087 10.087 10.087s10.087-4.516 10.087-10.087c0-5.57-4.516-10.087-10.087-10.087-5.57 0-10.087 4.516-10.087 10.087"/>
        <path fill="#2E7D32" d="M223.704 114.832c0 11.51 9.331 20.84 20.841 20.84 11.51 0 20.842-9.33 20.842-20.84s-9.331-20.841-20.842-20.841c-11.51 0-20.84 9.33-20.84 20.84"/>
        <path fill="#E0E0E0" d="M537.748 141.68H-.866v-11.589h538.614z"/>
        <path fill="#F4BE26" d="M236.343 130.09H46.887V11.174h189.456z"/>
        <path fill="#F5F5F5" d="M46.352 122.897H64.42v7.194H44.275v-5.117c0-1.148.93-2.077 2.077-2.077"/>
        <path fill="#3E2723" d="M117.648 130.091H64.419V44.084h53.229z"/>
        <path fill="#80DEEA" d="M114.486 126.929H67.581V47.245h46.905z"/>
        <path fill="#B2DFDB" d="M67.582 66.963v4.888l24.606-24.606H87.3zM67.582 115v4.884l46.904-46.904v-4.883zM67.582 74.45v9.774l36.979-36.978h-9.775z"/>
        <path fill="#212121" d="M114.486 48.937H67.581v-1.691h46.905z"/>
        <path fill="#E0E0E0" d="M106.785 81.505a2.022 2.022 0 1 0 4.044 0 2.022 2.022 0 0 0-4.044 0M106.785 95.989a2.022 2.022 0 1 0 4.044 0 2.022 2.022 0 0 0-4.044 0"/>
        <path fill="#F5F5F5" d="M108.807 79.925c.64 0 1.158.518 1.158 1.158v15.329a1.158 1.158 0 0 1-2.316 0v-15.33c0-.639.518-1.157 1.158-1.157M117.648 122.897h119.23c1.147 0 2.077.93 2.077 2.077v5.117H117.648v-7.194z"/>
        <path fill="#BDBDBD" d="M236.58 7.136H46.65V3.649h189.93z"/>
        <path fill="#F4BE26" d="M234.25 3.649H48.98V.16h185.27z"/>
        <path fill="#212121" d="M234.25 1.905H48.98V.16h185.27z"/>
        <path fill="#E5984B" d="M81.1 41.151H70.473v-4.133h10.629zM67.682 41.151H57.053v-4.133h10.629zM74.347 34.27H63.72v-4.132h10.628zM62.367 99.143H51.74V95.01h10.627zM55.614 92.262H44.986V88.13h10.628zM218.802 41.151h-10.628v-4.133h10.628zM205.382 41.151h-10.628v-4.133h10.628zM212.048 34.27H201.42v-4.132h10.628zM198.63 34.27H188v-4.132h10.629zM186.562 119.632h-10.628V115.5h10.628zM146.929 112.752h-10.628v-4.133h10.628zM199.981 119.632h-10.628V115.5h10.628zM193.315 112.752h-10.627v-4.133h10.627zM206.734 112.752h-10.628v-4.133h10.628zM238.12 76.94h-7.681v-4.133h7.681zM233.24 70.06h-7.682v-4.133h7.682z"/>
        <path fill="#F5F5F5" d="M64.42 56.232c.437 0 .792.355.792.792v6.05a.793.793 0 1 1-1.585 0v-6.05c0-.437.355-.792.792-.792M64.42 110.308c.437 0 .792.355.792.793v6.05a.793.793 0 1 1-1.585 0v-6.05c0-.438.355-.793.792-.793"/>
        <path fill="#E5984B" d="M149.325 41.151h-5.314v-4.133h5.314zM143.26 34.27h-5.314v-4.132h5.314zM157.48 34.27h-10.628v-4.132h10.628zM229.018 112.463h-5.314v-4.133h5.314zM238.056 105.583h-10.629v-4.133h10.629zM60.67 71.954h-7.671v-4.133h7.671zM131.247 59.008h-5.365v-4.133h5.365zM128.564 64.964H123.2V60.83h5.365z"/>
        <path fill="#E0E0E0" d="M219.183 22.122c0 6.12-4.962 11.082-11.082 11.082-6.12 0-11.08-4.962-11.08-11.082V15.21h22.162v6.912zM174.858 22.122c0 6.12-4.961 11.082-11.081 11.082-6.12 0-11.081-4.962-11.081-11.082V15.21h22.162v6.912zM130.534 22.122c0 6.12-4.961 11.082-11.081 11.082-6.12 0-11.081-4.962-11.081-11.082V15.21h22.162v6.912zM86.21 15.21v6.912c0 6.12-4.962 11.082-11.082 11.082-6.12 0-11.081-4.962-11.081-11.082V15.21h22.162z"/>
        <path fill="#EEE" d="M219.183 15.21H197.02l-2.647-8.075h21.104zM174.858 15.21h-22.162l-.53-8.075h21.104zM131.063 7.135l-.529 8.076h-22.163l1.588-8.076zM67.753 7.135h21.103l-2.647 8.076H64.047z"/>
        <path fill="#00ACC1" d="M241.345 22.122c0 6.12-4.961 11.082-11.082 11.082-6.12 0-11.08-4.962-11.08-11.082V15.21h22.162v6.912zM197.02 22.122c0 6.12-4.96 11.082-11.08 11.082s-11.082-4.962-11.082-11.082V15.21h22.162v6.912zM152.696 22.122c0 6.12-4.961 11.082-11.081 11.082-6.12 0-11.081-4.962-11.081-11.082V15.21h22.162v6.912zM108.372 22.122c0 6.12-4.961 11.082-11.082 11.082-6.12 0-11.08-4.962-11.08-11.082V15.21h22.162v6.912zM64.047 15.21v6.912c0 6.12-4.96 11.082-11.081 11.082-6.12 0-11.081-4.962-11.081-11.082V15.21h22.162zM241.345 15.21h-22.162l-3.707-8.075h21.104zM197.02 15.21h-22.162l-1.588-8.075h21.103z"/>
        <path fill="#00ACC1" d="M152.167 7.135l.529 8.076h-22.162l.53-8.076zM109.96 7.135l-1.589 8.076H86.21l2.647-8.076zM46.65 7.135h21.103l-3.706 8.076H41.885z"/>
        <path fill="#E5984B" d="M234.28 48.218h-5.636v-4.134h5.635z"/>
        <path fill="#3E2723" d="M221.417 99.665h-90.17V44.967h90.17z"/>
        <path fill="#80DEEA" d="M218.256 96.503h-83.847V48.128h83.847z"/>
        <path fill="#B2DFDB" d="M134.41 62.402v7.486l21.76-21.76h-7.485zM134.41 71.97v3.74l27.583-27.582h-3.745zM134.41 89.019v7.486h7.486l48.377-48.377h-14.971z"/>
        <path fill="#212121" d="M218.256 49.819h-83.847v-1.691h83.847z"/>
        <path fill="#FAFBFB" d="M226.11 109.958h-99.557V99.665h99.558z"/>
        <path fill="#43A047" d="M132.727 93.636h87.21a4.182 4.182 0 0 1 4.183 4.182v1.847h-95.575v-1.847a4.182 4.182 0 0 1 4.182-4.182"/>
        <path fill="#EEE" d="M226.11 101.87h-99.555v-2.205h99.556z"/>
        <path fill="#43A047" d="M128.555 97.606h95.554c.004.071.01.14.01.212v1.847h-95.574v-1.847c0-.071.006-.14.01-.212"/>
    </g>
</svg>
