<svg xmlns="http://www.w3.org/2000/svg" width="123" height="98" viewBox="0 0 123 98">
    <g fill="none" fill-rule="evenodd">
        <g fill="#FFF">
            <path d="M87.952 18.27a7.473 7.473 0 0 1 1.773-8.65 7.471 7.471 0 1 0 5.941 12.95 7.472 7.472 0 0 1-7.714-4.3"/>
            <path d="M118.44 27.451c0 8.864-7.186 16.05-16.05 16.05-8.863 0-16.048-7.186-16.048-16.05s7.185-16.049 16.049-16.049c8.863 0 16.049 7.185 16.049 16.049M93.133 49.36a3.396 3.396 0 1 1-6.791-.001 3.396 3.396 0 0 1 6.791 0"/>
        </g>
        <path fill="#FFF" d="M100.985 59.837h8.26V16.283h-8.26zM13.501 59.837h8.26V16.283h-8.26z"/>
        <path fill="#DF3426" d="M17.88 21.288c0 3.963-3.92 7.176-8.755 7.176-4.836 0-8.757-3.213-8.757-7.176h17.513z"/>
        <path fill="#DFE0E1" d="M35.393 21.288c0 3.963-3.92 7.176-8.755 7.176-4.836 0-8.757-3.213-8.757-7.176h17.512z"/>
        <path fill="#DF3426" d="M52.907 21.288c0 3.963-3.922 7.176-8.756 7.176-4.836 0-8.758-3.213-8.758-7.176h17.514z"/>
        <path fill="#DFE0E1" d="M70.42 21.288c0 3.963-3.922 7.176-8.756 7.176-4.836 0-8.758-3.213-8.758-7.176H70.42z"/>
        <path fill="#DF3426" d="M87.932 21.288c0 3.963-3.921 7.176-8.755 7.176-4.837 0-8.758-3.213-8.758-7.176h17.513z"/>
        <path fill="#DFE0E1" d="M105.445 21.288c0 3.963-3.922 7.176-8.756 7.176-4.836 0-8.757-3.213-8.757-7.176h17.513z"/>
        <path fill="#DF3426" d="M122.957 21.288c0 3.963-3.92 7.176-8.755 7.176-4.836 0-8.757-3.213-8.757-7.176h17.512z"/>
        <path fill="#E15125" d="M17.88 21.288L30.26 1.299H14.003L.368 21.288z"/>
        <path fill="#FFF" d="M35.393 21.288l7.355-19.989H30.26L17.88 21.288z"/>
        <path fill="#E15125" d="M52.907 21.288l2.222-19.989H42.748l-7.355 19.989zM105.445 21.288L93.065 1.299h16.257l13.636 19.989z"/>
        <path fill="#FFF" d="M87.932 21.288L80.578 1.299h12.488l12.379 19.989z"/>
        <path fill="#E15125" d="M70.42 21.288L68.196 1.299h12.38l7.355 19.989z"/>
        <path fill="#FFF" d="M55.129 1.299l-2.222 19.989h17.512L68.197 1.299z"/>
        <path fill="#DF3426" d="M110.86.95v.697H12.464V.951M7.119 83.867h108.884V55.33H7.12z"/>
        <path fill="#F4BE26" d="M15.003 79.361h93.116V59.837H15.003z"/>
        <path stroke="#F4BE26" d="M10.685 82.177h101.376V57.021H10.685z"/>
        <path fill="#231F20" d="M106.887 92.58l-8.491-11.687 12.512 7.224a15.65 15.65 0 0 1-4.021 4.463zm-8.883-11.403l8.494 11.694a15.495 15.495 0 0 1-5.49 2.443l-3.004-14.137zm-3.482 14.244l3.008-14.144 3.005 14.145c-.974.19-1.976.296-3.005.296-1.03 0-2.034-.106-3.008-.297zm2.534-14.244l-3.007 14.137a15.52 15.52 0 0 1-5.489-2.444l8.496-11.693zM84.15 88.116l12.512-7.223-8.491 11.686a15.632 15.632 0 0 1-4.02-4.463zm12.27-7.644L83.9 87.702a15.502 15.502 0 0 1-1.852-5.719l14.374-1.51zm-13.807-4.95L96.37 79.99 81.995 81.5c-.04-.459-.07-.92-.07-1.389 0-1.597.242-3.14.689-4.59zm3.168-5.66l10.738 9.666-13.745-4.464a15.567 15.567 0 0 1 3.007-5.202zm5.185-3.893l5.877 13.2-10.736-9.666a15.59 15.59 0 0 1 4.86-3.534zm17.985 3.533l-10.736 9.666 5.877-13.2a15.623 15.623 0 0 1 4.859 3.534zm3.333 5.562l-13.746 4.465 10.738-9.667a15.558 15.558 0 0 1 3.008 5.202zm.727 6.92a15.493 15.493 0 0 1-1.852 5.719l-12.522-7.23 14.374 1.511zm-15.725-3.013l-5.883-13.213a15.547 15.547 0 0 1 5.883-1.239v14.452zm.485-14.452a15.55 15.55 0 0 1 5.883 1.238l-5.883 13.214V64.52zm15.294 16.983l-14.377-1.511 13.758-4.47c.446 1.452.689 2.994.689 4.591 0 .47-.03.931-.07 1.39zM97.53 62.243c-9.87 0-17.87 8-17.87 17.87 0 9.869 8 17.868 17.87 17.868 9.87 0 17.87-8 17.87-17.869 0-9.87-8-17.869-17.87-17.869z"/>
        <path fill="#231F20" d="M98.582 80.112a1.052 1.052 0 1 1-2.105 0 1.052 1.052 0 0 1 2.105 0"/>
        <path fill="#FFF" d="M98.582 80.112a1.052 1.052 0 1 1-2.105 0 1.052 1.052 0 0 1 2.105 0"/>
        <path fill="#231F20" d="M98.212 80.112a.681.681 0 1 1-1.363 0 .681.681 0 0 1 1.363 0M34.948 92.58l-8.49-11.687 12.511 7.224a15.65 15.65 0 0 1-4.021 4.463zm-8.883-11.403l8.494 11.694a15.495 15.495 0 0 1-5.49 2.443l-3.004-14.137zm-3.481 14.244l3.007-14.144 3.006 14.145c-.975.19-1.977.296-3.006.296-1.03 0-2.033-.106-3.007-.297zm2.533-14.244l-3.006 14.137a15.52 15.52 0 0 1-5.49-2.444l8.496-11.693zm-12.904 6.939l12.511-7.223-8.49 11.686a15.632 15.632 0 0 1-4.021-4.463zm12.27-7.644l-12.522 7.23a15.502 15.502 0 0 1-1.853-5.719l14.375-1.51zm-13.808-4.95l13.756 4.469-14.375 1.51c-.04-.459-.07-.92-.07-1.389 0-1.597.243-3.14.69-4.59zm3.169-5.66l10.737 9.666-13.744-4.464a15.567 15.567 0 0 1 3.007-5.202zm5.185-3.893l5.876 13.2-10.736-9.666a15.59 15.59 0 0 1 4.86-3.534zm17.984 3.533l-10.736 9.666 5.877-13.2a15.623 15.623 0 0 1 4.86 3.534zm3.333 5.562l-13.745 4.465 10.738-9.667a15.558 15.558 0 0 1 3.007 5.202zm.728 6.92a15.493 15.493 0 0 1-1.852 5.719l-12.523-7.23 14.375 1.511zm-15.726-3.013l-5.883-13.213a15.547 15.547 0 0 1 5.883-1.239v14.452zm.486-14.452a15.55 15.55 0 0 1 5.882 1.238l-5.882 13.214V64.52zm15.293 16.983l-14.376-1.511 13.757-4.47c.446 1.452.69 2.994.69 4.591 0 .47-.03.931-.071 1.39zM25.591 62.243c-9.869 0-17.869 8-17.869 17.87 0 9.869 8 17.868 17.869 17.868 9.87 0 17.87-8 17.87-17.869 0-9.87-8-17.869-17.87-17.869z"/>
        <path fill="#231F20" d="M26.643 80.112a1.052 1.052 0 1 1-2.105 0 1.052 1.052 0 0 1 2.105 0"/>
        <path fill="#FFF" d="M26.643 80.112a1.052 1.052 0 1 1-2.105 0 1.052 1.052 0 0 1 2.105 0"/>
        <path fill="#231F20" d="M26.273 80.112a.681.681 0 1 1-1.362 0 .681.681 0 0 1 1.362 0"/>
        <path fill="#ADAFB1" d="M80.71 55.331h18.773v-17.27H80.71z"/>
        <path fill="#939597" d="M91.974 38.06h6.758v-5.256h-6.758z"/>
        <path fill="#FFF" d="M75.829 55.331h4.88V43.317h-4.88z"/>
        <path fill="#ADAFB1" d="M28.145 55.331h28.91v-6.007h-28.91z"/>
        <path fill="#FFF" d="M27.77 49.324h29.285V33.93H27.77z"/>
        <path fill="#DF3426" d="M66.18 45.921a1.453 1.453 0 0 0-1.178-1.08l-.123-1.58h-.218l-.123 1.58a1.453 1.453 0 0 0-1.178 1.08h-.634v.706h.524v8.76h3.04v-8.76h.524v-.706h-.634z"/>
        <path fill="#FFF" d="M65.747 50.319c0 .899-.437 1.629-.977 1.629s-.977-.73-.977-1.63c0-.898.438-1.628.977-1.628.54 0 .977.73.977 1.629"/>
        <path fill="#FCB614" d="M72.813 52.373c0-.933-.346-1.755-.879-2.307h.508v-.706h-.635c-.14-.56-.6-.989-1.177-1.081l-.124-1.579h-.217l-.124 1.579a1.453 1.453 0 0 0-1.177 1.081h-.635v.706h.508c-.533.552-.88 1.374-.88 2.307 0 1.665-.135 3.013 2.416 3.013 2.552 0 2.416-1.348 2.416-3.013"/>
        <path fill="#DF3426" d="M71.918 52.672c0 .9-.681 1.629-1.52 1.629-.84 0-1.52-.73-1.52-1.629 0-.9.68-1.629 1.52-1.629.839 0 1.52.729 1.52 1.629"/>
    </g>
</svg>
