<svg xmlns="http://www.w3.org/2000/svg" xmlns:xlink="http://www.w3.org/1999/xlink" width="417" height="245" viewBox="0 0 417 245">
    <defs>
        <path id="a" d="M141.97 3.78v6.331H.43V.574h138.335l3.205 3.205zM.43.573h141.54v9.537H.43V.574z"/>
    </defs>
    <g fill="none" fill-rule="evenodd">
        <path fill="#1B5E20" d="M416.352 238.46c0 7.756-6.287 14.043-14.042 14.043s-14.042-6.287-14.042-14.042 6.287-14.042 14.042-14.042 14.042 6.287 14.042 14.042z"/>
        <path fill="#212121" d="M67.301 55.842h7.29V9.518h-7.29zM337.381 55.842h7.29V9.518h-7.29z"/>
        <path fill="#D32E2E" d="M49.087 47.819h313.799V.815H49.087z"/>
        <path fill="#388E3C" d="M369.959 183.898c-17.747 0-32.134 14.387-32.134 32.134v42.1h64.268v-42.1c0-17.747-14.387-32.134-32.134-32.134"/>
        <path fill="#1B5E20" d="M30.655 236.291c0 8.245-6.684 14.928-14.928 14.928-8.245 0-14.929-6.683-14.929-14.928 0-8.244 6.684-14.928 14.929-14.928 8.244 0 14.928 6.684 14.928 14.928"/>
        <path fill="#2E7D32" d="M77.414 229.843c0 17.035-13.81 30.843-30.844 30.843s-30.843-13.808-30.843-30.843 13.809-30.844 30.843-30.844c17.035 0 30.844 13.809 30.844 30.844"/>
        <path fill="#FF7043" d="M34.675 241.67h342.623V89.307H34.675z"/>
        <path fill="#3E2723" d="M170.956 245.832h70.06V132.626h-70.06z"/>
        <path fill="#80CBC4" d="M175.117 241.67h61.739V136.788h-61.74z"/>
        <path fill="#212121" d="M175.117 139.013h61.739v-2.226h-61.74z"/>
        <path fill="#E0E0E0" d="M185.253 181.882a2.66 2.66 0 1 1-5.32 0 2.66 2.66 0 0 1 5.32 0M185.253 200.946a2.661 2.661 0 1 1-5.322 0 2.661 2.661 0 0 1 5.322 0"/>
        <path fill="#F5F5F5" d="M182.592 179.802c-.842 0-1.524.682-1.524 1.523v20.177a1.524 1.524 0 0 0 3.048 0v-20.177c0-.841-.682-1.523-1.524-1.523M241.017 148.615c-.576 0-1.044.467-1.044 1.044v7.963a1.043 1.043 0 0 0 2.088 0v-7.963c0-.577-.467-1.044-1.044-1.044M241.017 219.793c-.576 0-1.044.467-1.044 1.044v7.962a1.044 1.044 0 0 0 2.088 0v-7.962c0-.577-.467-1.044-1.044-1.044"/>
        <path fill="#3E2723" d="M55.862 213.478h89.445v-80.852H55.862z"/>
        <path fill="#80CBC4" d="M60.023 209.317h81.124v-72.53H60.023z"/>
        <path fill="#212121" d="M60.023 139.013h81.124v-2.226H60.023z"/>
        <path fill="#3E2723" d="M266.665 213.478h89.445v-80.852h-89.445z"/>
        <path fill="#80CBC4" d="M270.826 209.317h81.123v-72.53h-81.123z"/>
        <path fill="#212121" d="M270.826 139.013h81.123v-2.226h-81.123z"/>
        <path fill="#E0E0E0" d="M32.625 236.29a3.208 3.208 0 0 0-3.208 3.208v6.334h141.538v-9.542H32.625zM379.347 236.29a3.208 3.208 0 0 1 3.21 3.208v6.334h-141.54v-9.542h138.33zM51.705 215.631h97.759v-6.315H51.705zM262.508 215.631h97.759v-6.315h-97.759z"/>
        <path d="M115.459 236.291h55.497v9.538h-51.228z"/>
        <g transform="translate(240.586 235.718)">
            <mask id="b" fill="#fff">
                <use xlink:href="#a"/>
            </mask>
            <path d="M141.97 3.78v6.331H.43V.574h138.335a3.206 3.206 0 0 1 3.205 3.205" mask="url(#b)"/>
        </g>
        <path fill="#26C6DA" d="M60.023 209.317h81.123v-4.498H60.023z"/>
        <path fill="#66BCB4" d="M80.272 196.277H68.028c-.645 0-1.168.524-1.168 1.168v7.677c0 .645.523 1.168 1.168 1.168h12.244c.645 0 1.168-.523 1.168-1.168v-7.677c0-.644-.523-1.168-1.168-1.168"/>
        <path fill="#66BCB4" d="M74.15 200.684a3.264 3.264 0 1 1 0-6.528 3.264 3.264 0 0 1 0 6.528m0-7.671a4.407 4.407 0 1 0 0 8.813 4.407 4.407 0 0 0 0-8.813"/>
        <path fill="#26C6DA" d="M270.826 209.317h81.123v-4.498h-81.123z"/>
        <path fill="#66BCB4" d="M307.566 196.363h-11.19c-.59 0-1.068.477-1.068 1.068v7.016c0 .589.478 1.068 1.068 1.068h11.19c.59 0 1.068-.479 1.068-1.068v-7.016c0-.59-.479-1.068-1.068-1.068"/>
        <path fill="#66BCB4" d="M301.97 200.39a2.983 2.983 0 1 1 .002-5.966 2.983 2.983 0 0 1-.001 5.966m0-7.01a4.027 4.027 0 1 0 0 8.054 4.027 4.027 0 0 0 0-8.054M326.4 196.363h-11.191c-.589 0-1.067.477-1.067 1.068v7.016c0 .589.478 1.068 1.067 1.068h11.19c.59 0 1.068-.479 1.068-1.068v-7.016c0-.59-.478-1.068-1.067-1.068"/>
        <path fill="#66BCB4" d="M320.805 200.39a2.983 2.983 0 1 1 0-5.966 2.983 2.983 0 0 1 0 5.966m0-7.01a4.027 4.027 0 1 0-.001 8.055 4.027 4.027 0 0 0 0-8.055M108.562 198.74h-9.234a.88.88 0 0 0-.88.88v5.79c0 .486.394.88.88.88h9.234a.88.88 0 0 0 .881-.88v-5.79a.88.88 0 0 0-.88-.88"/>
        <path fill="#66BCB4" d="M103.945 202.062a2.461 2.461 0 1 1-.001-4.922 2.461 2.461 0 0 1 .001 4.922m0-5.785a3.323 3.323 0 1 0 0 6.645 3.323 3.323 0 0 0 0-6.645M101.266 171.479v6.677a12.535 12.535 0 0 1 1.521 5.987v7.09a2.11 2.11 0 0 1-2.115 2.109h-5.856v11.633h.483c.314 0 .568.255.568.568v3.773H92.67v-3.773c0-.313.254-.568.567-.568h.484v-11.633h-5.863a2.108 2.108 0 0 1-2.108-2.109v-7.09c0-2.089.522-4.152 1.52-5.987v-6.677c0-1.071-.28-2.122-.809-3.056l-1.547-2.702a2.47 2.47 0 0 1 .398-2.97l.32-.32c.209-.21.483-.327.777-.327h4.152a.35.35 0 0 0 .352-.346v-.62a.35.35 0 0 1 .353-.346h2.455v-.581a1.867 1.867 0 1 1 1.097 0v.58h2.454a.35.35 0 0 1 .352.347v.62c0 .19.157.346.353.346h4.152c.287 0 .568.118.777.326l.32.32a2.48 2.48 0 0 1 .398 2.97l-1.547 2.703a6.13 6.13 0 0 0-.81 3.056M131.734 171.479v6.677a12.542 12.542 0 0 1 1.527 5.987v7.09a2.11 2.11 0 0 1-2.115 2.109h-5.856v11.633h.483c.314 0 .562.255.562.568v3.773h-3.193v-3.773c0-.313.255-.568.562-.568h.49v-11.633h-5.863a2.104 2.104 0 0 1-2.109-2.109v-7.09c0-2.089.523-4.152 1.522-5.987v-6.677c0-1.071-.281-2.122-.81-3.056l-1.547-2.702a2.46 2.46 0 0 1 .398-2.97l.32-.32a1.08 1.08 0 0 1 .777-.327h4.152a.35.35 0 0 0 .352-.346v-.62a.35.35 0 0 1 .353-.346h2.455v-.581a1.869 1.869 0 0 1-1.326-1.782c0-1.032.836-1.867 1.874-1.867 1.031 0 1.867.835 1.867 1.867a1.87 1.87 0 0 1-1.319 1.782v.58h2.455c.19 0 .346.158.346.347v.62c0 .19.157.346.352.346h4.152c.294 0 .575.118.777.326l.327.32c.783.784.946 2.004.391 2.97l-1.547 2.703a6.198 6.198 0 0 0-.81 3.056M297.505 162.428a1.098 1.098 0 0 0-.776-.321h-4.154a.35.35 0 0 1-.35-.352v-.615a.351.351 0 0 0-.352-.35h-2.456v-.58a1.864 1.864 0 0 0-.548-3.648 1.864 1.864 0 1 0-.548 3.647v.58h-2.454a.351.351 0 0 0-.351.351v.615a.351.351 0 0 1-.351.352h-4.154c-.291 0-.57.115-.776.32l-.321.322a2.469 2.469 0 0 0-.398 2.97l1.547 2.707c.53.929.81 1.981.81 3.05v6.682a12.513 12.513 0 0 0-1.522 5.985v7.089c0 1.166.945 2.112 2.112 2.112h5.858v11.631h-.484a.563.563 0 0 0-.561.568v3.773h3.193v-3.773a.569.569 0 0 0-.568-.568h-.484v-11.63h5.86a2.113 2.113 0 0 0 2.112-2.113v-7.09a12.52 12.52 0 0 0-1.523-5.984v-6.681c0-1.07.28-2.122.81-3.051l1.548-2.707a2.47 2.47 0 0 0-.398-2.97l-.321-.321zM341.712 168.426l1.548-2.707a2.468 2.468 0 0 0-.398-2.97l-.321-.322a1.1 1.1 0 0 0-.776-.32h-4.154a.35.35 0 0 1-.35-.352v-.614a.352.352 0 0 0-.352-.352h-2.453v-.58a1.863 1.863 0 0 0-.55-3.647 1.87 1.87 0 0 0-1.87 1.87c0 .84.559 1.544 1.323 1.778v.58h-2.457a.352.352 0 0 0-.351.35v.615a.351.351 0 0 1-.351.351h-4.154a1.1 1.1 0 0 0-.776.321l-.32.322a2.467 2.467 0 0 0-.398 2.97l1.547 2.707c.53.93.81 1.98.81 3.05v6.681a12.522 12.522 0 0 0-1.523 5.985v7.09c0 1.167.945 2.113 2.112 2.113h5.861v11.63h-.49a.567.567 0 0 0-.56.568v3.774H335.5v-3.774a.563.563 0 0 0-.56-.568h-.484v-11.63h5.857a2.113 2.113 0 0 0 2.112-2.113v-7.09a12.53 12.53 0 0 0-1.523-5.985v-6.68c0-1.07.28-2.122.81-3.051"/>
        <g fill="#FAFBFB">
            <path d="M141.148 163.155v2.65l-29.018-29.018h2.65zM141.148 171.433v9.518l-44.164-44.163h9.518z"/>
        </g>
        <g fill="#FAFBFB">
            <path d="M236.858 179.443v3.59l-46.252-46.245h3.597zM236.858 155.814v14.245l-33.27-33.272h14.244z"/>
        </g>
        <g fill="#FAFBFB">
            <path d="M351.952 185.625v2.644l-51.489-51.482h2.65zM351.952 166.941v9.519l-39.673-39.672h9.52z"/>
        </g>
        <g>
            <path fill="#FF490F" d="M33.37 120.636h8.532v-4.679H33.37zM43.784 120.636h8.531v-4.679h-8.53zM38.389 127.198h8.53v-4.68h-8.53zM38.389 114.075h8.53v-4.68h-8.53zM33.37 226.872h8.532v-4.679H33.37zM43.784 226.872h8.531v-4.679h-8.53zM38.389 233.433h8.53v-4.678h-8.53zM144.069 124.858h8.531v-4.679h-8.531zM154.482 124.858h8.531v-4.679h-8.53zM149.087 131.419h8.53v-4.679h-8.53zM149.087 118.296h8.53v-4.678h-8.53zM164.896 124.858h8.531v-4.679h-8.53zM159.5 131.419h8.532v-4.679H159.5zM159.5 118.296h8.532v-4.678H159.5zM243.564 187.594h8.53v-4.679h-8.53zM253.977 187.594h8.531v-4.679h-8.531zM248.581 194.155h8.531v-4.678h-8.53zM248.581 181.032h8.531v-4.678h-8.53zM266.56 226.54h8.531v-4.678h-8.53zM276.975 226.54h8.53v-4.678h-8.53zM271.579 233.102h8.53v-4.678h-8.53zM256.147 226.54h8.531v-4.678h-8.531zM261.165 233.102h8.531v-4.678h-8.53zM360.486 153.636h8.531v-4.679h-8.53zM370.9 153.636h8.531v-4.679H370.9zM365.504 160.197h8.532v-4.68h-8.532zM365.504 147.075h8.532v-4.68h-8.532zM360.486 226.872h8.531v-4.679h-8.53zM370.9 226.872h8.531v-4.679H370.9zM365.504 233.433h8.532v-4.678h-8.532zM365.504 220.31h8.532v-4.679h-8.532zM279.398 115.015h8.531v-4.679h-8.531zM289.812 115.015h8.53v-4.679h-8.53zM284.416 121.577h8.53v-4.679h-8.53zM94.299 228.424h8.53v-4.68H94.3zM83.886 228.424h8.53v-4.68h-8.53zM89.281 221.862h8.531v-4.68h-8.53zM153.541 234.044h8.532v-4.679h-8.532zM158.937 227.482h8.531v-4.679h-8.53zM240.865 124.858h8.532v-4.679h-8.532zM246.261 118.296h8.53v-4.678h-8.53zM352.893 124.662h8.53v-4.679h-8.53zM347.875 118.1h8.531v-4.678h-8.531zM38.389 178.96h8.53v-4.68h-8.53zM33.37 172.398h8.532v-4.679H33.37z"/>
            <path fill="#FF7043" d="M47.023 5.82h317.926V.815H47.023z"/>
            <path fill="#000" d="M67.301 50.647h7.29V47.82h-7.29zM337.381 50.647h7.29V47.82h-7.29z"/>
            <path fill="#2E7D32" d="M395.07 234.513c0 9.816-7.957 17.772-17.772 17.772-9.816 0-17.772-7.956-17.772-17.772 0-9.814 7.956-17.772 17.772-17.772 9.815 0 17.771 7.958 17.771 17.772M354.763 203.607h-86.75a3.673 3.673 0 0 0-3.674 3.673v2.036h94.096v-2.036a3.673 3.673 0 0 0-3.672-3.673M143.96 203.607H57.21a3.673 3.673 0 0 0-3.673 3.673v2.036h94.095v-2.036a3.672 3.672 0 0 0-3.672-3.673"/>
            <path fill="#FFE082" d="M60.336 5.82a3.698 3.698 0 0 0 7.396 0h-7.396zM131.313 5.82a3.698 3.698 0 0 0 7.395 0h-7.395zM202.289 5.82a3.698 3.698 0 0 0 7.395 0h-7.395zM273.264 5.82a3.698 3.698 0 0 0 7.396 0h-7.396zM344.24 5.82a3.698 3.698 0 0 0 7.396 0h-7.395z"/>
            <path fill="#FFB74D" d="M19.881 245.83h3.734v-25.522h-3.734zM61.693 245.83h3.735v-25.522h-3.735z"/>
            <path fill="#FFCC80" d="M18.484 242.01h48.34v-64.63h-48.34z"/>
            <path fill="#212121" d="M21.748 238.747H63.56v-58.102H21.748z"/>
            <text fill="#FFF" font-family="SourceSansPro-Semibold, Source Sans Pro" font-size="12" font-weight="500" transform="translate(17.972 .7)">
                <tspan x="6.741" y="211.82">pulsuz </tspan> <tspan x="6.741" y="226.72">elanlar</tspan>
            </text>
        </g>
        <g>
            <path fill="#BDBDBD" d="M394.688 78.749a2.323 2.323 0 0 1 0 4.644H17.285a2.323 2.323 0 1 1 0-4.644h377.403z"/>
            <path fill="#E0E0E0" d="M29.417 69.61h353.14v-4.589H29.416zM29.417 60.431h353.14v-4.59H29.416z"/>
            <path fill="#FF7043" d="M32.485 65.021h347.003v-4.59H32.485z"/>
            <path fill="#212121" d="M32.485 62.726h347.003V60.43H32.485z"/>
            <path fill="#D32E2E" d="M363.446 78.749v12.393c0 7.906 6.408 14.315 14.315 14.315 7.905 0 14.314-6.409 14.314-14.315V78.75h-28.63z"/>
            <path fill="#E0E0E0" d="M334.817 78.749v12.393c0 7.906 6.409 14.315 14.314 14.315 7.906 0 14.315-6.409 14.315-14.315V78.75h-28.63z"/>
            <path fill="#D32E2E" d="M306.188 78.749v12.393c0 7.906 6.408 14.315 14.315 14.315 7.905 0 14.314-6.409 14.314-14.315V78.75h-28.629z"/>
            <path fill="#E0E0E0" d="M277.559 78.749v12.393c0 7.906 6.409 14.315 14.314 14.315 7.906 0 14.315-6.409 14.315-14.315V78.75h-28.63z"/>
            <path fill="#D32E2E" d="M248.93 78.749v12.393c0 7.906 6.408 14.315 14.315 14.315 7.905 0 14.314-6.409 14.314-14.315V78.75H248.93z"/>
            <path fill="#E0E0E0" d="M220.3 78.749v12.393c0 7.906 6.41 14.315 14.315 14.315 7.906 0 14.315-6.409 14.315-14.315V78.75H220.3z"/>
            <path fill="#D32E2E" d="M191.672 78.749v12.393c0 7.906 6.409 14.315 14.314 14.315 7.906 0 14.315-6.409 14.315-14.315V78.75h-28.63z"/>
            <path fill="#E0E0E0" d="M163.043 78.749v12.393c0 7.906 6.409 14.315 14.314 14.315 7.906 0 14.315-6.409 14.315-14.315V78.75h-28.63z"/>
            <path fill="#D32E2E" d="M134.414 78.749v12.393c0 7.906 6.409 14.315 14.314 14.315 7.906 0 14.315-6.409 14.315-14.315V78.75h-28.63z"/>
            <path fill="#E0E0E0" d="M105.785 78.749v12.393c0 7.906 6.409 14.315 14.314 14.315 7.906 0 14.315-6.409 14.315-14.315V78.75h-28.63z"/>
            <path fill="#D32E2E" d="M77.156 78.749v12.393c0 7.906 6.408 14.315 14.314 14.315s14.315-6.409 14.315-14.315V78.75h-28.63z"/>
            <path fill="#E0E0E0" d="M48.527 78.749v12.393c0 7.906 6.408 14.315 14.314 14.315s14.315-6.409 14.315-14.315V78.75h-28.63z"/>
            <path fill="#D32E2E" d="M19.898 78.749v12.393c0 7.906 6.408 14.315 14.314 14.315s14.315-6.409 14.315-14.315V78.75h-28.63zM56.581 69.61l-8.054 9.139h-28.63l9.52-9.138"/>
            <path fill="#FAFBFB" d="M83.746 69.61l-6.59 9.139h-28.63l8.055-9.138"/>
            <path fill="#D32E2E" d="M110.91 69.61l-5.126 9.139H77.155l6.59-9.138"/>
            <path fill="#FAFBFB" d="M138.075 69.61l-3.661 9.139h-28.63l5.127-9.138"/>
            <path fill="#D32E2E" d="M165.24 69.61l-2.197 9.139h-28.63l3.662-9.138"/>
            <path fill="#FAFBFB" d="M192.404 69.61l-.732 9.139h-28.63l2.197-9.138"/>
            <path fill="#D32E2E" d="M219.569 69.61l.732 9.139h-28.629l.732-9.138"/>
            <path fill="#FAFBFB" d="M246.733 69.61l2.197 9.139H220.3l-.731-9.138"/>
            <path fill="#D32E2E" d="M273.897 69.61l3.662 9.139H248.93l-2.197-9.138"/>
            <path fill="#FAFBFB" d="M301.062 69.61l5.126 9.139h-28.63l-3.66-9.138"/>
            <path fill="#D32E2E" d="M328.227 69.61l6.59 9.139h-28.629l-5.125-9.138"/>
            <path fill="#FAFBFB" d="M355.391 69.61l8.055 9.139h-28.63l-6.589-9.138"/>
            <path fill="#D32E2E" d="M382.556 69.61l9.519 9.139h-28.63l-8.054-9.138"/>
        </g>
        <text fill="#FFF" font-family="HelveticaNeue-Bold, Helvetica Neue" font-size="18" font-weight="bold" transform="translate(-.144 -.144)">
            <tspan x="85" y="33">Ваш магазин на</tspan>
        </text>
    </g>
</svg>
