<svg xmlns="http://www.w3.org/2000/svg" xmlns:xlink="http://www.w3.org/1999/xlink" width="286" height="139" viewBox="0 0 286 139">
    <defs>
        <path id="a" d="M0 190.121h284.961V.405H0z"/>
    </defs>
    <g fill="none" fill-rule="evenodd" transform="translate(.095 -48.441)">
        <path fill="#388E3C" d="M234.576 136.686c11.991 0 21.713 9.72 21.713 21.713v28.446h-43.426v-28.446c0-11.992 9.72-21.713 21.713-21.713z"/>
        <path fill="#2E7D32" d="M276.139 168.95c0 8.375-6.79 15.164-15.165 15.164s-15.164-6.79-15.164-15.165c0-8.374 6.79-15.164 15.164-15.164 8.375 0 15.165 6.79 15.165 15.164"/>
        <path fill="#1B5E20" d="M27.271 174.027c0 5.571-4.516 10.087-10.087 10.087-5.57 0-10.087-4.516-10.087-10.087 0-5.57 4.516-10.087 10.087-10.087 5.57 0 10.087 4.516 10.087 10.087"/>
        <path fill="#2E7D32" d="M60.391 163.273c0 11.51-9.33 20.84-20.84 20.84-11.511 0-20.842-9.33-20.842-20.84s9.33-20.841 20.841-20.841c11.51 0 20.841 9.33 20.841 20.84"/>
        <mask id="b" fill="#fff">
            <use xlink:href="#a"/>
        </mask>
        <path fill="#E0E0E0" d="M0 190.121h284.961v-11.589H0z" mask="url(#b)"/>
        <path fill="#D32E2E" d="M47.753 178.532h189.455V59.614H47.753z" mask="url(#b)"/>
        <path fill="#F5F5F5" d="M237.743 171.338h-18.067v7.194h20.144v-5.117c0-1.147-.93-2.077-2.077-2.077" mask="url(#b)"/>
        <path fill="#3E2723" d="M166.448 178.532h53.228V92.525h-53.228z" mask="url(#b)"/>
        <path fill="#80DEEA" d="M169.61 175.37h46.904V95.686H169.61z" mask="url(#b)"/>
        <path fill="#B2DFDB" d="M216.513 115.404v4.888l-24.605-24.606h4.887zM216.513 163.442v4.883l-46.904-46.904v-4.883zM216.513 122.89v9.775l-36.979-36.978h9.775z" mask="url(#b)"/>
        <path fill="#212121" d="M169.61 97.378h46.904v-1.691H169.61z" mask="url(#b)"/>
        <path fill="#E0E0E0" d="M177.31 129.946a2.022 2.022 0 1 1-4.044 0 2.022 2.022 0 0 1 4.044 0M177.31 144.43a2.022 2.022 0 1 1-4.043 0 2.022 2.022 0 0 1 4.043 0" mask="url(#b)"/>
        <path fill="#F5F5F5" d="M175.289 128.366c-.64 0-1.158.518-1.158 1.158v15.329a1.158 1.158 0 0 0 2.315 0v-15.33c0-.639-.518-1.157-1.157-1.157M166.448 171.338H47.218c-1.147 0-2.077.93-2.077 2.077v5.117h121.307v-7.194z" mask="url(#b)"/>
        <path fill="#BDBDBD" d="M47.515 55.577h189.93V52.09H47.516z" mask="url(#b)"/>
        <path fill="#C62828" d="M49.846 52.09h185.269v-3.487H49.846z" mask="url(#b)"/>
        <path fill="#212121" d="M49.846 50.346h185.269v-1.744H49.846z" mask="url(#b)"/>
        <path fill="#B71C1C" d="M202.995 89.592h10.628V85.46h-10.628zM216.414 89.592h10.628V85.46h-10.628zM209.748 82.712h10.628v-4.133h-10.628zM221.728 147.584h10.628v-4.133h-10.628zM228.481 140.703h10.628v-4.133h-10.628zM65.294 89.592h10.628V85.46H65.294zM78.713 89.592h10.628V85.46H78.713zM72.047 82.712h10.628v-4.133H72.047zM85.466 82.712h10.628v-4.133H85.466zM97.533 168.073h10.628v-4.133H97.533zM137.166 161.193h10.629v-4.133h-10.629zM84.114 168.073h10.628v-4.133H84.114zM90.78 161.193h10.628v-4.133H90.78zM77.361 161.193H87.99v-4.133H77.361zM45.975 125.381h7.681v-4.133h-7.68zM50.856 118.5h7.681v-4.132h-7.681z" mask="url(#b)"/>
        <path fill="#F5F5F5" d="M219.676 104.673a.793.793 0 0 0-.793.792v6.05a.793.793 0 1 0 1.586 0v-6.05a.793.793 0 0 0-.793-.792M219.676 158.749a.793.793 0 0 0-.793.793v6.05a.793.793 0 1 0 1.586 0v-6.05a.793.793 0 0 0-.793-.793" mask="url(#b)"/>
        <path fill="#B71C1C" d="M134.77 89.592h5.314V85.46h-5.314zM140.836 82.712h5.314v-4.133h-5.314zM126.615 82.712h10.628v-4.133h-10.628zM55.077 160.904h5.314v-4.133h-5.314zM46.04 154.024h10.628v-4.133H46.04zM223.425 120.396h7.672v-4.134h-7.672zM152.848 107.45h5.366v-4.134h-5.366zM155.531 113.405h5.366v-4.133h-5.366z" mask="url(#b)"/>
        <path fill="#E0E0E0" d="M64.913 70.563c0 6.12 4.961 11.082 11.081 11.082 6.12 0 11.08-4.962 11.08-11.082v-6.911H64.914v6.911zM109.237 70.563c0 6.12 4.961 11.082 11.082 11.082 6.12 0 11.08-4.962 11.08-11.082v-6.911h-22.162v6.911zM153.561 70.563c0 6.12 4.962 11.082 11.082 11.082 6.12 0 11.08-4.962 11.08-11.082v-6.911h-22.162v6.911zM197.886 63.652v6.911c0 6.12 4.961 11.082 11.081 11.082 6.12 0 11.081-4.962 11.081-11.082v-6.911h-22.162z" mask="url(#b)"/>
        <path fill="#EEE" d="M64.913 63.652h22.162l2.647-8.076H68.62zM109.237 63.652H131.4l.53-8.076h-21.103zM153.032 55.577l.53 8.075h22.162l-1.588-8.075zM216.343 55.577h-21.104l2.647 8.075h22.162z" mask="url(#b)"/>
        <path fill="#00ACC1" d="M42.75 70.563c0 6.12 4.962 11.082 11.082 11.082 6.12 0 11.08-4.962 11.08-11.082v-6.911H42.752v6.911zM87.075 70.563c0 6.12 4.961 11.082 11.081 11.082 6.12 0 11.081-4.962 11.081-11.082v-6.911H87.075v6.911zM131.4 70.563c0 6.12 4.96 11.082 11.08 11.082s11.082-4.962 11.082-11.082v-6.911h-22.163v6.911zM175.724 70.563c0 6.12 4.96 11.082 11.08 11.082 6.121 0 11.082-4.962 11.082-11.082v-6.911h-22.162v6.911zM220.048 63.652v6.911c0 6.12 4.961 11.082 11.081 11.082 6.12 0 11.082-4.962 11.082-11.082v-6.911h-22.163zM42.75 63.652h22.163l3.706-8.076H47.516zM87.075 63.652h22.162l1.589-8.076H89.722zM131.929 55.577l-.53 8.075h22.163l-.53-8.075zM174.136 55.577l1.588 8.075h22.162l-2.647-8.075zM237.446 55.577h-21.104l3.707 8.075h22.162z" mask="url(#b)"/>
        <path fill="#B71C1C" d="M49.816 96.659h5.635v-4.134h-5.635z" mask="url(#b)"/>
        <path fill="#3E2723" d="M62.679 148.106h90.17V93.408h-90.17z" mask="url(#b)"/>
        <path fill="#80DEEA" d="M65.84 144.945h83.847V96.569H65.84z" mask="url(#b)"/>
        <path fill="#B2DFDB" d="M149.685 110.843v7.486l-21.76-21.76h7.486zM149.685 120.411v3.74L122.102 96.57h3.745zM149.685 137.46v7.486H142.2L93.822 96.57h14.972z" mask="url(#b)"/>
        <path fill="#212121" d="M65.84 98.26h83.847v-1.69H65.84z" mask="url(#b)"/>
        <path fill="#FAFBFB" d="M57.985 158.399h99.557v-10.293H57.985z" mask="url(#b)"/>
        <path fill="#43A047" d="M151.368 142.077h-87.21a4.182 4.182 0 0 0-4.182 4.182v1.847h95.575v-1.847a4.182 4.182 0 0 0-4.183-4.182" mask="url(#b)"/>
        <path fill="#EEE" d="M57.985 150.312h99.556v-2.206H57.985z" mask="url(#b)"/>
        <path fill="#43A047" d="M155.54 146.047H59.986c-.003.071-.01.14-.01.212v1.847h95.575v-1.847c0-.071-.007-.14-.011-.212" mask="url(#b)"/>
    </g>
</svg>
