<svg xmlns="http://www.w3.org/2000/svg" width="172" height="162" viewBox="0 0 172 162">
    <g fill="none" fill-rule="evenodd">
        <path fill="#F5D8E5" d="M31.615 162.038h295.303V25.878H31.615z"/>
        <path fill="#000" d="M316.765 26.59H31.991v30.925c.154.004.308.006.464.006 5.815 0 10.53-2.75 10.53-6.142 0 3.391 4.714 6.142 10.53 6.142 5.815 0 10.53-2.75 10.53-6.142 0 3.391 4.714 6.142 10.53 6.142 5.815 0 10.53-2.75 10.53-6.142 0 3.391 4.715 6.142 10.53 6.142 5.815 0 10.53-2.75 10.53-6.142 0 3.391 4.714 6.142 10.53 6.142 5.815 0 10.53-2.75 10.53-6.142 0 3.391 4.713 6.142 10.53 6.142 5.815 0 10.53-2.75 10.53-6.142 0 3.391 4.715 6.142 10.53 6.142 5.815 0 10.53-2.75 10.53-6.142 0 3.391 4.715 6.142 10.53 6.142 5.815 0 10.53-2.75 10.53-6.142 0 3.391 4.715 6.142 10.53 6.142 5.815 0 10.53-2.75 10.53-6.142 0 3.391 4.714 6.142 10.53 6.142 5.816 0 10.53-2.75 10.53-6.142 0 3.391 4.715 6.142 10.53 6.142 5.815 0 10.53-2.75 10.53-6.142 0 3.391 4.714 6.142 10.53 6.142 5.817 0 10.53-2.75 10.53-6.142 0 3.391 4.714 6.142 10.529 6.142 5.816 0 10.53-2.75 10.53-6.142 0 3.391 4.714 6.142 10.53 6.142 5.818 0 10.531-2.75 10.531-6.142 0 3.391 4.715 6.142 10.529 6.142V26.59h-10.529z"/>
        <path fill="#D64E71" d="M21.924.251v42.497c0 5.814 4.715 10.53 10.53 10.53 5.816 0 10.53-4.716 10.53-10.53V.25h-21.06z"/>
        <path fill="#FDE5D7" d="M42.985.251v42.497c0 5.814 4.714 10.53 10.53 10.53 5.815 0 10.53-4.716 10.53-10.53V.25h-21.06z"/>
        <path fill="#D64E71" d="M64.045.251v42.497c0 5.814 4.714 10.53 10.53 10.53 5.815 0 10.53-4.716 10.53-10.53V.25h-21.06z"/>
        <path fill="#FDE5D7" d="M85.105.251v42.497c0 5.814 4.715 10.53 10.53 10.53 5.815 0 10.53-4.716 10.53-10.53V.25h-21.06z"/>
        <path fill="#D64E71" d="M106.164.251v42.497c0 5.814 4.716 10.53 10.531 10.53s10.53-4.716 10.53-10.53V.25h-21.06z"/>
        <path fill="#FDE5D7" d="M127.225.251v42.497c0 5.814 4.713 10.53 10.53 10.53 5.815 0 10.53-4.716 10.53-10.53V.25h-21.06z"/>
        <path fill="#D64E71" d="M148.284.251v42.497c0 5.814 4.716 10.53 10.531 10.53s10.53-4.716 10.53-10.53V.25h-21.06z"/>
        <path fill="#FDE5D7" d="M169.345.251v42.497c0 5.814 4.715 10.53 10.53 10.53 5.815 0 10.53-4.716 10.53-10.53V.25h-21.06z"/>
        <path fill="#000" d="M116.298 10.417V31.407h128.994v-20.99z"/>
        <path fill="#D3D3D5" d="M115.295 30.404h128.992V9.414H115.295z"/>
        <path fill="#F3F2F2" d="M118.29 28.181h123.002V11.634H118.291z"/>
        <path fill="#D64E71" d="M172.495 18.746c.096-.095.55-.535.7-.535.138 0 .207.096.138.315l.027.028c1.333-1.154 2.199-2.39 2.199-2.844 0-.233-.151-.33-.371-.275-.247.069-1.814.124-4.891 3.724-.962 1.126-1.662 2.65-1.662 3.695 0 .975.467 1.553 1.456 1.553 1.731 0 4.754-2.254 6.059-3.408.04.7-.18.894-.701 1.388-2.679 2.583-4.96 3.407-6.25 3.407-1.526 0-2.625-.948-2.625-2.527 0-2.02 1.69-4.19 3.105-5.524 1.167-1.112 4.053-3.31 5.687-3.31.825 0 1.36.44 1.402 1.304.096 1.855-3.448 5.372-5.18 5.633-.398.055-.769-.22-.769-.66 0-.411.371-.823.66-1.07l1.016-.894zM129.083 20.161l1.565-5.929h-3.424l1.564 5.929v4.174h-.65v.287h1.598v-.287h-.653z"/>
        <path fill="#D66994" d="M152.609 21.075c.233.497-.136 1.133-.819 1.417a1.704 1.704 0 0 1-.868.12c.363-.514.586-1.197.586-1.949 0-.035-.003-.07-.005-.104.493-.034.937.153 1.106.516m-1.873 1.773c.353.063.763.023 1.155-.141.85-.353 1.304-1.14 1.017-1.756-.217-.46-.788-.697-1.418-.638a2.783 2.783 0 0 0-.029-.233h-7.68a3.88 3.88 0 0 0-.046.583c0 1.597 1 2.893 2.232 2.893h-2.92v.294h9.214v-.294h-2.987c.559 0 1.07-.269 1.462-.708"/>
        <path fill="#F4A5C5" d="M42.985 161.773h52.65V58.524h-52.65z"/>
        <path fill="#C6DAF0" d="M45.588 108.92h47.889V61.03H45.588zM45.588 159.567h47.889V111.68H45.588z"/>
        <path fill="#F4A5C5" d="M100.435 130.404h213.618V58.697H100.435z"/>
        <path fill="#C6DAF0" d="M102.97 127.365h206.914v-65.69H102.97z"/>
        <path fill="#B3C0D2" d="M121.32 105.68c-1.474.22-2.596 1.28-2.596 2.555v19.13h1.537V107.94c0-.906.413-1.718 1.06-2.26M125.09 105.68a2.942 2.942 0 0 1 1.06 2.26v19.425h1.537v-19.13c0-1.275-1.123-2.335-2.597-2.554M161.074 109.685c-.406-.032-.773.136-.912.458-.192.443.112 1.008.676 1.261.243.11.493.139.716.106-.299-.457-.484-1.065-.484-1.733 0-.033.003-.062.004-.092"/>
        <path fill="#B3C0D2" d="M190.329 103.624l-.017-.084c-.01-.05-.019-.1-.026-.154a3.281 3.281 0 0 1-.033-.262l-.007-.068a6.629 6.629 0 0 1-.022-.515v-.063l.001-.054c.91-.307 2.097-.582 2.445-.314.789.607.09 1.26-.808 2.55-.247.354-.546.707-.828 1.064a12.118 12.118 0 0 0-.576-1.686 2.393 2.393 0 0 1-.072-.197c-.007-.022-.012-.046-.02-.069a2.601 2.601 0 0 1-.037-.148zm-29.49 7.78c-.565-.253-.868-.819-.677-1.26.14-.324.506-.49.912-.46-.001.03-.004.06-.004.092 0 .669.185 1.277.484 1.735a1.296 1.296 0 0 1-.716-.107zm40.477-1.628c0-.031-.002-.062-.003-.091.406-.031.772.135.912.459.192.441-.112 1.007-.676 1.26-.242.11-.493.139-.716.107.3-.458.483-1.066.483-1.735zm10.238 16.434l1.256-.742v-12.854h-10.872v-.262h-2.464c.46 0 .882-.24 1.205-.63.293.056.63.02.953-.125.7-.314 1.076-1.016.838-1.564-.178-.41-.65-.62-1.17-.568a3.083 3.083 0 0 0-.022-.208H194.94a3.597 3.597 0 0 0-.038.52c0 1.422.825 2.575 1.843 2.575h-2.411v.262h-3.955c1.234-1.825 1.212-4.08.889-5.852.266-.602.675-1.187 1.06-1.741.84-1.206 1.633-2.346.548-3.18-.507-.388-1.84-.04-2.643.224l.001-.029.005-.088.009-.15.005-.089.011-.123c.024-.29.054-.532.075-.681h.019a.23.23 0 0 0 0-.458h-.093a.868.868 0 0 0-.163-.118.75.75 0 0 0-.166-.088 1.41 1.41 0 0 0-.056-.026c-.042-.017-.087-.033-.133-.05a3.056 3.056 0 0 0-.423-.114l-.005-.001a4.96 4.96 0 0 0-.458-.07h-.001c-.047-.005-.092-.011-.14-.014-.023-.127-.202-.228-.425-.228-.22 0-.394.097-.424.218-.772.047-1.403.237-1.668.491h-.093a.228.228 0 0 0-.227.229c0 .02.006.04.011.059h-1.246.016a1.064 1.064 0 0 1 .184.018c.572.083 2.12.558 1.07 3.285-.415 1.08-2.034 5.449.08 8.576h-2.479l-1.87-3.82v-3.086H174.741v6.906h-6.688v-.262h-2.41c1.017 0 1.842-1.153 1.842-2.576 0-.178-.013-.351-.038-.52h-6.338c-.01.07-.017.139-.023.209-.52-.052-.993.158-1.17.568-.237.548.14 1.25.839 1.564.324.145.66.181.954.125.322.39.743.63 1.204.63h-2.463v.262h-13.832V127.365h65.065l-.13-1.155z"/>
        <path fill="#B3C0D2" d="M164.635 108.02c1.122-2.064-.418-2.176-.162-3.543-.09.567-.303 1.296.009 1.567.734.638.153 1.976.153 1.976M164.221 108.45a.7.7 0 0 0 .111.226 3.93 3.93 0 0 1-.11-.225"/>
        <path fill="#B3C0D2" d="M164.482 107.711c.23-.204.072-.756.006-1.183.18.978-.863.635-.267 1.922-.054-.185-.052-.463.26-.739M118.724 108.235c0-1.275 1.122-2.335 2.596-2.554a2.941 2.941 0 0 0-1.059 2.26v19.424h5.889v-19.424a2.94 2.94 0 0 0-1.06-2.26c1.474.219 2.597 1.279 2.597 2.554v19.13h1.262v-19.13c0-2.005-1.981-3.635-4.416-3.635h-2.655c-2.435 0-4.415 1.63-4.415 3.635v19.13h1.26v-19.13z"/>
        <path fill="#FFF" d="M309.885 61.675H183.078L102.97 88.967v38.398h15.455l191.46-65.23zM148.977 127.365l160.907-54.82v-5.458l-176.928 60.278z"/>
        <path fill="#E0E0E0" d="M.819 164.711h453.31v-10.587H.819z"/>
        <path fill="gray" d="M182.64 161.831h-1.177c-1.808-2.672-5.53-4.65-10-5.177v-6.304c0-.757-.206-1.452-.552-1.994.306-.002.552-.325.552-.72a.812.812 0 0 0-.217-.57.81.81 0 0 0 .217-.569c0-.327-.168-.6-.398-.688a3.808 3.808 0 0 0 .398-1.723v-18.952c0-1.73-1.08-3.133-2.41-3.133-1.333 0-2.412 1.403-2.412 3.133v18.952c0 .637.147 1.228.398 1.723-.23.088-.398.36-.398.688 0 .232.086.438.217.569a.807.807 0 0 0-.217.57c0 .395.247.718.551.72-.343.542-.551 1.237-.551 1.994v6.312c-4.44.539-8.134 2.512-9.934 5.17h-1.242a.633.633 0 1 0 0 1.264H159.007a.633.633 0 0 0 .004-1.265c2.05-2.092 5.795-3.5 10.074-3.5s8.022 1.408 10.075 3.5h-.063a.632.632 0 0 0 0 1.265h3.543a.633.633 0 0 0 0-1.265"/>
        <path fill="#FDD3A2" d="M187.573 135.177l-51.617-5.871V113.72h66.192v12.853z"/>
        <g fill="#F17C95">
            <path d="M135.956 113.72v.762l.466-.762z"/>
            <path d="M136.422 113.72l-.466.762v4.663l3.31-5.425zM144.958 113.72h-2.845l-6.157 10.087v2.472l.975.594zM141.077 129.404l9.573-15.683h-2.846l-8.8 14.418zM153.495 113.72l-10.033 16.44 2.661.302 10.218-16.742zM159.186 113.72l-10.402 17.045 2.66.302 10.588-17.347zM164.879 113.72l-10.774 17.65 2.663.303 10.957-17.953zM170.57 113.72l-11.142 18.256 2.661.302 11.327-18.558zM176.262 113.72l-11.512 18.86 2.66.304 11.697-19.164zM181.953 113.72l-11.88 19.465 2.66.304L184.8 113.72z"/>
        </g>
        <g fill="#D31C5B">
            <path d="M135.956 129.306l1.798.204-1.798-1.097zM167.833 113.72l27.576 16.83 2.37-1.4-25.284-15.43zM158.507 113.72l32.163 19.63 2.37-1.4-29.87-18.23zM149.183 113.72l34.415 21.004 3.975.453.726-.429-34.454-21.028zM139.857 113.72l32.279 19.7 5.732.652-33.348-20.352zM135.956 117.03l24.72 15.088 5.73.651-30.45-18.585zM135.956 122.721l13.258 8.092 5.732.653-18.99-11.59z"/>
            <path d="M135.956 128.413l1.798 1.097 5.73.653-7.528-4.596z"/>
        </g>
        <path fill="#D31C5B" d="M135.956 124.733v4.573l51.617 5.87 14.575-8.602V122l-14.575 8.605z"/>
        <path fill="#D31C5B" d="M135.956 122.717v1l51.617 5.87 14.575-8.603v-.998l-14.575 8.603z"/>
        <path fill="gray" d="M172.857 113.72h-2.35v-4.801z"/>
        <path fill="#D64E71" d="M164.08 113.72h6.907v-6.908h-6.907z"/>
        <path fill="#F3F2F2" d="M164.555 113.246h5.958v-5.959h-5.958z"/>
        <path fill="#D64E71" d="M166.953 110.477v1.101h.604c.238 0 .418-.045.54-.136.12-.092.18-.236.18-.432 0-.181-.06-.315-.184-.402-.124-.088-.312-.131-.565-.131h-.575zm0-.462h.547c.238 0 .412-.037.52-.113.11-.075.165-.203.165-.384 0-.163-.06-.282-.177-.354-.118-.074-.306-.11-.563-.11h-.492v.961zm-.569-1.437h1.033c.479 0 .825.07 1.038.21.214.14.32.36.32.661a.799.799 0 0 1-.157.507.701.701 0 0 1-.452.254v.024c.244.046.424.137.539.273.115.135.172.319.172.55 0 .313-.109.558-.327.734-.218.177-.52.266-.91.266h-1.256v-3.479z"/>
        <path fill="#1A1A1A" d="M164.08 106.812h6.906v6.909z"/>
        <path fill="gray" d="M125.029 161.553v-23.034a2.51 2.51 0 0 0-2.507-2.507h-12.994a2.51 2.51 0 0 0-2.507 2.507v23.034h-1.003v-23.034a3.514 3.514 0 0 1 3.51-3.51h12.994a3.515 3.515 0 0 1 3.51 3.51v23.034h-1.003z"/>
        <path fill="gray" d="M129.96 161.553v-23.034a2.51 2.51 0 0 0-2.507-2.507h-12.994a2.51 2.51 0 0 0-2.507 2.507v23.034h-1.004v-23.034a3.514 3.514 0 0 1 3.511-3.51h12.994a3.514 3.514 0 0 1 3.51 3.51v23.034h-1.003zM117.024 132.637V109.34c0-1.433-1.414-2.596-3.154-2.596h-2.654c-1.739 0-3.154 1.163-3.154 2.596v23.297H106.8V109.34c0-2.006 1.981-3.636 4.416-3.636h2.654c2.435 0 4.416 1.63 4.416 3.636v23.297h-1.262z"/>
        <path fill="gray" d="M126.033 155.87h3.927v-.935h-3.927zM107.021 155.87h3.927v-.935h-3.927zM114.484 132.303v-23.258c0-1.07-.87-1.942-1.94-1.942-1.07 0-1.943.872-1.943 1.942v23.258h-1.003v-23.258a2.948 2.948 0 0 1 2.945-2.944 2.947 2.947 0 0 1 2.945 2.944v23.258h-1.004z"/>
        <path fill="#D64E71" d="M110.1 132.303v-23.258a2.442 2.442 0 1 1 4.886 0v23.258H110.1z"/>
        <path fill="#BC425B" d="M105.61 133.457c0 .858.695 1.552 1.551 1.552h22.25a1.552 1.552 0 1 0 0-3.104h-22.25c-.856 0-1.551.695-1.551 1.552"/>
    </g>
</svg>
