<svg xmlns="http://www.w3.org/2000/svg" xmlns:xlink="http://www.w3.org/1999/xlink" width="1300" height="715" viewBox="0 0 1300 715">
    <defs>
        <path id="a" d="M0 0h1300v703H0z"/>
        <filter id="b" width="101.7%" height="103.1%" x="-.8%" y="-1%" filterUnits="objectBoundingBox">
            <feOffset dy="4" in="SourceAlpha" result="shadowOffsetOuter1"/>
            <feGaussianBlur in="shadowOffsetOuter1" result="shadowBlurOuter1" stdDeviation="3"/>
            <feComposite in="shadowBlurOuter1" in2="SourceAlpha" operator="out" result="shadowBlurOuter1"/>
            <feColorMatrix in="shadowBlurOuter1" values="0 0 0 0 0 0 0 0 0 0 0 0 0 0 0 0 0 0 0.20533288 0"/>
        </filter>
        <path id="d" d="M0 190.121h284.961V.405H0z"/>
        <path id="f" d="M141.97 3.78v6.331H.43V.574h138.335l3.205 3.205zM.43.573h141.54v9.537H.43V.574z"/>
    </defs>
    <g fill="none" fill-rule="evenodd" transform="translate(0 2)">
        <mask id="c" fill="#fff">
            <use xlink:href="#a"/>
        </mask>
        <use fill="#000" filter="url(#b)" xlink:href="#a"/>
        <use fill="#4FC3F7" fill-opacity=".8" xlink:href="#a"/>
        <g mask="url(#c)" opacity=".4">
            <path fill="#E1F4F9" d="M1070.716 692.447h73.622V541.942h-73.622z"/>
            <path fill="#FFF" d="M1228.003 690.767h98.734v-188.47h-98.734z"/>
            <path fill="#E1F4F9" d="M1226.323 692.445h102.094v-191.83h-102.094v191.83zm3.36-3.36h95.373V503.979h-95.372v185.106z"/>
            <path fill="#E1F4F9" d="M1288.765 535.142h8.799v-16.994h-8.8zM1272.972 535.142h8.798v-16.994h-8.798zM1257.18 535.142h8.798v-16.994h-8.798zM1241.388 535.142h8.793v-16.994h-8.793zM1288.765 563.365h8.799V546.37h-8.8zM1272.972 563.365h8.798V546.37h-8.798zM1257.18 563.365h8.798V546.37h-8.798zM1241.388 563.365h8.793V546.37h-8.793zM1288.765 591.585h8.799v-16.992h-8.8zM1272.972 591.585h8.798v-16.992h-8.798zM1257.18 591.585h8.798v-16.992h-8.798zM1241.388 591.585h8.793v-16.992h-8.793zM1288.765 619.81h8.799v-16.994h-8.8zM1272.972 619.81h8.798v-16.994h-8.798zM1257.18 619.81h8.798v-16.994h-8.798zM1241.388 619.81h8.793v-16.994h-8.793zM1288.765 648.03h8.799v-16.995h-8.8zM1272.972 648.03h8.798v-16.995h-8.798zM1257.18 648.03h8.798v-16.995h-8.798zM1241.388 648.03h8.793v-16.995h-8.793zM1288.765 676.252h8.799v-16.994h-8.8zM1272.972 676.252h8.798v-16.994h-8.798z"/>
            <path fill="#000" d="M1257.18 676.252h8.798v-16.994h-8.798zM1241.388 676.252h8.793v-16.994h-8.793z"/>
            <path fill="#FFF" d="M1148.843 690.765h57.756v-146.49h-57.756z"/>
            <path fill="#E1F4F9" d="M1147.163 692.447h61.116V542.596h-61.116v149.85zm3.36-3.362h54.394V545.958h-54.394v143.127z"/>
            <path fill="#E1F4F9" d="M1193.995 569.564h5.267V556.29h-5.267zM1184.54 569.564h5.265V556.29h-5.265zM1175.088 569.564h5.261V556.29h-5.261zM1165.628 569.564h5.27V556.29h-5.27zM1156.175 569.564h5.267V556.29h-5.267zM1193.995 591.612h5.267v-13.275h-5.267zM1184.54 591.612h5.265v-13.275h-5.265zM1175.088 591.612h5.261v-13.275h-5.261zM1165.628 591.612h5.27v-13.275h-5.27zM1156.175 591.612h5.267v-13.275h-5.267zM1193.995 613.657h5.267v-13.273h-5.267zM1184.54 613.657h5.265v-13.273h-5.265zM1175.088 613.657h5.261v-13.273h-5.261zM1165.628 613.657h5.27v-13.273h-5.27zM1156.175 613.657h5.267v-13.273h-5.267zM1193.995 635.705h5.267V622.43h-5.267zM1184.54 635.705h5.265V622.43h-5.265zM1175.088 635.705h5.261V622.43h-5.261zM1165.628 635.705h5.27V622.43h-5.27zM1156.175 635.705h5.267V622.43h-5.267zM1193.995 657.748h5.267v-13.274h-5.267zM1184.54 657.748h5.265v-13.274h-5.265zM1175.088 657.748h5.261v-13.274h-5.261zM1165.628 657.748h5.27v-13.274h-5.27zM1156.175 657.748h5.267v-13.274h-5.267zM1193.995 679.795h5.267v-13.273h-5.267zM1184.54 679.795h5.265v-13.273h-5.265zM1175.088 679.795h5.261v-13.273h-5.261zM1165.628 679.795h5.27v-13.273h-5.27zM1156.175 679.795h5.267v-13.273h-5.267z"/>
            <path fill="#FFF" d="M1148.843 690.765h125.036V581.877h-125.036z"/>
            <path fill="#E1F4F9" d="M1147.161 692.445h128.398v-112.25H1147.16v112.25zm3.362-3.36h121.674V583.558h-121.674v105.527z"/>
            <path fill="#E1F4F9" d="M1245.556 613.794h11.063v-16.992h-11.063zM1225.693 613.794h11.066v-16.992h-11.066zM1205.828 613.794h11.066v-16.992h-11.066zM1185.966 613.794h11.066v-16.992h-11.066zM1166.101 613.794h11.066v-16.992H1166.1zM1245.556 640.025h11.063V623.03h-11.063zM1225.693 640.025h11.066V623.03h-11.066zM1205.828 640.025h11.066V623.03h-11.066zM1185.966 640.025h11.066V623.03h-11.066zM1166.101 640.025h11.066V623.03H1166.1zM1245.556 666.252h11.063V649.26h-11.063zM1225.693 666.252h11.066V649.26h-11.066zM1205.828 666.252h11.066V649.26h-11.066zM1185.966 666.252h11.066V649.26h-11.066zM1166.101 666.252h11.066V649.26H1166.1zM1279.019 718.094h63.104V501.22h-63.104z"/>
            <path fill="#FFF" d="M1285.63 520.13h30.176v-6.952h-30.176zM1285.63 530.441h13.719v-6.95h-13.719zM1285.63 540.753h13.719v-6.952h-13.719zM1297.294 602.62v-6.951H1335.511v6.95h-33.075zM1285.632 612.93h13.581v-6.947h-13.581zM1299.212 626.6v6.956h-13.581v-6.955h13.495zM1302.134 564.735h13.672v6.949H1285.63v-6.95h13.496zM1299.35 575.046v6.95h-13.719v-6.95h13.494zM1299.35 585.356v6.955h-13.719v-6.955h13.494zM1285.63 623.246h13.496v-6.956h-13.496zM1285.63 643.864h13.496v-6.947h-13.496zM1297.295 654.175h38.217v-6.948h-38.217zM1285.632 664.49h13.581v-6.954h-13.581zM1285.632 685.108h13.581v-6.947h-13.581zM1125.618 564.81h6.627v-10.704h-6.627zM1114.917 564.81h6.625v-10.704h-6.625zM1104.217 564.81h6.625v-10.704h-6.625zM1093.513 564.81h6.626v-10.704h-6.626zM1082.808 564.81h6.627v-10.704h-6.627zM1125.618 584.688h6.627v-10.703h-6.627zM1114.917 584.688h6.625v-10.703h-6.625zM1104.217 584.688h6.625v-10.703h-6.625zM1093.513 584.688h6.626v-10.703h-6.626zM1082.808 584.688h6.627v-10.703h-6.627zM1125.618 604.564h6.627v-10.703h-6.627zM1114.917 604.564h6.625v-10.703h-6.625zM1104.217 604.564h6.625v-10.703h-6.625zM1093.513 604.564h6.626v-10.703h-6.626zM1082.808 604.564h6.627v-10.703h-6.627zM1125.618 624.442h6.627v-10.703h-6.627zM1114.917 624.442h6.625v-10.703h-6.625zM1104.217 624.442h6.625v-10.703h-6.625zM1093.513 624.442h6.626v-10.703h-6.626zM1082.808 624.442h6.627v-10.703h-6.627zM1125.618 644.318h6.627v-10.703h-6.627zM1114.917 644.318h6.625v-10.703h-6.625zM1104.217 644.318h6.625v-10.703h-6.625zM1093.513 644.318h6.626v-10.703h-6.626zM1082.808 644.318h6.627v-10.703h-6.627zM1125.618 664.197h6.627v-10.705h-6.627zM1114.917 664.197h6.625v-10.705h-6.625zM1104.217 664.197h6.625v-10.705h-6.625zM1093.513 664.197h6.626v-10.705h-6.626zM1082.808 664.197h6.627v-10.705h-6.627zM1125.618 684.073h6.627V673.37h-6.627zM1114.917 684.073h6.625V673.37h-6.625zM1104.217 684.073h6.625V673.37h-6.625zM1093.513 684.073h6.626V673.37h-6.626zM1082.808 684.073h6.627V673.37h-6.627z"/>
            <path fill="#E1F4F9" d="M997.094 692.447h73.622v-90.305h-73.622z"/>
            <path fill="#FFF" d="M1051.997 684.073h6.627V673.37h-6.627zM1041.294 684.073h6.626V673.37h-6.626zM1030.59 684.073h6.627V673.37h-6.626zM1019.89 684.073h6.627V673.37h-6.626zM1009.19 684.073h6.626V673.37h-6.625zM1051.997 624.442h6.627v-10.703h-6.627zM1041.294 624.442h6.626v-10.703h-6.626zM1030.59 624.442h6.627v-10.703h-6.626zM1019.89 624.442h6.627v-10.703h-6.626zM1009.19 624.442h6.626v-10.703h-6.625zM1051.997 644.318h6.627v-10.703h-6.627zM1041.294 644.318h6.626v-10.703h-6.626zM1030.59 644.318h6.627v-10.703h-6.626zM1019.89 644.318h6.627v-10.703h-6.626zM1009.19 644.318h6.626v-10.703h-6.625zM1051.997 664.197h6.627v-10.705h-6.627zM1041.294 664.197h6.626v-10.705h-6.626zM1030.59 664.197h6.627v-10.705h-6.626zM1019.89 664.197h6.627v-10.705h-6.626zM1009.19 664.197h6.626v-10.705h-6.625z"/>
            <path fill="#E1F4F9" d="M496.544 692.447h63.105V475.57h-63.105z"/>
            <path fill="#FFF" d="M503.156 494.483h30.175v-6.952h-30.175zM539.667 494.483h13.369v-6.952h-13.369zM539.667 504.793h13.369v-6.95h-13.369zM519.96 504.793h7.553v-6.95h-7.553zM503.156 504.793h13.718v-6.95h-13.718zM503.156 515.106h13.718v-6.952h-13.718zM519.96 515.106h3.494v-6.952h-3.494zM525.07 515.106h3.494v-6.952h-3.494zM530.18 515.106h3.492v-6.952h-3.493zM539.667 515.106h13.369v-6.952h-13.369zM519.96 525.415h33.076v-6.95H519.96zM530.18 535.727h22.857v-6.952H530.18zM519.659 556.349v-6.95h7.854v6.95h-7.553zM533.671 566.663h-3.742v-6.956h23.108v6.956h-13.369zM514.82 576.972v-6.95h38.217v6.95H519.96zM519.58 587.282h6.684v-6.947h-6.684zM503.157 587.282h13.581v-6.947h-13.58zM516.738 600.953v6.955H503.156v-6.955h13.495zM526.344 597.598H519.659v-6.955h33.379v6.955h-13.37zM519.98 618.216v-6.947h33.057v6.947H529.93zM519.659 539.087h13.672v6.95H503.156v-6.95h13.496zM539.667 546.036h13.369v-6.949h-13.369zM539.667 556.349h13.369v-6.95h-13.369zM516.875 549.398v6.95h-13.719v-6.95h13.495zM516.875 559.708v6.955h-13.719v-6.955h13.495zM519.96 566.663h3.494v-6.956h-3.494zM525.07 566.663h3.494v-6.956h-3.494zM543.509 587.282h-13.58v-6.948H553.036v6.948h-6.684zM503.156 597.598h13.496v-6.955h-13.496zM526.265 600.953h.079v6.955h-6.764v-6.955h.08zM503.156 618.216h13.496v-6.947h-13.496zM543.509 607.908H529.929v-6.956H553.036v6.956h-6.684zM514.82 628.527h38.217v-6.947H514.82zM546.353 638.843h6.684v-6.954h-6.684zM529.93 638.843h13.58v-6.954h-13.58zM519.58 638.843h6.684v-6.954h-6.684zM503.157 638.843h13.581v-6.954h-13.58zM546.353 659.462h6.684v-6.947h-6.684zM529.93 659.462h13.58v-6.947h-13.58zM519.58 659.46h6.684v-6.947h-6.684zM503.157 659.46h13.581v-6.947h-13.58zM519.98 649.152h33.057v-6.954H519.98zM519.98 669.772h33.057v-6.948H519.98z"/>
            <path fill="#E1F4F9" d="M559.649 692.447h48.233v-97.554h-48.233z"/>
            <path fill="#FFF" d="M584.709 611.52h3.566v-7.053h-3.566zM577.98 611.52h3.567v-7.053h-3.567zM571.252 611.52h3.567v-7.053h-3.567zM564.528 611.52h3.567v-7.053h-3.567zM584.709 631.534h3.566v-7.053h-3.566zM577.98 631.534h3.567v-7.053h-3.567zM571.252 631.534h3.567v-7.053h-3.567zM564.528 631.534h3.567v-7.053h-3.567zM584.709 651.549h3.566v-7.053h-3.566zM577.98 651.549h3.567v-7.053h-3.567zM571.252 651.549h3.567v-7.053h-3.567zM564.528 651.549h3.567v-7.053h-3.567z"/>
            <path fill="#E1F4F9" d="M292.763 692.447h128.403V535.144H292.763z"/>
            <path fill="#FFF" d="M309.592 563.904h62.016v-14.321h-62.016zM309.592 589.875h62.016v-14.322h-62.016zM309.592 615.846h62.016v-14.322h-62.016zM309.592 641.817h62.016v-14.322h-62.016zM309.592 667.787h62.016v-14.322h-62.016z"/>
            <path fill="#FFF" d="M367.682 690.767H492.72v-188.47H367.682z"/>
            <path fill="#E1F4F9" d="M366.002 692.445h128.4v-191.83h-128.4v191.83zm3.362-3.36h121.675V503.979H369.364v185.106z"/>
            <path fill="#E1F4F9" d="M384.94 535.142h11.064v-16.994H384.94zM404.803 535.142h11.068v-16.994h-11.068zM424.668 535.142h11.064v-16.994h-11.064zM444.53 535.142h11.066v-16.994H444.53zM464.397 535.142h11.062v-16.994h-11.062zM384.94 563.365h11.064V546.37H384.94zM404.803 563.365h11.068V546.37h-11.068zM424.668 563.365h11.064V546.37h-11.064zM444.53 563.365h11.066V546.37H444.53zM464.397 563.365h11.062V546.37h-11.062zM384.94 591.585h11.064v-16.992H384.94zM404.803 591.585h11.068v-16.992h-11.068zM424.668 591.585h11.064v-16.992h-11.064zM444.53 591.585h11.066v-16.992H444.53zM464.397 591.585h11.062v-16.992h-11.062zM384.94 619.81h11.064v-16.994H384.94zM404.803 619.81h11.068v-16.994h-11.068zM424.668 619.81h11.064v-16.994h-11.064zM444.53 619.81h11.066v-16.994H444.53zM464.397 619.81h11.062v-16.994h-11.062zM384.94 648.03h11.064v-16.995H384.94zM404.803 648.03h11.068v-16.995h-11.068zM424.668 648.03h11.064v-16.995h-11.064zM444.53 648.03h11.066v-16.995H444.53zM464.397 648.03h11.062v-16.995h-11.062zM384.94 676.252h11.064v-16.994H384.94zM404.803 676.252h11.068v-16.994h-11.068zM424.668 676.252h11.064v-16.994h-11.064zM444.53 676.252h11.066v-16.994H444.53zM464.397 676.252h11.062v-16.994h-11.062z"/>
            <path fill="#FFF" d="M328.103 690.765H453.14V581.877H328.103z"/>
            <path fill="#E1F4F9" d="M326.422 692.445h128.397v-112.25H326.422v112.25zm3.363-3.36h121.672V583.558H329.785v105.527z"/>
            <path fill="#E1F4F9" d="M345.361 613.794h11.064v-16.992h-11.064zM365.225 613.794h11.064v-16.992h-11.064zM385.09 613.794h11.06v-16.992h-11.06zM404.953 613.794h11.064v-16.992h-11.064zM424.818 613.794h11.061v-16.992h-11.061zM345.361 640.025h11.064V623.03h-11.064zM365.225 640.025h11.064V623.03h-11.064zM385.09 640.025h11.06V623.03h-11.06zM404.953 640.025h11.064V623.03h-11.064zM424.818 640.025h11.061V623.03h-11.061zM345.361 666.252h11.064V649.26h-11.064zM365.225 666.252h11.064V649.26h-11.064zM385.09 666.252h11.06V649.26h-11.06zM404.953 666.252h11.064V649.26h-11.064zM424.818 666.252h11.061V649.26h-11.061z"/>
            <path fill="#FFF" d="M691.562 690.767h98.734v-188.47h-98.734z"/>
            <path fill="#E1F4F9" d="M689.882 692.445h102.094v-191.83H689.882v191.83zm3.36-3.36h95.372V503.979h-95.372v185.106z"/>
            <path fill="#E1F4F9" d="M768.12 535.142h8.795v-16.994h-8.794zM752.324 535.142h8.799v-16.994h-8.8zM736.531 535.142h8.798v-16.994h-8.798zM720.739 535.142h8.798v-16.994h-8.798zM704.946 535.142h8.793v-16.994h-8.793zM768.12 563.365h8.795V546.37h-8.794zM752.324 563.365h8.799V546.37h-8.8zM736.531 563.365h8.798V546.37h-8.798zM720.739 563.365h8.798V546.37h-8.798zM704.946 563.365h8.793V546.37h-8.793zM768.12 591.585h8.795v-16.992h-8.794zM752.324 591.585h8.799v-16.992h-8.8zM736.531 591.585h8.798v-16.992h-8.798zM720.739 591.585h8.798v-16.992h-8.798zM704.946 591.585h8.793v-16.992h-8.793zM768.12 619.81h8.795v-16.994h-8.794zM752.324 619.81h8.799v-16.994h-8.8zM736.531 619.81h8.798v-16.994h-8.798zM720.739 619.81h8.798v-16.994h-8.798zM704.946 619.81h8.793v-16.994h-8.793zM768.12 648.03h8.795v-16.995h-8.794zM752.324 648.03h8.799v-16.995h-8.8zM736.531 648.03h8.798v-16.995h-8.798zM720.739 648.03h8.798v-16.995h-8.798zM704.946 648.03h8.793v-16.995h-8.793zM768.12 676.252h8.795v-16.994h-8.794zM752.324 676.252h8.799v-16.994h-8.8zM736.531 676.252h8.798v-16.994h-8.798z"/>
            <path fill="#000" d="M720.739 676.252h8.798v-16.994h-8.798zM704.946 676.252h8.793v-16.994h-8.793z"/>
            <path fill="#FFF" d="M612.402 690.765h57.756v-146.49h-57.756z"/>
            <path fill="#E1F4F9" d="M610.722 692.447h61.116V542.596h-61.116v149.85zm3.36-3.362h54.394V545.958h-54.394v143.127z"/>
            <path fill="#E1F4F9" d="M657.554 569.564h5.267V556.29h-5.267zM648.099 569.564h5.265V556.29H648.1zM638.647 569.564h5.26V556.29h-5.26zM629.187 569.564h5.27V556.29h-5.27zM619.734 569.564H625V556.29h-5.267zM657.554 591.612h5.267v-13.275h-5.267zM648.099 591.612h5.265v-13.275H648.1zM638.647 591.612h5.26v-13.275h-5.26zM629.187 591.612h5.27v-13.275h-5.27zM619.734 591.612H625v-13.275h-5.267zM657.554 613.657h5.267v-13.273h-5.267zM648.099 613.657h5.265v-13.273H648.1zM638.647 613.657h5.26v-13.273h-5.26zM629.187 613.657h5.27v-13.273h-5.27zM619.734 613.657H625v-13.273h-5.267zM657.554 635.705h5.267V622.43h-5.267zM648.099 635.705h5.265V622.43H648.1zM638.647 635.705h5.26V622.43h-5.26zM629.187 635.705h5.27V622.43h-5.27zM619.734 635.705H625V622.43h-5.267zM657.554 657.748h5.267v-13.274h-5.267zM648.099 657.748h5.265v-13.274H648.1zM638.647 657.748h5.26v-13.274h-5.26zM629.187 657.748h5.27v-13.274h-5.27zM619.734 657.748H625v-13.274h-5.267zM657.554 679.795h5.267v-13.273h-5.267zM648.099 679.795h5.265v-13.273H648.1zM638.647 679.795h5.26v-13.273h-5.26zM629.187 679.795h5.27v-13.273h-5.27zM619.734 679.795H625v-13.273h-5.267z"/>
            <path fill="#FFF" d="M612.402 690.765h125.035V581.877H612.402z"/>
            <path fill="#E1F4F9" d="M610.72 692.445h128.398v-112.25H610.72v112.25zm3.362-3.36h121.674V583.558H614.082v105.527z"/>
            <path fill="#E1F4F9" d="M709.115 613.794h11.063v-16.992h-11.063zM689.252 613.794h11.066v-16.992h-11.066zM669.387 613.794h11.066v-16.992h-11.066zM649.525 613.794h11.066v-16.992h-11.066zM629.66 613.794h11.066v-16.992H629.66zM709.115 640.025h11.063V623.03h-11.063zM689.252 640.025h11.066V623.03h-11.066zM669.387 640.025h11.066V623.03h-11.066zM649.525 640.025h11.066V623.03h-11.066zM629.66 640.025h11.066V623.03H629.66zM709.115 666.252h11.063V649.26h-11.063zM689.252 666.252h11.066V649.26h-11.066zM669.387 666.252h11.066V649.26h-11.066zM649.525 666.252h11.066V649.26h-11.066zM629.66 666.252h11.066V649.26H629.66zM833.543 520.304v51.876h14.112v120.266h-49.119V537.115z"/>
            <path fill="#FFF" d="M849.336 690.765V522.3l143.45 24.715v143.751z"/>
            <path fill="#E1F4F9" d="M847.655 520.304v172.142h146.81V545.597l-146.81-25.293zm3.362 3.99l140.089 24.135v140.655H851.017v-164.79z"/>
            <path fill="#E1F4F9" d="M953.987 579.002h19.012V559.99h-19.012zM925.702 579.002h19.008V559.99h-19.008zM897.418 579.002h19.003V559.99h-19.003zM869.127 579.002h19.008V559.99h-19.008zM953.987 609.056h19.012v-19.01h-19.012zM925.702 609.056h19.008v-19.01h-19.008zM897.418 609.056h19.003v-19.01h-19.003zM869.127 609.056h19.008v-19.01h-19.008zM953.987 639.112h19.012v-19.01h-19.012zM925.702 639.112h19.008v-19.01h-19.008zM897.418 639.112h19.003v-19.01h-19.003zM869.127 639.112h19.008v-19.01h-19.008zM953.987 669.166h19.012v-19.009h-19.012zM925.702 669.166h19.008v-19.009h-19.008zM897.418 669.166h19.003v-19.009h-19.003zM869.127 669.166h19.008v-19.009h-19.008zM165.816 557.961H282.93v14.57h-5.045v119.916H170.859V572.53h-5.043z"/>
            <path fill="#FFF" d="M241.913 598.241h19.267v-19.266h-19.267zM214.739 598.241h19.266v-19.266h-19.266zM187.562 598.241h19.266v-19.266h-19.266zM241.913 626.989h19.267v-19.266h-19.267zM214.739 626.989h19.266v-19.266h-19.266zM187.562 626.989h19.266v-19.266h-19.266zM241.913 655.735h19.267v-19.266h-19.267zM214.739 655.735h19.266v-19.266h-19.266zM187.562 655.735h19.266v-19.266h-19.266zM241.913 692.447h19.267v-27.232h-19.267zM214.739 692.447h19.266v-27.232h-19.266zM187.562 692.447h19.266v-27.232h-19.266z"/>
            <path fill="#E1F4F9" d="M-61.851 582.938h99.183v-44.164H24.348l71.255-40.753 71.262 40.753h-12.984v153.671h-210.69V598.6h-5.042z"/>
            <path fill="#FFF" d="M126.836 569.295h15.538v-23.713h-15.538zM100.63 569.295h15.54v-23.713h-15.54zM74.426 569.295h15.536v-23.713H74.426zM48.219 569.295h15.535v-23.713H48.22zM126.836 602.158h15.538v-23.713h-15.538zM100.63 602.158h15.54v-23.713h-15.54zM74.426 602.158h15.536v-23.713H74.426zM48.219 602.158h15.535v-23.713H48.22zM126.836 635.02h15.538v-23.712h-15.538zM100.63 635.02h15.54v-23.712h-15.54zM74.426 635.02h15.536v-23.712H74.426zM48.219 635.02h15.535v-23.712H48.22zM9.14 635.02h15.535v-23.712H9.14zM83.654 691.99h25.87v-40.547h-25.87z"/>
            <path fill="#E1F4F9" d="M-95.626 718.162h1445.187v-25.715H-95.626z"/>
        </g>
        <g mask="url(#c)">
            <path fill="#F5D8E5" d="M1159.615 703.038h295.303v-136.16h-295.303z"/>
            <path fill="#000" d="M1444.765 567.59h-284.774v30.925c.154.004.308.006.464.006 5.815 0 10.53-2.75 10.53-6.142 0 3.391 4.714 6.142 10.53 6.142 5.815 0 10.53-2.75 10.53-6.142 0 3.391 4.714 6.142 10.53 6.142 5.815 0 10.53-2.75 10.53-6.142 0 3.391 4.715 6.142 10.53 6.142 5.815 0 10.53-2.75 10.53-6.142 0 3.391 4.714 6.142 10.53 6.142 5.815 0 10.53-2.75 10.53-6.142 0 3.391 4.713 6.142 10.53 6.142 5.815 0 10.53-2.75 10.53-6.142 0 3.391 4.715 6.142 10.53 6.142 5.815 0 10.53-2.75 10.53-6.142 0 3.391 4.715 6.142 10.53 6.142 5.815 0 10.53-2.75 10.53-6.142 0 3.391 4.715 6.142 10.53 6.142 5.815 0 10.53-2.75 10.53-6.142 0 3.391 4.714 6.142 10.53 6.142 5.816 0 10.53-2.75 10.53-6.142 0 3.391 4.715 6.142 10.53 6.142 5.815 0 10.53-2.75 10.53-6.142 0 3.391 4.714 6.142 10.53 6.142 5.817 0 10.53-2.75 10.53-6.142 0 3.391 4.714 6.142 10.529 6.142 5.816 0 10.53-2.75 10.53-6.142 0 3.391 4.714 6.142 10.53 6.142 5.818 0 10.531-2.75 10.531-6.142 0 3.391 4.715 6.142 10.529 6.142v-30.93h-10.529z"/>
            <path fill="#D64E71" d="M1149.924 541.251v42.497c0 5.814 4.715 10.53 10.53 10.53 5.816 0 10.53-4.716 10.53-10.53V541.25h-21.06z"/>
            <path fill="#FDE5D7" d="M1170.985 541.251v42.497c0 5.814 4.714 10.53 10.53 10.53 5.815 0 10.53-4.716 10.53-10.53V541.25h-21.06z"/>
            <path fill="#D64E71" d="M1192.045 541.251v42.497c0 5.814 4.714 10.53 10.53 10.53 5.815 0 10.53-4.716 10.53-10.53V541.25h-21.06z"/>
            <path fill="#FDE5D7" d="M1213.105 541.251v42.497c0 5.814 4.715 10.53 10.53 10.53 5.815 0 10.53-4.716 10.53-10.53V541.25h-21.06z"/>
            <path fill="#D64E71" d="M1234.164 541.251v42.497c0 5.814 4.716 10.53 10.531 10.53s10.53-4.716 10.53-10.53V541.25h-21.06z"/>
            <path fill="#FDE5D7" d="M1255.225 541.251v42.497c0 5.814 4.713 10.53 10.53 10.53 5.815 0 10.53-4.716 10.53-10.53V541.25h-21.06z"/>
            <path fill="#D64E71" d="M1276.284 541.251v42.497c0 5.814 4.716 10.53 10.531 10.53s10.53-4.716 10.53-10.53V541.25h-21.06z"/>
            <path fill="#FDE5D7" d="M1297.345 541.251v42.497c0 5.814 4.715 10.53 10.53 10.53 5.815 0 10.53-4.716 10.53-10.53V541.25h-21.06z"/>
            <path fill="#000" d="M1244.298 551.417V572.407h128.994v-20.99z"/>
            <path fill="#D3D3D5" d="M1243.295 571.404h128.992v-20.99h-128.992z"/>
            <path fill="#F3F2F2" d="M1246.29 569.181h123.002v-16.547h-123.001z"/>
            <path fill="#D64E71" d="M1300.495 559.746c.096-.095.55-.535.7-.535.138 0 .207.096.138.315l.027.028c1.333-1.154 2.199-2.39 2.199-2.844 0-.233-.151-.33-.371-.275-.247.069-1.814.124-4.891 3.724-.962 1.126-1.662 2.65-1.662 3.695 0 .975.467 1.553 1.456 1.553 1.731 0 4.754-2.254 6.059-3.408.04.7-.18.894-.701 1.388-2.679 2.583-4.96 3.407-6.25 3.407-1.526 0-2.625-.948-2.625-2.527 0-2.02 1.69-4.19 3.105-5.524 1.167-1.112 4.053-3.31 5.687-3.31.825 0 1.36.44 1.402 1.304.096 1.855-3.448 5.372-5.18 5.633-.398.055-.769-.22-.769-.66 0-.411.371-.823.66-1.07l1.016-.894zM1257.083 561.161l1.565-5.929h-3.424l1.564 5.929v4.174h-.65v.287h1.598v-.287h-.653z"/>
            <path fill="#D66994" d="M1280.609 562.075c.233.497-.136 1.133-.819 1.417a1.704 1.704 0 0 1-.868.12c.363-.514.586-1.197.586-1.949 0-.035-.003-.07-.005-.104.493-.034.937.153 1.106.516m-1.873 1.773c.353.063.763.023 1.155-.141.85-.353 1.304-1.14 1.017-1.756-.217-.46-.788-.697-1.418-.638a2.783 2.783 0 0 0-.029-.233h-7.68a3.88 3.88 0 0 0-.046.583c0 1.597 1 2.893 2.232 2.893h-2.92v.294h9.214v-.294h-2.987c.559 0 1.07-.269 1.462-.708"/>
            <path fill="#F4A5C5" d="M1170.985 702.773h52.65V599.524h-52.65z"/>
            <path fill="#C6DAF0" d="M1173.588 649.92h47.889V602.03h-47.889zM1173.588 700.567h47.889V652.68h-47.889z"/>
            <path fill="#F4A5C5" d="M1228.435 671.404h213.618v-71.707h-213.618z"/>
            <path fill="#C6DAF0" d="M1230.97 668.365h206.914v-65.69H1230.97z"/>
            <path fill="#B3C0D2" d="M1249.32 646.68c-1.474.22-2.596 1.28-2.596 2.555v19.13h1.537V648.94c0-.906.413-1.718 1.06-2.26M1253.09 646.68a2.942 2.942 0 0 1 1.06 2.26v19.425h1.537v-19.13c0-1.275-1.123-2.335-2.597-2.554M1289.074 650.685c-.406-.032-.773.136-.912.458-.192.443.112 1.008.676 1.261.243.11.493.139.716.106-.299-.457-.484-1.065-.484-1.733 0-.033.003-.062.004-.092"/>
            <path fill="#B3C0D2" d="M1318.329 644.624l-.017-.084c-.01-.05-.019-.1-.026-.154a3.281 3.281 0 0 1-.033-.262l-.007-.068a6.629 6.629 0 0 1-.022-.515v-.063l.001-.054c.91-.307 2.097-.582 2.445-.314.789.607.09 1.26-.808 2.55-.247.354-.546.707-.828 1.064a12.118 12.118 0 0 0-.576-1.686 2.393 2.393 0 0 1-.072-.197c-.007-.022-.012-.046-.02-.069a2.601 2.601 0 0 1-.037-.148zm-29.49 7.78c-.565-.253-.868-.819-.677-1.26.14-.324.506-.49.912-.46-.001.03-.004.06-.004.092 0 .669.185 1.277.484 1.735a1.296 1.296 0 0 1-.716-.107zm40.477-1.628c0-.031-.002-.062-.003-.091.406-.031.772.135.912.459.192.441-.112 1.007-.676 1.26-.242.11-.493.139-.716.107.3-.458.483-1.066.483-1.735zm10.238 16.434l1.256-.742v-12.854h-10.872v-.262h-2.464c.46 0 .882-.24 1.205-.63.293.056.63.02.953-.125.7-.314 1.076-1.016.838-1.564-.178-.41-.65-.62-1.17-.568a3.083 3.083 0 0 0-.022-.208H1322.94a3.597 3.597 0 0 0-.038.52c0 1.422.825 2.575 1.843 2.575h-2.411v.262h-3.955c1.234-1.825 1.212-4.08.889-5.852.266-.602.675-1.187 1.06-1.741.84-1.206 1.633-2.346.548-3.18-.507-.388-1.84-.04-2.643.224l.001-.029.005-.088.009-.15.005-.089.011-.123c.024-.29.054-.532.075-.681h.019a.23.23 0 0 0 0-.458h-.093a.868.868 0 0 0-.163-.118.75.75 0 0 0-.166-.088 1.41 1.41 0 0 0-.056-.026c-.042-.017-.087-.033-.133-.05a3.056 3.056 0 0 0-.423-.114l-.005-.001a4.96 4.96 0 0 0-.458-.07h-.001c-.047-.005-.092-.011-.14-.014-.023-.127-.202-.228-.425-.228-.22 0-.394.097-.424.218-.772.047-1.403.237-1.668.491h-.093a.228.228 0 0 0-.227.229c0 .02.006.04.011.059h-1.246.016a1.064 1.064 0 0 1 .184.018c.572.083 2.12.558 1.07 3.285-.415 1.08-2.034 5.449.08 8.576h-2.479l-1.87-3.82v-3.086H1302.741v6.906h-6.688v-.262h-2.41c1.017 0 1.842-1.153 1.842-2.576 0-.178-.013-.351-.038-.52h-6.338c-.01.07-.017.139-.023.209-.52-.052-.993.158-1.17.568-.237.548.14 1.25.839 1.564.324.145.66.181.954.125.322.39.743.63 1.204.63h-2.463v.262h-13.832V668.365h65.065l-.13-1.155z"/>
            <path fill="#B3C0D2" d="M1292.635 649.02c1.122-2.064-.418-2.176-.162-3.543-.09.567-.303 1.296.009 1.567.734.638.153 1.976.153 1.976M1292.221 649.45a.7.7 0 0 0 .111.226 3.93 3.93 0 0 1-.11-.225"/>
            <path fill="#B3C0D2" d="M1292.482 648.711c.23-.204.072-.756.006-1.183.18.978-.863.635-.267 1.922-.054-.185-.052-.463.26-.739M1246.724 649.235c0-1.275 1.122-2.335 2.596-2.554a2.941 2.941 0 0 0-1.059 2.26v19.424h5.889v-19.424a2.94 2.94 0 0 0-1.06-2.26c1.474.219 2.597 1.279 2.597 2.554v19.13h1.262v-19.13c0-2.005-1.981-3.635-4.416-3.635h-2.655c-2.435 0-4.415 1.63-4.415 3.635v19.13h1.26v-19.13z"/>
            <path fill="#FFF" d="M1437.885 602.675h-126.807l-80.108 27.292v38.398h15.455l191.46-65.23zM1276.977 668.365l160.907-54.82v-5.458l-176.928 60.278z"/>
            <path fill="#E0E0E0" d="M1128.819 705.711h453.31v-10.587h-453.31z"/>
            <path fill="gray" d="M1310.64 702.831h-1.177c-1.808-2.672-5.53-4.65-10-5.177v-6.304c0-.757-.206-1.452-.552-1.994.306-.002.552-.325.552-.72a.812.812 0 0 0-.217-.57.81.81 0 0 0 .217-.569c0-.327-.168-.6-.398-.688a3.808 3.808 0 0 0 .398-1.723v-18.952c0-1.73-1.08-3.133-2.41-3.133-1.333 0-2.412 1.403-2.412 3.133v18.952c0 .637.147 1.228.398 1.723-.23.088-.398.36-.398.688 0 .232.086.438.217.569a.807.807 0 0 0-.217.57c0 .395.247.718.551.72-.343.542-.551 1.237-.551 1.994v6.312c-4.44.539-8.134 2.512-9.934 5.17h-1.242a.633.633 0 1 0 0 1.264H1287.007a.633.633 0 0 0 .004-1.265c2.05-2.092 5.795-3.5 10.074-3.5s8.022 1.408 10.075 3.5h-.063a.632.632 0 0 0 0 1.265h3.543a.633.633 0 0 0 0-1.265"/>
            <path fill="#FDD3A2" d="M1315.573 676.177l-51.617-5.871V654.72h66.192v12.853z"/>
            <g fill="#F17C95">
                <path d="M1263.956 654.72v.762l.466-.762zM1264.422 654.72l-.466.762v4.663l3.31-5.425zM1272.958 654.72h-2.845l-6.157 10.087v2.472l.975.594zM1269.077 670.404l9.573-15.683h-2.846l-8.8 14.418zM1281.495 654.72l-10.033 16.44 2.661.302 10.218-16.742zM1287.186 654.72l-10.402 17.045 2.66.302 10.588-17.347zM1292.879 654.72l-10.774 17.65 2.663.303 10.957-17.953zM1298.57 654.72l-11.142 18.256 2.661.302 11.327-18.558zM1304.262 654.72l-11.512 18.86 2.66.304 11.697-19.164zM1309.953 654.72l-11.88 19.465 2.66.304 12.066-19.769z"/>
            </g>
            <g fill="#D31C5B">
                <path d="M1263.956 670.306l1.798.204-1.798-1.097zM1295.833 654.72l27.576 16.83 2.37-1.4-25.284-15.43zM1286.507 654.72l32.163 19.63 2.37-1.4-29.87-18.23zM1277.183 654.72l34.415 21.004 3.975.453.726-.429-34.454-21.028zM1267.857 654.72l32.279 19.7 5.732.652-33.348-20.352zM1263.956 658.03l24.72 15.088 5.73.651-30.45-18.585zM1263.956 663.721l13.258 8.092 5.732.653-18.99-11.59z"/>
                <path d="M1263.956 669.413l1.798 1.097 5.73.653-7.528-4.596z"/>
            </g>
            <path fill="#D31C5B" d="M1263.956 665.733v4.573l51.617 5.87 14.575-8.602V663l-14.575 8.605z"/>
            <path fill="#D31C5B" d="M1263.956 663.717v1l51.617 5.87 14.575-8.603v-.998l-14.575 8.603z"/>
            <path fill="gray" d="M1300.857 654.72h-2.35v-4.801z"/>
            <path fill="#D64E71" d="M1292.08 654.72h6.907v-6.908h-6.907z"/>
            <path fill="#F3F2F2" d="M1292.555 654.246h5.958v-5.959h-5.958z"/>
            <path fill="#D64E71" d="M1294.953 651.477v1.101h.604c.238 0 .418-.045.54-.136.12-.092.18-.236.18-.432 0-.181-.06-.315-.184-.402-.124-.088-.312-.131-.565-.131h-.575zm0-.462h.547c.238 0 .412-.037.52-.113.11-.075.165-.203.165-.384 0-.163-.06-.282-.177-.354-.118-.074-.306-.11-.563-.11h-.492v.961zm-.569-1.437h1.033c.479 0 .825.07 1.038.21.214.14.32.36.32.661a.799.799 0 0 1-.157.507.701.701 0 0 1-.452.254v.024c.244.046.424.137.539.273.115.135.172.319.172.55 0 .313-.109.558-.327.734-.218.177-.52.266-.91.266h-1.256v-3.479z"/>
            <path fill="#1A1A1A" d="M1292.08 647.812h6.906v6.909z"/>
            <path fill="gray" d="M1253.029 702.553v-23.034a2.51 2.51 0 0 0-2.507-2.507h-12.994a2.51 2.51 0 0 0-2.507 2.507v23.034h-1.003v-23.034a3.514 3.514 0 0 1 3.51-3.51h12.994a3.515 3.515 0 0 1 3.51 3.51v23.034h-1.003z"/>
            <path fill="gray" d="M1257.96 702.553v-23.034a2.51 2.51 0 0 0-2.507-2.507h-12.994a2.51 2.51 0 0 0-2.507 2.507v23.034h-1.004v-23.034a3.514 3.514 0 0 1 3.511-3.51h12.994a3.514 3.514 0 0 1 3.51 3.51v23.034h-1.003zM1245.024 673.637V650.34c0-1.433-1.414-2.596-3.154-2.596h-2.654c-1.739 0-3.154 1.163-3.154 2.596v23.297h-1.262V650.34c0-2.006 1.981-3.636 4.416-3.636h2.654c2.435 0 4.416 1.63 4.416 3.636v23.297h-1.262z"/>
            <path fill="gray" d="M1254.033 696.87h3.927v-.935h-3.927zM1235.021 696.87h3.927v-.935h-3.927zM1242.484 673.303v-23.258c0-1.07-.87-1.942-1.94-1.942-1.07 0-1.943.872-1.943 1.942v23.258h-1.003v-23.258a2.948 2.948 0 0 1 2.945-2.944 2.947 2.947 0 0 1 2.945 2.944v23.258h-1.004z"/>
            <path fill="#D64E71" d="M1238.1 673.303v-23.258a2.442 2.442 0 1 1 4.886 0v23.258h-4.886z"/>
            <path fill="#BC425B" d="M1233.61 674.457c0 .858.695 1.552 1.551 1.552h22.25a1.552 1.552 0 1 0 0-3.104h-22.25c-.856 0-1.551.695-1.551 1.552"/>
        </g>
        <g mask="url(#c)">
            <g transform="translate(857.095 515.559)">
                <path fill="#388E3C" d="M234.576 136.686c11.991 0 21.713 9.72 21.713 21.713v28.446h-43.426v-28.446c0-11.992 9.72-21.713 21.713-21.713z"/>
                <path fill="#2E7D32" d="M276.139 168.95c0 8.375-6.79 15.164-15.165 15.164s-15.164-6.79-15.164-15.165c0-8.374 6.79-15.164 15.164-15.164 8.375 0 15.165 6.79 15.165 15.164"/>
                <path fill="#1B5E20" d="M27.271 174.027c0 5.571-4.516 10.087-10.087 10.087-5.57 0-10.087-4.516-10.087-10.087 0-5.57 4.516-10.087 10.087-10.087 5.57 0 10.087 4.516 10.087 10.087"/>
                <path fill="#2E7D32" d="M60.391 163.273c0 11.51-9.33 20.84-20.84 20.84-11.511 0-20.842-9.33-20.842-20.84s9.33-20.841 20.841-20.841c11.51 0 20.841 9.33 20.841 20.84"/>
                <mask id="e" fill="#fff">
                    <use xlink:href="#d"/>
                </mask>
                <path fill="#E0E0E0" d="M0 190.121h284.961v-11.589H0z" mask="url(#e)"/>
                <path fill="#D32E2E" d="M47.753 178.532h189.455V59.614H47.753z" mask="url(#e)"/>
                <path fill="#F5F5F5" d="M237.743 171.338h-18.067v7.194h20.144v-5.117c0-1.147-.93-2.077-2.077-2.077" mask="url(#e)"/>
                <path fill="#3E2723" d="M166.448 178.532h53.228V92.525h-53.228z" mask="url(#e)"/>
                <path fill="#80DEEA" d="M169.61 175.37h46.904V95.686H169.61z" mask="url(#e)"/>
                <path fill="#B2DFDB" d="M216.513 115.404v4.888l-24.605-24.606h4.887zM216.513 163.442v4.883l-46.904-46.904v-4.883zM216.513 122.89v9.775l-36.979-36.978h9.775z" mask="url(#e)"/>
                <path fill="#212121" d="M169.61 97.378h46.904v-1.691H169.61z" mask="url(#e)"/>
                <path fill="#E0E0E0" d="M177.31 129.946a2.022 2.022 0 1 1-4.044 0 2.022 2.022 0 0 1 4.044 0M177.31 144.43a2.022 2.022 0 1 1-4.043 0 2.022 2.022 0 0 1 4.043 0" mask="url(#e)"/>
                <path fill="#F5F5F5" d="M175.289 128.366c-.64 0-1.158.518-1.158 1.158v15.329a1.158 1.158 0 0 0 2.315 0v-15.33c0-.639-.518-1.157-1.157-1.157M166.448 171.338H47.218c-1.147 0-2.077.93-2.077 2.077v5.117h121.307v-7.194z" mask="url(#e)"/>
                <path fill="#BDBDBD" d="M47.515 55.577h189.93V52.09H47.516z" mask="url(#e)"/>
                <path fill="#C62828" d="M49.846 52.09h185.269v-3.487H49.846z" mask="url(#e)"/>
                <path fill="#212121" d="M49.846 50.346h185.269v-1.744H49.846z" mask="url(#e)"/>
                <path fill="#B71C1C" d="M202.995 89.592h10.628V85.46h-10.628zM216.414 89.592h10.628V85.46h-10.628zM209.748 82.712h10.628v-4.133h-10.628zM221.728 147.584h10.628v-4.133h-10.628zM228.481 140.703h10.628v-4.133h-10.628zM65.294 89.592h10.628V85.46H65.294zM78.713 89.592h10.628V85.46H78.713zM72.047 82.712h10.628v-4.133H72.047zM85.466 82.712h10.628v-4.133H85.466zM97.533 168.073h10.628v-4.133H97.533zM137.166 161.193h10.629v-4.133h-10.629zM84.114 168.073h10.628v-4.133H84.114zM90.78 161.193h10.628v-4.133H90.78zM77.361 161.193H87.99v-4.133H77.361zM45.975 125.381h7.681v-4.133h-7.68zM50.856 118.5h7.681v-4.132h-7.681z" mask="url(#e)"/>
                <path fill="#F5F5F5" d="M219.676 104.673a.793.793 0 0 0-.793.792v6.05a.793.793 0 1 0 1.586 0v-6.05a.793.793 0 0 0-.793-.792M219.676 158.749a.793.793 0 0 0-.793.793v6.05a.793.793 0 1 0 1.586 0v-6.05a.793.793 0 0 0-.793-.793" mask="url(#e)"/>
                <path fill="#B71C1C" d="M134.77 89.592h5.314V85.46h-5.314zM140.836 82.712h5.314v-4.133h-5.314zM126.615 82.712h10.628v-4.133h-10.628zM55.077 160.904h5.314v-4.133h-5.314zM46.04 154.024h10.628v-4.133H46.04zM223.425 120.396h7.672v-4.134h-7.672zM152.848 107.45h5.366v-4.134h-5.366zM155.531 113.405h5.366v-4.133h-5.366z" mask="url(#e)"/>
                <path fill="#E0E0E0" d="M64.913 70.563c0 6.12 4.961 11.082 11.081 11.082 6.12 0 11.08-4.962 11.08-11.082v-6.911H64.914v6.911zM109.237 70.563c0 6.12 4.961 11.082 11.082 11.082 6.12 0 11.08-4.962 11.08-11.082v-6.911h-22.162v6.911zM153.561 70.563c0 6.12 4.962 11.082 11.082 11.082 6.12 0 11.08-4.962 11.08-11.082v-6.911h-22.162v6.911zM197.886 63.652v6.911c0 6.12 4.961 11.082 11.081 11.082 6.12 0 11.081-4.962 11.081-11.082v-6.911h-22.162z" mask="url(#e)"/>
                <path fill="#EEE" d="M64.913 63.652h22.162l2.647-8.076H68.62zM109.237 63.652H131.4l.53-8.076h-21.103zM153.032 55.577l.53 8.075h22.162l-1.588-8.075zM216.343 55.577h-21.104l2.647 8.075h22.162z" mask="url(#e)"/>
                <path fill="#00ACC1" d="M42.75 70.563c0 6.12 4.962 11.082 11.082 11.082 6.12 0 11.08-4.962 11.08-11.082v-6.911H42.752v6.911zM87.075 70.563c0 6.12 4.961 11.082 11.081 11.082 6.12 0 11.081-4.962 11.081-11.082v-6.911H87.075v6.911zM131.4 70.563c0 6.12 4.96 11.082 11.08 11.082s11.082-4.962 11.082-11.082v-6.911h-22.163v6.911zM175.724 70.563c0 6.12 4.96 11.082 11.08 11.082 6.121 0 11.082-4.962 11.082-11.082v-6.911h-22.162v6.911zM220.048 63.652v6.911c0 6.12 4.961 11.082 11.081 11.082 6.12 0 11.082-4.962 11.082-11.082v-6.911h-22.163zM42.75 63.652h22.163l3.706-8.076H47.516zM87.075 63.652h22.162l1.589-8.076H89.722zM131.929 55.577l-.53 8.075h22.163l-.53-8.075zM174.136 55.577l1.588 8.075h22.162l-2.647-8.075zM237.446 55.577h-21.104l3.707 8.075h22.162z" mask="url(#e)"/>
                <path fill="#B71C1C" d="M49.816 96.659h5.635v-4.134h-5.635z" mask="url(#e)"/>
                <path fill="#3E2723" d="M62.679 148.106h90.17V93.408h-90.17z" mask="url(#e)"/>
                <path fill="#80DEEA" d="M65.84 144.945h83.847V96.569H65.84z" mask="url(#e)"/>
                <path fill="#B2DFDB" d="M149.685 110.843v7.486l-21.76-21.76h7.486zM149.685 120.411v3.74L122.102 96.57h3.745zM149.685 137.46v7.486H142.2L93.822 96.57h14.972z" mask="url(#e)"/>
                <path fill="#212121" d="M65.84 98.26h83.847v-1.69H65.84z" mask="url(#e)"/>
                <path fill="#FAFBFB" d="M57.985 158.399h99.557v-10.293H57.985z" mask="url(#e)"/>
                <path fill="#43A047" d="M151.368 142.077h-87.21a4.182 4.182 0 0 0-4.182 4.182v1.847h95.575v-1.847a4.182 4.182 0 0 0-4.183-4.182" mask="url(#e)"/>
                <path fill="#EEE" d="M57.985 150.312h99.556v-2.206H57.985z" mask="url(#e)"/>
                <path fill="#43A047" d="M155.54 146.047H59.986c-.003.071-.01.14-.01.212v1.847h95.575v-1.847c0-.071-.007-.14-.011-.212" mask="url(#e)"/>
            </g>
        </g>
        <g mask="url(#c)">
            <path fill="#388E3C" d="M49.52 652.244c-11.992 0-21.713 9.722-21.713 21.713v28.447h43.426v-28.447c0-11.991-9.721-21.713-21.713-21.713z"/>
            <path fill="#2E7D32" d="M7.957 684.508c0 8.375 6.79 15.165 15.164 15.165 8.375 0 15.165-6.79 15.165-15.165 0-8.374-6.79-15.164-15.165-15.164s-15.164 6.79-15.164 15.164"/>
            <path fill="#1B5E20" d="M256.824 689.586c0 5.57 4.516 10.087 10.087 10.087s10.087-4.516 10.087-10.087c0-5.57-4.516-10.087-10.087-10.087-5.57 0-10.087 4.516-10.087 10.087"/>
            <path fill="#2E7D32" d="M223.704 678.832c0 11.51 9.331 20.84 20.841 20.84 11.51 0 20.842-9.33 20.842-20.84s-9.331-20.841-20.842-20.841c-11.51 0-20.84 9.33-20.84 20.84"/>
            <path fill="#E0E0E0" d="M537.748 705.68H-.866v-11.589h538.614z"/>
            <path fill="#F4BE26" d="M236.343 694.09H46.887V575.174h189.456z"/>
            <path fill="#F5F5F5" d="M46.352 686.897H64.42v7.194H44.275v-5.117c0-1.148.93-2.077 2.077-2.077"/>
            <path fill="#3E2723" d="M117.648 694.091H64.419v-86.007h53.229z"/>
            <path fill="#80DEEA" d="M114.486 690.929H67.581v-79.684h46.905z"/>
            <path fill="#B2DFDB" d="M67.582 630.963v4.888l24.606-24.606H87.3zM67.582 679v4.884l46.904-46.904v-4.883zM67.582 638.45v9.774l36.979-36.978h-9.775z"/>
            <path fill="#212121" d="M114.486 612.937H67.581v-1.691h46.905z"/>
            <path fill="#E0E0E0" d="M106.785 645.505a2.022 2.022 0 1 0 4.044 0 2.022 2.022 0 0 0-4.044 0M106.785 659.989a2.022 2.022 0 1 0 4.044 0 2.022 2.022 0 0 0-4.044 0"/>
            <path fill="#F5F5F5" d="M108.807 643.925c.64 0 1.158.518 1.158 1.158v15.329a1.158 1.158 0 0 1-2.316 0v-15.33c0-.639.518-1.157 1.158-1.157M117.648 686.897h119.23c1.147 0 2.077.93 2.077 2.077v5.117H117.648v-7.194z"/>
            <path fill="#BDBDBD" d="M236.58 571.136H46.65v-3.487h189.93z"/>
            <path fill="#F4BE26" d="M234.25 567.649H48.98v-3.488h185.27z"/>
            <path fill="#212121" d="M234.25 565.905H48.98v-1.744h185.27z"/>
            <path fill="#E5984B" d="M81.1 605.151H70.473v-4.133h10.629zM67.682 605.151H57.053v-4.133h10.629zM74.347 598.27H63.72v-4.132h10.628zM62.367 663.143H51.74v-4.133h10.627zM55.614 656.262H44.986v-4.133h10.628zM218.802 605.151h-10.628v-4.133h10.628zM205.382 605.151h-10.628v-4.133h10.628zM212.048 598.27H201.42v-4.132h10.628zM198.63 598.27H188v-4.132h10.629zM186.562 683.632h-10.628V679.5h10.628zM146.929 676.752h-10.628v-4.133h10.628zM199.981 683.632h-10.628V679.5h10.628zM193.315 676.752h-10.627v-4.133h10.627zM206.734 676.752h-10.628v-4.133h10.628zM238.12 640.94h-7.681v-4.133h7.681zM233.24 634.06h-7.682v-4.133h7.682z"/>
            <path fill="#F5F5F5" d="M64.42 620.232c.437 0 .792.355.792.792v6.05a.793.793 0 1 1-1.585 0v-6.05c0-.437.355-.792.792-.792M64.42 674.308c.437 0 .792.355.792.793v6.05a.793.793 0 1 1-1.585 0v-6.05c0-.438.355-.793.792-.793"/>
            <path fill="#E5984B" d="M149.325 605.151h-5.314v-4.133h5.314zM143.26 598.27h-5.314v-4.132h5.314zM157.48 598.27h-10.628v-4.132h10.628zM229.018 676.463h-5.314v-4.133h5.314zM238.056 669.583h-10.629v-4.133h10.629zM60.67 635.954h-7.671v-4.133h7.671zM131.247 623.008h-5.365v-4.133h5.365zM128.564 628.964H123.2v-4.133h5.365z"/>
            <path fill="#E0E0E0" d="M219.183 586.122c0 6.12-4.962 11.082-11.082 11.082-6.12 0-11.08-4.962-11.08-11.082v-6.912h22.162v6.912zM174.858 586.122c0 6.12-4.961 11.082-11.081 11.082-6.12 0-11.081-4.962-11.081-11.082v-6.912h22.162v6.912zM130.534 586.122c0 6.12-4.961 11.082-11.081 11.082-6.12 0-11.081-4.962-11.081-11.082v-6.912h22.162v6.912zM86.21 579.21v6.912c0 6.12-4.962 11.082-11.082 11.082-6.12 0-11.081-4.962-11.081-11.082v-6.912h22.162z"/>
            <path fill="#EEE" d="M219.183 579.21H197.02l-2.647-8.075h21.104zM174.858 579.21h-22.162l-.53-8.075h21.104zM131.063 571.135l-.529 8.076h-22.163l1.588-8.076zM67.753 571.135h21.103l-2.647 8.076H64.047z"/>
            <path fill="#00ACC1" d="M241.345 586.122c0 6.12-4.961 11.082-11.082 11.082-6.12 0-11.08-4.962-11.08-11.082v-6.912h22.162v6.912zM197.02 586.122c0 6.12-4.96 11.082-11.08 11.082s-11.082-4.962-11.082-11.082v-6.912h22.162v6.912zM152.696 586.122c0 6.12-4.961 11.082-11.081 11.082-6.12 0-11.081-4.962-11.081-11.082v-6.912h22.162v6.912zM108.372 586.122c0 6.12-4.961 11.082-11.082 11.082-6.12 0-11.08-4.962-11.08-11.082v-6.912h22.162v6.912zM64.047 579.21v6.912c0 6.12-4.96 11.082-11.081 11.082-6.12 0-11.081-4.962-11.081-11.082v-6.912h22.162z"/>
            <path fill="#00ACC1" d="M241.345 579.21h-22.162l-3.707-8.075h21.104zM197.02 579.21h-22.162l-1.588-8.075h21.103zM152.167 571.135l.529 8.076h-22.162l.53-8.076zM109.96 571.135l-1.589 8.076H86.21l2.647-8.076zM46.65 571.135h21.103l-3.706 8.076H41.885z"/>
            <path fill="#E5984B" d="M234.28 612.218h-5.636v-4.134h5.635z"/>
            <path fill="#3E2723" d="M221.417 663.665h-90.17v-54.698h90.17z"/>
            <path fill="#80DEEA" d="M218.256 660.503h-83.847v-48.375h83.847z"/>
            <path fill="#B2DFDB" d="M134.41 626.402v7.486l21.76-21.76h-7.485zM134.41 635.97v3.74l27.583-27.582h-3.745zM134.41 653.019v7.486h7.486l48.377-48.377h-14.971z"/>
            <path fill="#212121" d="M218.256 613.819h-83.847v-1.691h83.847z"/>
            <path fill="#FAFBFB" d="M226.11 673.958h-99.557v-10.293h99.558z"/>
            <path fill="#43A047" d="M132.727 657.636h87.21a4.182 4.182 0 0 1 4.183 4.182v1.847h-95.575v-1.847a4.182 4.182 0 0 1 4.182-4.182"/>
            <path fill="#EEE" d="M226.11 665.87h-99.555v-2.205h99.556z"/>
            <path fill="#43A047" d="M128.555 661.606h95.554c.004.071.01.14.01.212v1.847h-95.574v-1.847c0-.071.006-.14.01-.212"/>
        </g>
        <g mask="url(#c)" opacity=".7">
            <path fill="#FAFBFB" d="M33.783 125.73h1.013a2.69 2.69 0 0 0 2.69-2.689v-.97c0-.422.316-.8.737-.822a.78.78 0 0 1 .821.778v1.014a2.69 2.69 0 0 0 2.69 2.689h1.013a.78.78 0 0 1 0 1.559h-1.013a2.69 2.69 0 0 0-2.69 2.69v.969c0 .422-.315.8-.738.822a.78.78 0 0 1-.82-.778v-1.014a2.69 2.69 0 0 0-2.69-2.69h-1.013a.78.78 0 1 1 0-1.558M192.839 118.109h1.013a2.69 2.69 0 0 0 2.69-2.69v-.969c0-.422.316-.8.737-.822a.78.78 0 0 1 .822.778v1.013a2.69 2.69 0 0 0 2.689 2.69h1.013a.78.78 0 0 1 0 1.558h-1.013a2.69 2.69 0 0 0-2.69 2.69v.97c0 .422-.315.8-.738.822a.78.78 0 0 1-.82-.779v-1.013a2.69 2.69 0 0 0-2.69-2.69h-1.013a.78.78 0 1 1 0-1.558M249.95 166.349h.498c.728 0 1.318-.59 1.318-1.319v-.475c0-.208.156-.393.362-.404a.382.382 0 0 1 .403.382v.497a1.32 1.32 0 0 0 1.319 1.319h.497a.382.382 0 0 1 0 .764h-.497a1.32 1.32 0 0 0-1.319 1.32v.474c0 .208-.155.394-.361.404a.383.383 0 0 1-.404-.382v-.497c0-.728-.59-1.319-1.318-1.319h-.497a.382.382 0 0 1 0-.764M446.392 73.768h.497c.729 0 1.32-.59 1.32-1.32v-.475c0-.207.155-.392.36-.403a.382.382 0 0 1 .404.382v.497a1.32 1.32 0 0 0 1.318 1.319h.497a.383.383 0 1 1 0 .764h-.497a1.32 1.32 0 0 0-1.318 1.32v.474c0 .207-.155.393-.362.404a.382.382 0 0 1-.402-.382v-.497a1.32 1.32 0 0 0-1.32-1.319h-.497a.382.382 0 1 1 0-.764M382.902 253.333h1.013a2.69 2.69 0 0 0 2.69-2.69v-.969c0-.422.316-.8.737-.822a.78.78 0 0 1 .821.778v1.013a2.69 2.69 0 0 0 2.69 2.69h1.013a.78.78 0 1 1 0 1.559h-1.013a2.69 2.69 0 0 0-2.69 2.689v.97c0 .422-.316.8-.737.822a.78.78 0 0 1-.821-.778v-1.014a2.69 2.69 0 0 0-2.69-2.69h-1.013a.78.78 0 0 1 0-1.558M142.839 238.109h1.013a2.69 2.69 0 0 0 2.69-2.69v-.969c0-.422.316-.8.737-.822a.78.78 0 0 1 .822.778v1.013a2.69 2.69 0 0 0 2.689 2.69h1.013a.78.78 0 0 1 0 1.558h-1.013a2.69 2.69 0 0 0-2.69 2.69v.97c0 .422-.315.8-.738.822a.78.78 0 0 1-.82-.779v-1.013a2.69 2.69 0 0 0-2.69-2.69h-1.013a.78.78 0 1 1 0-1.558M34.74 251.15h.496c.729 0 1.319-.59 1.319-1.32v-.475c0-.207.155-.392.362-.403a.382.382 0 0 1 .403.382v.497c0 .728.59 1.319 1.318 1.319h.498a.382.382 0 0 1 0 .764h-.498c-.728 0-1.318.59-1.318 1.319v.475c0 .207-.155.393-.362.404a.382.382 0 0 1-.403-.382v-.497c0-.728-.59-1.319-1.319-1.319h-.497a.382.382 0 0 1 0-.764M119.95 356.349h.498c.728 0 1.318-.59 1.318-1.319v-.475c0-.208.156-.393.362-.404a.382.382 0 0 1 .403.382v.497a1.32 1.32 0 0 0 1.319 1.319h.497a.382.382 0 0 1 0 .764h-.497a1.32 1.32 0 0 0-1.319 1.32v.474c0 .208-.155.394-.361.404a.383.383 0 0 1-.404-.382v-.497c0-.728-.59-1.319-1.318-1.319h-.497a.382.382 0 0 1 0-.764M382.605 311.755h.497c.729 0 1.319-.59 1.319-1.32v-.474c0-.207.156-.392.362-.404a.382.382 0 0 1 .403.383v.496c0 .729.59 1.32 1.318 1.32h.497a.383.383 0 1 1 0 .764h-.497c-.728 0-1.318.59-1.318 1.319v.475c0 .207-.156.392-.362.403a.382.382 0 0 1-.403-.381v-.497c0-.729-.59-1.32-1.319-1.32h-.497a.382.382 0 1 1 0-.764M33.783 435.73h1.013a2.69 2.69 0 0 0 2.69-2.689v-.97c0-.422.316-.8.737-.822a.78.78 0 0 1 .821.778v1.014a2.69 2.69 0 0 0 2.69 2.689h1.013a.78.78 0 0 1 0 1.559h-1.013a2.69 2.69 0 0 0-2.69 2.69v.969c0 .422-.315.8-.738.822a.78.78 0 0 1-.82-.778v-1.014a2.69 2.69 0 0 0-2.69-2.69h-1.013a.78.78 0 1 1 0-1.558M242.839 398.109h1.013a2.69 2.69 0 0 0 2.69-2.69v-.969c0-.422.316-.8.737-.822a.78.78 0 0 1 .822.778v1.013a2.69 2.69 0 0 0 2.689 2.69h1.013a.78.78 0 0 1 0 1.558h-1.013a2.69 2.69 0 0 0-2.69 2.69v.97c0 .422-.315.8-.738.822a.78.78 0 0 1-.82-.779v-1.013a2.69 2.69 0 0 0-2.69-2.69h-1.013a.78.78 0 1 1 0-1.558M249.95 476.349h.498c.728 0 1.318-.59 1.318-1.319v-.475c0-.208.156-.393.362-.404a.382.382 0 0 1 .403.382v.497a1.32 1.32 0 0 0 1.319 1.319h.497a.382.382 0 0 1 0 .764h-.497a1.32 1.32 0 0 0-1.319 1.32v.474c0 .208-.155.394-.361.404a.383.383 0 0 1-.404-.382v-.497c0-.728-.59-1.319-1.318-1.319h-.497a.382.382 0 0 1 0-.764M436.392 403.768h.497c.729 0 1.32-.59 1.32-1.32v-.475c0-.207.155-.392.36-.403a.382.382 0 0 1 .404.382v.497a1.32 1.32 0 0 0 1.318 1.319h.497a.383.383 0 1 1 0 .764h-.497a1.32 1.32 0 0 0-1.318 1.32v.474c0 .207-.155.393-.362.404a.382.382 0 0 1-.402-.382v-.497a1.32 1.32 0 0 0-1.32-1.319h-.497a.382.382 0 1 1 0-.764M333.716 100.85c18.583 0 33.65 15.065 33.65 33.65h-67.3c0-18.585 15.066-33.65 33.65-33.65M283.241 117.674c9.292 0 16.825 7.533 16.825 16.825h-33.65c0-9.292 7.533-16.825 16.825-16.825M98.295 147.674c7.645 0 13.844 6.198 13.844 13.844H84.45c0-7.646 6.197-13.844 13.844-13.844M77.528 154.596c3.823 0 6.922 3.1 6.922 6.922H70.606a6.922 6.922 0 0 1 6.922-6.922"/>
            <g fill="#FAFBFB">
                <path d="M1294.453 173.729h-1.014a2.689 2.689 0 0 1-2.689-2.689v-.97c0-.422-.316-.8-.737-.822a.78.78 0 0 0-.822.778v1.014a2.69 2.69 0 0 1-2.69 2.689h-1.013a.78.78 0 0 0 0 1.559h1.013a2.69 2.69 0 0 1 2.69 2.69v.969c0 .422.316.8.738.822a.78.78 0 0 0 .821-.778v-1.014a2.69 2.69 0 0 1 2.69-2.69h1.013a.78.78 0 1 0 0-1.558M1245.427 88.109h-1.014a2.69 2.69 0 0 1-2.689-2.69v-.969c0-.422-.317-.8-.737-.822a.78.78 0 0 0-.822.778v1.013a2.69 2.69 0 0 1-2.69 2.69h-1.013a.78.78 0 0 0 0 1.558h1.013a2.69 2.69 0 0 1 2.69 2.69v.97c0 .422.316.8.738.822a.78.78 0 0 0 .821-.779v-1.013a2.69 2.69 0 0 1 2.69-2.69h1.013a.78.78 0 1 0 0-1.558M1144.474 155.38h-.496a1.32 1.32 0 0 1-1.32-1.32v-.475c0-.207-.155-.392-.36-.403a.382.382 0 0 0-.404.381v.498a1.32 1.32 0 0 1-1.319 1.318h-.497a.382.382 0 1 0 0 .765h.497c.728 0 1.32.59 1.32 1.319v.475c0 .207.154.393.36.403a.382.382 0 0 0 .403-.381v-.497a1.32 1.32 0 0 1 1.32-1.319h.496a.383.383 0 1 0 0-.765M1264.42 268.109h-1.013a2.69 2.69 0 0 1-2.69-2.69v-.969c0-.422-.316-.8-.737-.822a.78.78 0 0 0-.822.778v1.013a2.69 2.69 0 0 1-2.69 2.69h-1.013a.78.78 0 0 0 0 1.558h1.013a2.69 2.69 0 0 1 2.69 2.69v.97c0 .422.316.8.738.822a.78.78 0 0 0 .821-.779v-1.013a2.69 2.69 0 0 1 2.69-2.69h1.013a.78.78 0 1 0 0-1.558M1117.115 241.15h-.497c-.728 0-1.319-.59-1.319-1.32v-.475c0-.207-.155-.392-.361-.403a.382.382 0 0 0-.403.382v.497c0 .728-.59 1.319-1.32 1.319h-.497a.382.382 0 0 0 0 .764h.498c.728 0 1.319.59 1.319 1.319v.475c0 .207.155.393.362.404a.382.382 0 0 0 .402-.382v-.497c0-.728.59-1.319 1.32-1.319h.496a.382.382 0 0 0 0-.764M1294.453 473.729h-1.014a2.689 2.689 0 0 1-2.689-2.689v-.97c0-.422-.316-.8-.737-.822a.78.78 0 0 0-.822.778v1.014a2.69 2.69 0 0 1-2.69 2.689h-1.013a.78.78 0 0 0 0 1.559h1.013a2.69 2.69 0 0 1 2.69 2.69v.969c0 .422.316.8.738.822a.78.78 0 0 0 .821-.778v-1.014a2.69 2.69 0 0 1 2.69-2.69h1.013a.78.78 0 1 0 0-1.558M965.364 453.333h-1.014a2.69 2.69 0 0 1-2.69-2.69v-.969c0-.422-.315-.8-.736-.822a.78.78 0 0 0-.822.778v1.013a2.69 2.69 0 0 1-2.69 2.69H956.4a.78.78 0 1 0 0 1.559h1.013a2.69 2.69 0 0 1 2.69 2.689v.97c0 .422.316.8.737.822a.78.78 0 0 0 .822-.778v-1.014a2.69 2.69 0 0 1 2.689-2.69h1.014a.78.78 0 0 0 0-1.558M1134.474 475.38h-.496a1.32 1.32 0 0 1-1.32-1.32v-.475c0-.207-.155-.392-.36-.403a.382.382 0 0 0-.404.381v.498a1.32 1.32 0 0 1-1.319 1.318h-.497a.382.382 0 1 0 0 .765h.497c.728 0 1.32.59 1.32 1.319v.475c0 .207.154.393.36.403a.382.382 0 0 0 .403-.381v-.497a1.32 1.32 0 0 1 1.32-1.319h.496a.383.383 0 1 0 0-.765M974.483 298.333h-1.014a2.69 2.69 0 0 1-2.69-2.69v-.969c0-.422-.315-.8-.736-.822a.78.78 0 0 0-.822.778v1.013a2.69 2.69 0 0 1-2.69 2.69h-1.013a.78.78 0 1 0 0 1.559h1.013a2.69 2.69 0 0 1 2.69 2.689v.97c0 .422.316.8.737.822a.78.78 0 0 0 .821-.778v-1.014a2.69 2.69 0 0 1 2.69-2.69h1.014a.78.78 0 0 0 0-1.558M535.364 300.73h-1.013a2.69 2.69 0 0 1-2.69-2.689v-.97c0-.422-.316-.8-.737-.822a.78.78 0 0 0-.822.778v1.014a2.69 2.69 0 0 1-2.69 2.689H526.4a.78.78 0 0 0 0 1.559h1.013a2.69 2.69 0 0 1 2.69 2.69v.969c0 .422.316.8.738.822a.78.78 0 0 0 .821-.778v-1.014a2.69 2.69 0 0 1 2.69-2.69h1.013a.78.78 0 1 0 0-1.558M637.115 276.15h-.497c-.728 0-1.319-.59-1.319-1.32v-.475c0-.207-.155-.392-.361-.403a.382.382 0 0 0-.403.382v.497c0 .728-.59 1.319-1.32 1.319h-.497a.382.382 0 0 0 0 .764h.498c.728 0 1.319.59 1.319 1.319v.475c0 .207.155.393.362.404a.382.382 0 0 0 .402-.382v-.497c0-.728.59-1.319 1.32-1.319h.496a.382.382 0 0 0 0-.764M1135.981 336.755h-.497c-.728 0-1.319-.59-1.319-1.32v-.474c0-.207-.155-.392-.361-.404a.382.382 0 0 0-.403.383v.496c0 .729-.59 1.32-1.319 1.32h-.497a.383.383 0 1 0 0 .764h.497c.729 0 1.319.59 1.319 1.319v.475c0 .207.155.392.362.403a.382.382 0 0 0 .402-.381v-.497c0-.729.59-1.32 1.32-1.32h.496a.382.382 0 1 0 0-.764M585.364 398.333h-1.014a2.69 2.69 0 0 1-2.69-2.69v-.969c0-.422-.315-.8-.736-.822a.78.78 0 0 0-.822.778v1.013a2.69 2.69 0 0 1-2.69 2.69H576.4a.78.78 0 1 0 0 1.559h1.013a2.69 2.69 0 0 1 2.69 2.689v.97c0 .422.316.8.737.822a.78.78 0 0 0 .822-.778v-1.014a2.69 2.69 0 0 1 2.689-2.69h1.014a.78.78 0 0 0 0-1.558M993.526 366.15h-.497c-.728 0-1.319-.59-1.319-1.32v-.475c0-.207-.155-.392-.362-.403a.382.382 0 0 0-.402.382v.497c0 .728-.59 1.319-1.32 1.319h-.497a.382.382 0 0 0 0 .764h.498c.728 0 1.319.59 1.319 1.319v.475c0 .207.155.393.361.404a.382.382 0 0 0 .403-.382v-.497c0-.728.59-1.319 1.32-1.319h.496a.382.382 0 0 0 0-.764M848.314 421.349h-.496c-.729 0-1.32-.59-1.32-1.319v-.475c0-.208-.155-.393-.361-.404a.382.382 0 0 0-.403.382v.497a1.32 1.32 0 0 1-1.319 1.319h-.497a.382.382 0 0 0 0 .764h.497c.728 0 1.32.59 1.32 1.32v.474c0 .208.154.394.36.404a.383.383 0 0 0 .404-.382v-.497c0-.728.59-1.319 1.319-1.319h.496a.382.382 0 0 0 0-.764M621.873 368.768h-.497a1.32 1.32 0 0 1-1.32-1.32v-.475c0-.207-.154-.392-.36-.403a.382.382 0 0 0-.404.382v.497a1.32 1.32 0 0 1-1.318 1.319h-.497a.383.383 0 1 0 0 .764h.497c.728 0 1.318.59 1.318 1.32v.474c0 .207.155.393.362.404a.382.382 0 0 0 .403-.382v-.497a1.32 1.32 0 0 1 1.319-1.319h.497a.382.382 0 1 0 0-.764M1094.55 100.85c-18.584 0-33.65 15.065-33.65 33.65h67.3c0-18.585-15.066-33.65-33.65-33.65"/>
                <path d="M1145.024 117.674c-9.292 0-16.825 7.533-16.825 16.825h33.65c0-9.292-7.533-16.825-16.825-16.825M1289.97 107.674c-7.645 0-13.843 6.198-13.843 13.844h27.688c0-7.646-6.198-13.844-13.844-13.844"/>
            </g>
            <g fill="#FAFBFB">
                <path d="M646.817 133.729h1.014a2.689 2.689 0 0 0 2.688-2.689v-.97c0-.422.317-.8.738-.822a.78.78 0 0 1 .822.778v1.014a2.69 2.69 0 0 0 2.69 2.689h1.012a.78.78 0 0 1 0 1.559h-1.013a2.69 2.69 0 0 0-2.69 2.69v.969c0 .422-.315.8-.737.822a.78.78 0 0 1-.822-.778v-1.014a2.69 2.69 0 0 0-2.688-2.69h-1.014a.78.78 0 1 1 0-1.558M965.906 93.333h1.014a2.69 2.69 0 0 0 2.69-2.69v-.969c0-.422.315-.8.736-.822a.78.78 0 0 1 .822.778v1.013a2.69 2.69 0 0 0 2.69 2.69h1.012a.78.78 0 1 1 0 1.559h-1.013a2.69 2.69 0 0 0-2.69 2.689v.97c0 .422-.315.8-.737.822a.78.78 0 0 1-.82-.778V97.58a2.69 2.69 0 0 0-2.69-2.69h-1.014a.78.78 0 0 1 0-1.558M516.787 95.73h1.013a2.69 2.69 0 0 0 2.69-2.689v-.97c0-.422.316-.8.737-.822a.78.78 0 0 1 .822.778v1.014a2.69 2.69 0 0 0 2.69 2.689h1.012a.78.78 0 0 1 0 1.559h-1.013a2.69 2.69 0 0 0-2.689 2.69v.969c0 .422-.316.8-.738.822a.78.78 0 0 1-.821-.778v-1.014a2.69 2.69 0 0 0-2.69-2.69h-1.013a.78.78 0 1 1 0-1.558M826.796 155.38h.496c.728 0 1.32-.59 1.32-1.32v-.475c0-.207.154-.392.36-.403a.382.382 0 0 1 .403.381v.498a1.32 1.32 0 0 0 1.32 1.318h.497a.382.382 0 1 1 0 .765h-.497c-.729 0-1.32.59-1.32 1.319v.475c0 .207-.155.393-.36.403a.382.382 0 0 1-.404-.381v-.497a1.32 1.32 0 0 0-1.32-1.319h-.495a.383.383 0 1 1 0-.765M995.61 161.755h.497c.728 0 1.319-.59 1.319-1.32v-.474c0-.207.155-.392.361-.404a.382.382 0 0 1 .403.383v.496c0 .729.59 1.32 1.319 1.32h.497a.383.383 0 1 1 0 .764h-.497c-.729 0-1.319.59-1.319 1.319v.475c0 .207-.155.392-.362.403a.382.382 0 0 1-.402-.381v-.497c0-.729-.59-1.32-1.32-1.32h-.496a.382.382 0 1 1 0-.764M541.797 142.268c14.119 0 25.564 11.445 25.564 25.564h-51.128c0-14.119 11.445-25.564 25.564-25.564M503.45 155.05c7.06 0 12.783 5.723 12.783 12.782h-25.564c0-7.06 5.722-12.782 12.782-12.782M876.72 90.85c18.584 0 33.65 15.065 33.65 33.65h-67.3c0-18.585 15.066-33.65 33.65-33.65M826.246 107.674c9.291 0 16.824 7.533 16.824 16.825h-33.649c0-9.292 7.533-16.825 16.825-16.825M721.736 145.289c5.514 0 9.983 4.47 9.983 9.983h-19.966c0-5.513 4.47-9.983 9.983-9.983M706.762 150.28a4.991 4.991 0 0 1 4.991 4.991h-9.982a4.991 4.991 0 0 1 4.99-4.99"/>
            </g>
        </g>
        <g mask="url(#c)">
            <path fill="#1B5E20" d="M859.352 696.46c0 7.756-6.287 14.043-14.042 14.043s-14.042-6.287-14.042-14.042 6.287-14.042 14.042-14.042 14.042 6.287 14.042 14.042z"/>
            <path fill="#212121" d="M510.301 513.842h7.29v-46.324h-7.29zM780.381 513.842h7.29v-46.324h-7.29z"/>
            <path fill="#D32E2E" d="M492.087 505.819h313.799v-47.004H492.087z"/>
            <path fill="#388E3C" d="M812.959 641.898c-17.747 0-32.134 14.387-32.134 32.134v42.1h64.268v-42.1c0-17.747-14.387-32.134-32.134-32.134"/>
            <path fill="#1B5E20" d="M473.655 694.291c0 8.245-6.684 14.928-14.928 14.928-8.245 0-14.929-6.683-14.929-14.928 0-8.244 6.684-14.928 14.929-14.928 8.244 0 14.928 6.684 14.928 14.928"/>
            <path fill="#2E7D32" d="M520.414 687.843c0 17.035-13.81 30.843-30.844 30.843s-30.843-13.808-30.843-30.843 13.809-30.844 30.843-30.844c17.035 0 30.844 13.809 30.844 30.844"/>
            <path fill="#FF7043" d="M477.675 699.67h342.623V547.307H477.675z"/>
            <path fill="#3E2723" d="M613.956 703.832h70.06V590.626h-70.06z"/>
            <path fill="#80CBC4" d="M618.117 699.67h61.739V594.788h-61.74z"/>
            <path fill="#212121" d="M618.117 597.013h61.739v-2.226h-61.74z"/>
            <path fill="#E0E0E0" d="M628.253 639.882a2.66 2.66 0 1 1-5.32 0 2.66 2.66 0 0 1 5.32 0M628.253 658.946a2.661 2.661 0 1 1-5.322 0 2.661 2.661 0 0 1 5.322 0"/>
            <path fill="#F5F5F5" d="M625.592 637.802c-.842 0-1.524.682-1.524 1.523v20.177a1.524 1.524 0 0 0 3.048 0v-20.177c0-.841-.682-1.523-1.524-1.523M684.017 606.615c-.576 0-1.044.467-1.044 1.044v7.963a1.043 1.043 0 0 0 2.088 0v-7.963c0-.577-.467-1.044-1.044-1.044M684.017 677.793c-.576 0-1.044.467-1.044 1.044v7.962a1.044 1.044 0 0 0 2.088 0v-7.962c0-.577-.467-1.044-1.044-1.044"/>
            <path fill="#3E2723" d="M498.862 671.478h89.445v-80.852h-89.445z"/>
            <path fill="#80CBC4" d="M503.023 667.317h81.124v-72.53h-81.124z"/>
            <path fill="#212121" d="M503.023 597.013h81.124v-2.226h-81.124z"/>
            <path fill="#3E2723" d="M709.665 671.478h89.445v-80.852h-89.445z"/>
            <path fill="#80CBC4" d="M713.826 667.317h81.123v-72.53h-81.123z"/>
            <path fill="#212121" d="M713.826 597.013h81.123v-2.226h-81.123z"/>
            <path fill="#E0E0E0" d="M475.625 694.29a3.208 3.208 0 0 0-3.208 3.208v6.334h141.538v-9.542h-138.33zM822.347 694.29a3.208 3.208 0 0 1 3.21 3.208v6.334h-141.54v-9.542h138.33zM494.705 673.631h97.759v-6.315h-97.759zM705.508 673.631h97.759v-6.315h-97.759z"/>
            <path d="M558.459 694.291h55.497v9.538h-51.228z"/>
            <g transform="translate(683.586 693.718)">
                <mask id="g" fill="#fff">
                    <use xlink:href="#f"/>
                </mask>
                <path d="M141.97 3.78v6.331H.43V.574h138.335a3.206 3.206 0 0 1 3.205 3.205" mask="url(#g)"/>
            </g>
            <path fill="#26C6DA" d="M503.023 667.317h81.123v-4.498h-81.123z"/>
            <path fill="#66BCB4" d="M523.272 654.277h-12.244c-.645 0-1.168.524-1.168 1.168v7.677c0 .645.523 1.168 1.168 1.168h12.244c.645 0 1.168-.523 1.168-1.168v-7.677c0-.644-.523-1.168-1.168-1.168"/>
            <path fill="#66BCB4" d="M517.15 658.684a3.264 3.264 0 1 1 0-6.528 3.264 3.264 0 0 1 0 6.528m0-7.671a4.407 4.407 0 1 0 0 8.813 4.407 4.407 0 0 0 0-8.813"/>
            <path fill="#26C6DA" d="M713.826 667.317h81.123v-4.498h-81.123z"/>
            <path fill="#66BCB4" d="M750.566 654.363h-11.19c-.59 0-1.068.477-1.068 1.068v7.016c0 .589.478 1.068 1.068 1.068h11.19c.59 0 1.068-.479 1.068-1.068v-7.016c0-.59-.479-1.068-1.068-1.068"/>
            <path fill="#66BCB4" d="M744.97 658.39a2.983 2.983 0 1 1 .002-5.966 2.983 2.983 0 0 1-.001 5.966m0-7.01a4.027 4.027 0 1 0 0 8.054 4.027 4.027 0 0 0 0-8.054M769.4 654.363h-11.191c-.589 0-1.067.477-1.067 1.068v7.016c0 .589.478 1.068 1.067 1.068h11.19c.59 0 1.068-.479 1.068-1.068v-7.016c0-.59-.478-1.068-1.067-1.068"/>
            <path fill="#66BCB4" d="M763.805 658.39a2.983 2.983 0 1 1 0-5.966 2.983 2.983 0 0 1 0 5.966m0-7.01a4.027 4.027 0 1 0-.001 8.055 4.027 4.027 0 0 0 0-8.055M551.562 656.74h-9.234a.88.88 0 0 0-.88.88v5.79c0 .486.394.88.88.88h9.234a.88.88 0 0 0 .881-.88v-5.79a.88.88 0 0 0-.88-.88"/>
            <path fill="#66BCB4" d="M546.945 660.062a2.461 2.461 0 1 1-.001-4.922 2.461 2.461 0 0 1 .001 4.922m0-5.785a3.323 3.323 0 1 0 0 6.645 3.323 3.323 0 0 0 0-6.645M544.266 629.479v6.677a12.535 12.535 0 0 1 1.521 5.987v7.09a2.11 2.11 0 0 1-2.115 2.109h-5.856v11.633h.483c.314 0 .568.255.568.568v3.773h-3.198v-3.773c0-.313.254-.568.567-.568h.484v-11.633h-5.863a2.108 2.108 0 0 1-2.108-2.109v-7.09c0-2.089.522-4.152 1.52-5.987v-6.677c0-1.071-.28-2.122-.809-3.056l-1.547-2.702a2.47 2.47 0 0 1 .398-2.97l.32-.32c.209-.21.483-.327.777-.327h4.152a.35.35 0 0 0 .352-.346v-.62a.35.35 0 0 1 .353-.346h2.455v-.581a1.867 1.867 0 1 1 1.097 0v.58h2.454a.35.35 0 0 1 .352.347v.62c0 .19.157.346.353.346h4.152c.287 0 .568.118.777.326l.32.32a2.48 2.48 0 0 1 .398 2.97l-1.547 2.703a6.13 6.13 0 0 0-.81 3.056M574.734 629.479v6.677a12.542 12.542 0 0 1 1.527 5.987v7.09a2.11 2.11 0 0 1-2.115 2.109h-5.856v11.633h.483c.314 0 .562.255.562.568v3.773h-3.193v-3.773c0-.313.255-.568.562-.568h.49v-11.633h-5.863a2.104 2.104 0 0 1-2.109-2.109v-7.09c0-2.089.523-4.152 1.522-5.987v-6.677c0-1.071-.281-2.122-.81-3.056l-1.547-2.702a2.46 2.46 0 0 1 .398-2.97l.32-.32a1.08 1.08 0 0 1 .777-.327h4.152a.35.35 0 0 0 .352-.346v-.62a.35.35 0 0 1 .353-.346h2.455v-.581a1.869 1.869 0 0 1-1.326-1.782c0-1.032.836-1.867 1.874-1.867 1.031 0 1.867.835 1.867 1.867a1.87 1.87 0 0 1-1.319 1.782v.58h2.455c.19 0 .346.158.346.347v.62c0 .19.157.346.352.346h4.152c.294 0 .575.118.777.326l.327.32c.783.784.946 2.004.391 2.97l-1.547 2.703a6.198 6.198 0 0 0-.81 3.056M740.505 620.428a1.098 1.098 0 0 0-.776-.321h-4.154a.35.35 0 0 1-.35-.352v-.615a.351.351 0 0 0-.352-.35h-2.456v-.58a1.864 1.864 0 0 0-.548-3.648 1.864 1.864 0 1 0-.548 3.647v.58h-2.454a.351.351 0 0 0-.351.351v.615a.351.351 0 0 1-.351.352h-4.154c-.291 0-.57.115-.776.32l-.321.322a2.469 2.469 0 0 0-.398 2.97l1.547 2.707c.53.929.81 1.981.81 3.05v6.682a12.513 12.513 0 0 0-1.522 5.985v7.089c0 1.166.945 2.112 2.112 2.112h5.858v11.631h-.484a.563.563 0 0 0-.561.568v3.773h3.193v-3.773a.569.569 0 0 0-.568-.568h-.484v-11.63h5.86a2.113 2.113 0 0 0 2.112-2.113v-7.09a12.52 12.52 0 0 0-1.523-5.984v-6.681c0-1.07.28-2.122.81-3.051l1.548-2.707a2.47 2.47 0 0 0-.398-2.97l-.321-.321zM784.712 626.426l1.548-2.707a2.468 2.468 0 0 0-.398-2.97l-.321-.322a1.1 1.1 0 0 0-.776-.32h-4.154a.35.35 0 0 1-.35-.352v-.614a.352.352 0 0 0-.352-.352h-2.453v-.58a1.863 1.863 0 0 0-.55-3.647 1.87 1.87 0 0 0-1.87 1.87c0 .84.559 1.544 1.323 1.778v.58h-2.457a.352.352 0 0 0-.351.35v.615a.351.351 0 0 1-.351.351h-4.154a1.1 1.1 0 0 0-.776.321l-.32.322a2.467 2.467 0 0 0-.398 2.97l1.547 2.707c.53.93.81 1.98.81 3.05v6.681a12.522 12.522 0 0 0-1.523 5.985v7.09c0 1.167.945 2.113 2.112 2.113h5.861v11.63h-.49a.567.567 0 0 0-.56.568v3.774H778.5v-3.774a.563.563 0 0 0-.56-.568h-.484v-11.63h5.857a2.113 2.113 0 0 0 2.112-2.113v-7.09a12.53 12.53 0 0 0-1.523-5.985v-6.68c0-1.07.28-2.122.81-3.051"/>
            <g fill="#FAFBFB">
                <path d="M584.148 621.155v2.65l-29.018-29.018h2.65zM584.148 629.433v9.518l-44.164-44.163h9.518z"/>
            </g>
            <g fill="#FAFBFB">
                <path d="M679.858 637.443v3.59l-46.252-46.245h3.597zM679.858 613.814v14.245l-33.27-33.272h14.244z"/>
            </g>
            <g fill="#FAFBFB">
                <path d="M794.952 643.625v2.644l-51.489-51.482h2.65zM794.952 624.941v9.519l-39.673-39.672h9.52z"/>
            </g>
            <g>
                <path fill="#FF490F" d="M476.37 578.636h8.532v-4.679h-8.532zM486.784 578.636h8.531v-4.679h-8.53zM481.389 585.198h8.53v-4.68h-8.53zM481.389 572.075h8.53v-4.68h-8.53zM476.37 684.872h8.532v-4.679h-8.532zM486.784 684.872h8.531v-4.679h-8.53zM481.389 691.433h8.53v-4.678h-8.53zM587.069 582.858h8.531v-4.679h-8.531zM597.482 582.858h8.531v-4.679h-8.53zM592.087 589.419h8.53v-4.679h-8.53zM592.087 576.296h8.53v-4.678h-8.53zM607.896 582.858h8.531v-4.679h-8.53zM602.5 589.419h8.532v-4.679H602.5zM602.5 576.296h8.532v-4.678H602.5zM686.564 645.594h8.53v-4.679h-8.53zM696.977 645.594h8.531v-4.679h-8.531zM691.581 652.155h8.531v-4.678h-8.53zM691.581 639.032h8.531v-4.678h-8.53zM709.56 684.54h8.531v-4.678h-8.53zM719.975 684.54h8.53v-4.678h-8.53zM714.579 691.102h8.53v-4.678h-8.53zM699.147 684.54h8.531v-4.678h-8.531zM704.165 691.102h8.531v-4.678h-8.53zM803.486 611.636h8.531v-4.679h-8.53zM813.9 611.636h8.531v-4.679H813.9zM808.504 618.197h8.532v-4.68h-8.532zM808.504 605.075h8.532v-4.68h-8.532zM803.486 684.872h8.531v-4.679h-8.53zM813.9 684.872h8.531v-4.679H813.9zM808.504 691.433h8.532v-4.678h-8.532zM808.504 678.31h8.532v-4.679h-8.532zM722.398 573.015h8.531v-4.679h-8.531zM732.812 573.015h8.53v-4.679h-8.53zM727.416 579.577h8.53v-4.679h-8.53zM537.299 686.424h8.53v-4.68h-8.53zM526.886 686.424h8.53v-4.68h-8.53zM532.281 679.862h8.531v-4.68h-8.53zM596.541 692.044h8.532v-4.679h-8.532zM601.937 685.482h8.531v-4.679h-8.53zM683.865 582.858h8.532v-4.679h-8.532zM689.261 576.296h8.53v-4.678h-8.53zM795.893 582.662h8.53v-4.679h-8.53zM790.875 576.1h8.531v-4.678h-8.531zM481.389 636.96h8.53v-4.68h-8.53zM476.37 630.398h8.532v-4.679h-8.532z"/>
                <path fill="#FF7043" d="M490.023 463.82h317.926v-5.005H490.023z"/>
                <path fill="#000" d="M510.301 508.647h7.29v-2.828h-7.29zM780.381 508.647h7.29v-2.828h-7.29z"/>
                <path fill="#2E7D32" d="M838.07 692.513c0 9.816-7.957 17.772-17.772 17.772-9.816 0-17.772-7.956-17.772-17.772 0-9.814 7.956-17.772 17.772-17.772 9.815 0 17.771 7.958 17.771 17.772M797.763 661.607h-86.75a3.673 3.673 0 0 0-3.674 3.673v2.036h94.096v-2.036a3.673 3.673 0 0 0-3.672-3.673M586.96 661.607h-86.75a3.673 3.673 0 0 0-3.673 3.673v2.036h94.095v-2.036a3.672 3.672 0 0 0-3.672-3.673"/>
                <path fill="#FFE082" d="M503.336 463.82a3.698 3.698 0 0 0 7.396 0h-7.396zM574.313 463.82a3.698 3.698 0 0 0 7.395 0h-7.395zM645.289 463.82a3.698 3.698 0 0 0 7.395 0h-7.395zM716.264 463.82a3.698 3.698 0 0 0 7.396 0h-7.396zM787.24 463.82a3.698 3.698 0 0 0 7.396 0h-7.395z"/>
                <path fill="#FFB74D" d="M462.881 703.83h3.734v-25.522h-3.734zM504.693 703.83h3.735v-25.522h-3.735z"/>
                <path fill="#FFCC80" d="M461.484 700.01h48.34v-64.63h-48.34z"/>
                <path fill="#212121" d="M464.748 696.747h41.812v-58.102h-41.812z"/>
                <text fill="#FFF" font-family="SourceSansPro-Semibold, Source Sans Pro" font-size="12" font-weight="500" transform="translate(460.972 458.7)">
                    <tspan x="6.741" y="211.82">pulsuz </tspan> <tspan x="6.741" y="226.72">elanlar</tspan>
                </text>
            </g>
            <g>
                <path fill="#BDBDBD" d="M837.688 536.749a2.323 2.323 0 0 1 0 4.644H460.285a2.323 2.323 0 1 1 0-4.644h377.403z"/>
                <path fill="#E0E0E0" d="M472.417 527.61h353.14v-4.589h-353.14zM472.417 518.431h353.14v-4.59h-353.14z"/>
                <path fill="#FF7043" d="M475.485 523.021h347.003v-4.59H475.485z"/>
                <path fill="#212121" d="M475.485 520.726h347.003v-2.295H475.485z"/>
                <path fill="#D32E2E" d="M806.446 536.749v12.393c0 7.906 6.408 14.315 14.315 14.315 7.905 0 14.314-6.409 14.314-14.315V536.75h-28.63z"/>
                <path fill="#E0E0E0" d="M777.817 536.749v12.393c0 7.906 6.409 14.315 14.314 14.315 7.906 0 14.315-6.409 14.315-14.315V536.75h-28.63z"/>
                <path fill="#D32E2E" d="M749.188 536.749v12.393c0 7.906 6.408 14.315 14.315 14.315 7.905 0 14.314-6.409 14.314-14.315V536.75h-28.629z"/>
                <path fill="#E0E0E0" d="M720.559 536.749v12.393c0 7.906 6.409 14.315 14.314 14.315 7.906 0 14.315-6.409 14.315-14.315V536.75h-28.63z"/>
                <path fill="#D32E2E" d="M691.93 536.749v12.393c0 7.906 6.408 14.315 14.315 14.315 7.905 0 14.314-6.409 14.314-14.315V536.75H691.93z"/>
                <path fill="#E0E0E0" d="M663.3 536.749v12.393c0 7.906 6.41 14.315 14.315 14.315 7.906 0 14.315-6.409 14.315-14.315V536.75H663.3z"/>
                <path fill="#D32E2E" d="M634.672 536.749v12.393c0 7.906 6.409 14.315 14.314 14.315 7.906 0 14.315-6.409 14.315-14.315V536.75h-28.63z"/>
                <path fill="#E0E0E0" d="M606.043 536.749v12.393c0 7.906 6.409 14.315 14.314 14.315 7.906 0 14.315-6.409 14.315-14.315V536.75h-28.63z"/>
                <path fill="#D32E2E" d="M577.414 536.749v12.393c0 7.906 6.409 14.315 14.314 14.315 7.906 0 14.315-6.409 14.315-14.315V536.75h-28.63z"/>
                <path fill="#E0E0E0" d="M548.785 536.749v12.393c0 7.906 6.409 14.315 14.314 14.315 7.906 0 14.315-6.409 14.315-14.315V536.75h-28.63z"/>
                <path fill="#D32E2E" d="M520.156 536.749v12.393c0 7.906 6.408 14.315 14.314 14.315s14.315-6.409 14.315-14.315V536.75h-28.63z"/>
                <path fill="#E0E0E0" d="M491.527 536.749v12.393c0 7.906 6.408 14.315 14.314 14.315s14.315-6.409 14.315-14.315V536.75h-28.63z"/>
                <path fill="#D32E2E" d="M462.898 536.749v12.393c0 7.906 6.408 14.315 14.314 14.315s14.315-6.409 14.315-14.315V536.75h-28.63zM499.581 527.61l-8.054 9.139h-28.63l9.52-9.138"/>
                <path fill="#FAFBFB" d="M526.746 527.61l-6.59 9.139h-28.63l8.055-9.138"/>
                <path fill="#D32E2E" d="M553.91 527.61l-5.126 9.139h-28.629l6.59-9.138"/>
                <path fill="#FAFBFB" d="M581.075 527.61l-3.661 9.139h-28.63l5.127-9.138"/>
                <path fill="#D32E2E" d="M608.24 527.61l-2.197 9.139h-28.63l3.662-9.138"/>
                <path fill="#FAFBFB" d="M635.404 527.61l-.732 9.139h-28.63l2.197-9.138"/>
                <path fill="#D32E2E" d="M662.569 527.61l.732 9.139h-28.629l.732-9.138"/>
                <path fill="#FAFBFB" d="M689.733 527.61l2.197 9.139H663.3l-.731-9.138"/>
                <path fill="#D32E2E" d="M716.897 527.61l3.662 9.139H691.93l-2.197-9.138"/>
                <path fill="#FAFBFB" d="M744.062 527.61l5.126 9.139h-28.63l-3.66-9.138"/>
                <path fill="#D32E2E" d="M771.227 527.61l6.59 9.139h-28.629l-5.125-9.138"/>
                <path fill="#FAFBFB" d="M798.391 527.61l8.055 9.139h-28.63l-6.589-9.138"/>
                <path fill="#D32E2E" d="M825.556 527.61l9.519 9.139h-28.63l-8.054-9.138"/>
            </g>
            <text font-family="HelveticaNeue-Bold, Helvetica Neue" font-size="18" font-weight="bold" transform="translate(442.856 457.856)">
                <tspan x="85" y="33" fill="#FFF">  </tspan>
            </text>
        </g>
        <g mask="url(#c)">
            <g fill="#FFF">
                <path d="M378.952 623.27a7.473 7.473 0 0 1 1.773-8.65 7.471 7.471 0 1 0 5.941 12.95 7.472 7.472 0 0 1-7.714-4.3"/>
                <path d="M409.44 632.451c0 8.864-7.186 16.05-16.05 16.05-8.863 0-16.048-7.186-16.048-16.05s7.185-16.049 16.049-16.049c8.863 0 16.049 7.185 16.049 16.049M384.133 654.36a3.396 3.396 0 1 1-6.791-.001 3.396 3.396 0 0 1 6.791 0"/>
            </g>
            <path fill="#FFF" d="M391.985 664.837h8.26v-43.554h-8.26zM304.501 664.837h8.26v-43.554h-8.26z"/>
            <path fill="#DF3426" d="M308.88 626.288c0 3.963-3.92 7.176-8.755 7.176-4.836 0-8.757-3.213-8.757-7.176h17.513z"/>
            <path fill="#DFE0E1" d="M326.393 626.288c0 3.963-3.92 7.176-8.755 7.176-4.836 0-8.757-3.213-8.757-7.176h17.512z"/>
            <path fill="#DF3426" d="M343.907 626.288c0 3.963-3.922 7.176-8.756 7.176-4.836 0-8.758-3.213-8.758-7.176h17.514z"/>
            <path fill="#DFE0E1" d="M361.42 626.288c0 3.963-3.922 7.176-8.756 7.176-4.836 0-8.758-3.213-8.758-7.176h17.513z"/>
            <path fill="#DF3426" d="M378.932 626.288c0 3.963-3.921 7.176-8.755 7.176-4.837 0-8.758-3.213-8.758-7.176h17.513z"/>
            <path fill="#DFE0E1" d="M396.445 626.288c0 3.963-3.922 7.176-8.756 7.176-4.836 0-8.757-3.213-8.757-7.176h17.513z"/>
            <path fill="#DF3426" d="M413.957 626.288c0 3.963-3.92 7.176-8.755 7.176-4.836 0-8.757-3.213-8.757-7.176h17.512z"/>
            <path fill="#E15125" d="M308.88 626.288l12.38-19.989h-16.257l-13.635 19.989z"/>
            <path fill="#FFF" d="M326.393 626.288l7.355-19.989H321.26l-12.38 19.989z"/>
            <path fill="#E15125" d="M343.907 626.288l2.222-19.989h-12.381l-7.355 19.989zM396.445 626.288l-12.38-19.989h16.257l13.636 19.989z"/>
            <path fill="#FFF" d="M378.932 626.288l-7.354-19.989h12.488l12.379 19.989z"/>
            <path fill="#E15125" d="M361.42 626.288l-2.223-19.989h12.38l7.355 19.989z"/>
            <path fill="#FFF" d="M346.129 606.299l-2.222 19.989h17.512l-2.222-19.989z"/>
            <path fill="#DF3426" d="M401.86 605.95v.697h-98.397v-.696M298.119 688.867h108.884V660.33H298.12z"/>
            <path fill="#F4BE26" d="M306.003 684.361h93.116v-19.524h-93.116z"/>
            <path stroke="#F4BE26" d="M301.685 687.177h101.376v-25.156H301.685z"/>
            <path fill="#231F20" d="M397.887 697.58l-8.491-11.687 12.512 7.224a15.65 15.65 0 0 1-4.021 4.463zm-8.883-11.403l8.494 11.694a15.495 15.495 0 0 1-5.49 2.443l-3.004-14.137zm-3.482 14.244l3.008-14.144 3.005 14.145c-.974.19-1.976.296-3.005.296-1.03 0-2.034-.106-3.008-.297zm2.534-14.244l-3.007 14.137a15.52 15.52 0 0 1-5.489-2.444l8.496-11.693zm-12.905 6.939l12.512-7.223-8.491 11.686a15.632 15.632 0 0 1-4.02-4.463zm12.27-7.644l-12.522 7.23a15.502 15.502 0 0 1-1.852-5.719l14.374-1.51zm-13.807-4.95l13.756 4.469-14.375 1.51c-.04-.459-.07-.92-.07-1.389 0-1.597.242-3.14.689-4.59zm3.168-5.66l10.738 9.666-13.745-4.464a15.567 15.567 0 0 1 3.007-5.202zm5.185-3.893l5.877 13.2-10.736-9.666a15.59 15.59 0 0 1 4.86-3.534zm17.985 3.533l-10.736 9.666 5.877-13.2a15.623 15.623 0 0 1 4.859 3.534zm3.333 5.562l-13.746 4.465 10.738-9.667a15.558 15.558 0 0 1 3.008 5.202zm.727 6.92a15.493 15.493 0 0 1-1.852 5.719l-12.522-7.23 14.374 1.511zm-15.725-3.013l-5.883-13.213a15.547 15.547 0 0 1 5.883-1.239v14.452zm.485-14.452a15.55 15.55 0 0 1 5.883 1.238l-5.883 13.214V669.52zm15.294 16.983l-14.377-1.511 13.758-4.47c.446 1.452.689 2.994.689 4.591 0 .47-.03.931-.07 1.39zm-15.536-19.259c-9.87 0-17.87 8-17.87 17.87 0 9.869 8 17.868 17.87 17.868 9.87 0 17.87-8 17.87-17.869 0-9.87-8-17.869-17.87-17.869z"/>
            <path fill="#231F20" d="M389.582 685.112a1.052 1.052 0 1 1-2.105 0 1.052 1.052 0 0 1 2.105 0"/>
            <path fill="#FFF" d="M389.582 685.112a1.052 1.052 0 1 1-2.105 0 1.052 1.052 0 0 1 2.105 0"/>
            <path fill="#231F20" d="M389.212 685.112a.681.681 0 1 1-1.363 0 .681.681 0 0 1 1.363 0M325.948 697.58l-8.49-11.687 12.511 7.224a15.65 15.65 0 0 1-4.021 4.463zm-8.883-11.403l8.494 11.694a15.495 15.495 0 0 1-5.49 2.443l-3.004-14.137zm-3.481 14.244l3.007-14.144 3.006 14.145c-.975.19-1.977.296-3.006.296-1.03 0-2.033-.106-3.007-.297zm2.533-14.244l-3.006 14.137a15.52 15.52 0 0 1-5.49-2.444l8.496-11.693zm-12.904 6.939l12.511-7.223-8.49 11.686a15.632 15.632 0 0 1-4.021-4.463zm12.27-7.644l-12.522 7.23a15.502 15.502 0 0 1-1.853-5.719l14.375-1.51zm-13.808-4.95l13.756 4.469-14.375 1.51c-.04-.459-.07-.92-.07-1.389 0-1.597.243-3.14.69-4.59zm3.169-5.66l10.737 9.666-13.744-4.464a15.567 15.567 0 0 1 3.007-5.202zm5.185-3.893l5.876 13.2-10.736-9.666a15.59 15.59 0 0 1 4.86-3.534zm17.984 3.533l-10.736 9.666 5.877-13.2a15.623 15.623 0 0 1 4.86 3.534zm3.333 5.562l-13.745 4.465 10.738-9.667a15.558 15.558 0 0 1 3.007 5.202zm.728 6.92a15.493 15.493 0 0 1-1.852 5.719l-12.523-7.23 14.375 1.511zm-15.726-3.013l-5.883-13.213a15.547 15.547 0 0 1 5.883-1.239v14.452zm.486-14.452a15.55 15.55 0 0 1 5.882 1.238l-5.882 13.214V669.52zm15.293 16.983l-14.376-1.511 13.757-4.47c.446 1.452.69 2.994.69 4.591 0 .47-.03.931-.071 1.39zm-15.536-19.259c-9.869 0-17.869 8-17.869 17.87 0 9.869 8 17.868 17.869 17.868 9.87 0 17.87-8 17.87-17.869 0-9.87-8-17.869-17.87-17.869z"/>
            <path fill="#231F20" d="M317.643 685.112a1.052 1.052 0 1 1-2.105 0 1.052 1.052 0 0 1 2.105 0"/>
            <path fill="#FFF" d="M317.643 685.112a1.052 1.052 0 1 1-2.105 0 1.052 1.052 0 0 1 2.105 0"/>
            <path fill="#231F20" d="M317.273 685.112a.681.681 0 1 1-1.362 0 .681.681 0 0 1 1.362 0"/>
            <path fill="#ADAFB1" d="M371.71 660.331h18.773v-17.27H371.71z"/>
            <path fill="#939597" d="M382.974 643.06h6.758v-5.256h-6.758z"/>
            <path fill="#FFF" d="M366.829 660.331h4.88v-12.014h-4.88z"/>
            <path fill="#ADAFB1" d="M319.145 660.331h28.91v-6.007h-28.91z"/>
            <path fill="#FFF" d="M318.77 654.324h29.285V638.93H318.77z"/>
            <path fill="#DF3426" d="M357.18 650.921a1.453 1.453 0 0 0-1.178-1.08l-.123-1.58h-.218l-.123 1.58a1.453 1.453 0 0 0-1.178 1.08h-.634v.706h.524v8.76h3.04v-8.76h.524v-.706h-.634z"/>
            <path fill="#FFF" d="M356.747 655.319c0 .899-.437 1.629-.977 1.629s-.977-.73-.977-1.63c0-.898.438-1.628.977-1.628.54 0 .977.73.977 1.629"/>
            <path fill="#FCB614" d="M363.813 657.373c0-.933-.346-1.755-.879-2.307h.508v-.706h-.635c-.14-.56-.6-.989-1.177-1.081l-.124-1.579h-.217l-.124 1.579a1.453 1.453 0 0 0-1.177 1.081h-.635v.706h.508c-.533.552-.88 1.374-.88 2.307 0 1.665-.135 3.013 2.416 3.013 2.552 0 2.416-1.348 2.416-3.013"/>
            <path fill="#DF3426" d="M362.918 657.672c0 .9-.681 1.629-1.52 1.629-.84 0-1.52-.73-1.52-1.629 0-.9.68-1.629 1.52-1.629.839 0 1.52.729 1.52 1.629"/>
        </g>
        <path fill="#FFF" d="M685.644 491.118c.017.118.025.215.025.29 0 .076-.093.148-.278.215a9.176 9.176 0 0 1-1.874.354c-.624.05-1.156.075-1.594.075-1.452 0-2.49-.307-3.114-.921-.624-.615-.936-1.52-.936-2.715v-7.197H676.1c-.186 0-.304-.046-.355-.139a.702.702 0 0 1-.076-.34v-1.364c0-.169.021-.282.064-.341.042-.06.156-.114.341-.164l1.874-.43.177-2.373c.017-.202.071-.346.164-.43.093-.084.232-.151.418-.202l2.329-.757c.152-.034.274-.017.367.05.093.068.139.202.139.404v3.384h2.784c.186 0 .3.038.342.114a.654.654 0 0 1 .063.315v1.793c0 .169-.016.29-.05.366-.034.076-.152.114-.355.114h-2.784v6.414c0 .488.122.825.367 1.01.245.185.612.278 1.101.278.118 0 .262-.008.43-.025a110.983 110.983 0 0 1 1.038-.101c.17-.017.312-.034.43-.05.27-.051.414.033.43.252l.305 2.121zm13.608-.985c0 .22-.03.404-.089.556-.059.151-.206.294-.443.43a7.11 7.11 0 0 1-1.253.454c-.447.117-.902.21-1.366.277a19.364 19.364 0 0 1-2.747.202c-1.147 0-2.097-.109-2.848-.328-.75-.219-1.354-.518-1.81-.896a3.095 3.095 0 0 1-.961-1.339 4.829 4.829 0 0 1-.279-1.654c0-.656.11-1.258.33-1.805.219-.547.548-1.023.986-1.427.44-.404.992-.72 1.658-.947.667-.227 1.456-.341 2.367-.341h2.785v-.404c0-.236-.026-.463-.076-.682a1.156 1.156 0 0 0-.317-.568c-.16-.16-.384-.29-.67-.391-.287-.101-.667-.152-1.14-.152-.253 0-.54.013-.86.038-.32.025-.642.059-.962.1-.32.043-.633.094-.937.152a9.76 9.76 0 0 0-.81.19c-.22.05-.371.05-.455 0-.085-.05-.144-.16-.178-.328l-.405-1.768c-.05-.185-.054-.316-.012-.392.042-.075.13-.138.266-.189.759-.27 1.556-.463 2.392-.58a17.829 17.829 0 0 1 2.493-.177c1.84 0 3.19.39 4.05 1.174.86.783 1.291 1.94 1.291 3.472v7.323zm-3.61-4.368h-2c-.235 0-.489.016-.759.05s-.518.114-.746.24a1.592 1.592 0 0 0-.57.543c-.152.236-.228.555-.228.96 0 .589.199 1.001.595 1.237.397.236.933.353 1.608.353a6.897 6.897 0 0 0 .95-.063c.193-.025.391-.059.594-.1a3.33 3.33 0 0 0 .557-.165v-3.055zm9.857 10.732c0 .185-.03.303-.088.353-.06.05-.207.076-.443.076h-2.633c-.186 0-.32-.025-.405-.076-.084-.05-.127-.168-.127-.353v-16.465c0-.185.03-.332.09-.442.058-.11.197-.223.417-.34.81-.371 1.717-.632 2.72-.783a19.276 19.276 0 0 1 2.874-.228c1.198 0 2.206.181 3.025.543.818.362 1.476.85 1.974 1.465.498.614.857 1.342 1.076 2.184.22.842.33 1.743.33 2.702 0 .943-.119 1.831-.355 2.664a6.253 6.253 0 0 1-1.089 2.185 5.194 5.194 0 0 1-1.86 1.477c-.751.362-1.633.543-2.645.543-.507 0-.975-.021-1.405-.063-.43-.042-.916-.122-1.456-.24v4.798zm4.962-11.44c0-.69-.068-1.27-.203-1.742-.135-.471-.333-.85-.595-1.136a2.136 2.136 0 0 0-.962-.606 4.304 4.304 0 0 0-1.278-.177 7.32 7.32 0 0 0-.924.076c-.38.05-.713.117-1 .202v6.894c.439.117.831.193 1.177.227.346.033.654.05.924.05.844 0 1.532-.286 2.063-.858.532-.573.798-1.55.798-2.93zm11.137 4.748c0 .64-.223 1.178-.67 1.616-.448.438-1 .657-1.659.657-.32 0-.624-.06-.91-.177a2.368 2.368 0 0 1-.748-.48 2.313 2.313 0 0 1-.506-.72 2.136 2.136 0 0 1-.19-.896c0-.32.064-.619.19-.897.127-.277.296-.517.506-.72.211-.201.46-.361.747-.479s.59-.177.911-.177c.659 0 1.211.219 1.658.657.448.437.671.976.671 1.616zm14.327.328c0 .22-.03.404-.088.556-.06.151-.207.294-.443.43a7.11 7.11 0 0 1-1.253.454c-.447.117-.903.21-1.367.277a19.364 19.364 0 0 1-2.747.202c-1.147 0-2.096-.109-2.847-.328-.751-.219-1.354-.518-1.81-.896a3.095 3.095 0 0 1-.962-1.339 4.829 4.829 0 0 1-.278-1.654c0-.656.11-1.258.329-1.805.219-.547.548-1.023.987-1.427.439-.404.991-.72 1.658-.947.666-.227 1.455-.341 2.367-.341h2.784v-.404c0-.236-.025-.463-.076-.682a1.156 1.156 0 0 0-.316-.568c-.16-.16-.384-.29-.671-.391-.287-.101-.667-.152-1.14-.152-.252 0-.54.013-.86.038-.32.025-.641.059-.962.1-.32.043-.633.094-.936.152a9.76 9.76 0 0 0-.81.19c-.22.05-.372.05-.456 0-.084-.05-.143-.16-.177-.328l-.405-1.768c-.05-.185-.055-.316-.013-.392.042-.075.131-.138.266-.189.76-.27 1.557-.463 2.392-.58a17.829 17.829 0 0 1 2.493-.177c1.84 0 3.19.39 4.05 1.174.861.783 1.291 1.94 1.291 3.472v7.323zm-3.695-4.368h-2c-.236 0-.49.016-.76.05s-.518.114-.746.24a1.592 1.592 0 0 0-.57.543c-.152.236-.227.555-.227.96 0 .589.198 1.001.594 1.237.397.236.933.353 1.608.353a6.897 6.897 0 0 0 .95-.063c.193-.025.391-.059.594-.1a3.33 3.33 0 0 0 .557-.165v-3.055zm17.314-5.354c0 .253-.038.5-.114.745a1.983 1.983 0 0 1-.392.694l-6.076 6.819.051.126h6.176c.186 0 .313.03.38.088.068.06.101.181.101.366v2.046c0 .185-.03.311-.088.379-.06.067-.182.1-.367.1h-9.847c-.422 0-.73-.096-.924-.29-.194-.193-.291-.459-.291-.795v-.758c0-.252.038-.505.114-.757.076-.253.24-.522.493-.808l6.05-6.819-.05-.1h-5.519c-.202 0-.329-.034-.38-.102-.05-.067-.075-.193-.075-.378v-1.97c0-.32.16-.48.48-.48h9.012c.422 0 .738.063.95.19.21.126.316.4.316.82v.884z" mask="url(#c)"/>
    </g>
</svg>
