<svg xmlns="http://www.w3.org/2000/svg" width="1300" height="228" viewBox="0 0 1300 228">
    <g fill="none" fill-rule="evenodd" opacity=".4">
        <path fill="#E1F4F9" d="M1070.716 217.447h73.622V66.942h-73.622z"/>
        <path fill="#FFF" d="M1228.003 215.767h98.734V27.297h-98.734z"/>
        <path fill="#E1F4F9" d="M1226.323 217.445h102.094V25.615h-102.094v191.83zm3.36-3.36h95.373V28.979h-95.372v185.106z"/>
        <path fill="#E1F4F9" d="M1288.765 60.142h8.799V43.148h-8.8zM1272.972 60.142h8.798V43.148h-8.798zM1257.18 60.142h8.798V43.148h-8.798zM1241.388 60.142h8.793V43.148h-8.793zM1288.765 88.365h8.799V71.37h-8.8zM1272.972 88.365h8.798V71.37h-8.798zM1257.18 88.365h8.798V71.37h-8.798zM1241.388 88.365h8.793V71.37h-8.793zM1288.765 116.585h8.799V99.593h-8.8zM1272.972 116.585h8.798V99.593h-8.798zM1257.18 116.585h8.798V99.593h-8.798zM1241.388 116.585h8.793V99.593h-8.793zM1288.765 144.81h8.799v-16.994h-8.8zM1272.972 144.81h8.798v-16.994h-8.798zM1257.18 144.81h8.798v-16.994h-8.798zM1241.388 144.81h8.793v-16.994h-8.793zM1288.765 173.03h8.799v-16.995h-8.8zM1272.972 173.03h8.798v-16.995h-8.798zM1257.18 173.03h8.798v-16.995h-8.798zM1241.388 173.03h8.793v-16.995h-8.793zM1288.765 201.252h8.799v-16.994h-8.8zM1272.972 201.252h8.798v-16.994h-8.798z"/>
        <path fill="#000" d="M1257.18 201.252h8.798v-16.994h-8.798zM1241.388 201.252h8.793v-16.994h-8.793z"/>
        <path fill="#FFF" d="M1148.843 215.765h57.756V69.275h-57.756z"/>
        <path fill="#E1F4F9" d="M1147.163 217.447h61.116V67.596h-61.116v149.85zm3.36-3.362h54.394V70.958h-54.394v143.127z"/>
        <path fill="#E1F4F9" d="M1193.995 94.564h5.267V81.29h-5.267zM1184.54 94.564h5.265V81.29h-5.265zM1175.088 94.564h5.261V81.29h-5.261zM1165.628 94.564h5.27V81.29h-5.27zM1156.175 94.564h5.267V81.29h-5.267zM1193.995 116.612h5.267v-13.275h-5.267zM1184.54 116.612h5.265v-13.275h-5.265zM1175.088 116.612h5.261v-13.275h-5.261zM1165.628 116.612h5.27v-13.275h-5.27zM1156.175 116.612h5.267v-13.275h-5.267zM1193.995 138.657h5.267v-13.273h-5.267zM1184.54 138.657h5.265v-13.273h-5.265zM1175.088 138.657h5.261v-13.273h-5.261zM1165.628 138.657h5.27v-13.273h-5.27zM1156.175 138.657h5.267v-13.273h-5.267zM1193.995 160.705h5.267V147.43h-5.267zM1184.54 160.705h5.265V147.43h-5.265zM1175.088 160.705h5.261V147.43h-5.261zM1165.628 160.705h5.27V147.43h-5.27zM1156.175 160.705h5.267V147.43h-5.267zM1193.995 182.748h5.267v-13.274h-5.267zM1184.54 182.748h5.265v-13.274h-5.265zM1175.088 182.748h5.261v-13.274h-5.261zM1165.628 182.748h5.27v-13.274h-5.27zM1156.175 182.748h5.267v-13.274h-5.267zM1193.995 204.795h5.267v-13.273h-5.267zM1184.54 204.795h5.265v-13.273h-5.265zM1175.088 204.795h5.261v-13.273h-5.261zM1165.628 204.795h5.27v-13.273h-5.27zM1156.175 204.795h5.267v-13.273h-5.267z"/>
        <path fill="#FFF" d="M1148.843 215.765h125.036V106.877h-125.036z"/>
        <path fill="#E1F4F9" d="M1147.161 217.445h128.398v-112.25H1147.16v112.25zm3.362-3.36h121.674V108.558h-121.674v105.527z"/>
        <path fill="#E1F4F9" d="M1245.556 138.794h11.063v-16.992h-11.063zM1225.693 138.794h11.066v-16.992h-11.066zM1205.828 138.794h11.066v-16.992h-11.066zM1185.966 138.794h11.066v-16.992h-11.066zM1166.101 138.794h11.066v-16.992H1166.1zM1245.556 165.025h11.063V148.03h-11.063zM1225.693 165.025h11.066V148.03h-11.066zM1205.828 165.025h11.066V148.03h-11.066zM1185.966 165.025h11.066V148.03h-11.066zM1166.101 165.025h11.066V148.03H1166.1zM1245.556 191.252h11.063V174.26h-11.063zM1225.693 191.252h11.066V174.26h-11.066zM1205.828 191.252h11.066V174.26h-11.066zM1185.966 191.252h11.066V174.26h-11.066zM1166.101 191.252h11.066V174.26H1166.1zM1279.019 243.094h63.104V26.22h-63.104z"/>
        <path fill="#FFF" d="M1285.63 45.13h30.176v-6.952h-30.176zM1285.63 55.441h13.719v-6.95h-13.719zM1285.63 65.753h13.719v-6.952h-13.719zM1297.294 127.62v-6.951H1335.511v6.95h-33.075zM1285.632 137.93h13.581v-6.947h-13.581zM1299.212 151.6v6.956h-13.581v-6.955h13.495zM1302.134 89.735h13.672v6.949H1285.63v-6.95h13.496zM1299.35 100.046v6.95h-13.719v-6.95h13.494zM1299.35 110.356v6.955h-13.719v-6.955h13.494zM1285.63 148.246h13.496v-6.956h-13.496zM1285.63 168.864h13.496v-6.947h-13.496zM1297.295 179.175h38.217v-6.948h-38.217zM1285.632 189.49h13.581v-6.954h-13.581zM1285.632 210.108h13.581v-6.947h-13.581zM1125.618 89.81h6.627V79.107h-6.627zM1114.917 89.81h6.625V79.107h-6.625zM1104.217 89.81h6.625V79.107h-6.625zM1093.513 89.81h6.626V79.107h-6.626zM1082.808 89.81h6.627V79.107h-6.627zM1125.618 109.688h6.627V98.985h-6.627zM1114.917 109.688h6.625V98.985h-6.625zM1104.217 109.688h6.625V98.985h-6.625zM1093.513 109.688h6.626V98.985h-6.626zM1082.808 109.688h6.627V98.985h-6.627zM1125.618 129.564h6.627v-10.703h-6.627zM1114.917 129.564h6.625v-10.703h-6.625zM1104.217 129.564h6.625v-10.703h-6.625zM1093.513 129.564h6.626v-10.703h-6.626zM1082.808 129.564h6.627v-10.703h-6.627zM1125.618 149.442h6.627v-10.703h-6.627zM1114.917 149.442h6.625v-10.703h-6.625zM1104.217 149.442h6.625v-10.703h-6.625zM1093.513 149.442h6.626v-10.703h-6.626zM1082.808 149.442h6.627v-10.703h-6.627zM1125.618 169.318h6.627v-10.703h-6.627zM1114.917 169.318h6.625v-10.703h-6.625zM1104.217 169.318h6.625v-10.703h-6.625zM1093.513 169.318h6.626v-10.703h-6.626zM1082.808 169.318h6.627v-10.703h-6.627zM1125.618 189.197h6.627v-10.705h-6.627zM1114.917 189.197h6.625v-10.705h-6.625zM1104.217 189.197h6.625v-10.705h-6.625zM1093.513 189.197h6.626v-10.705h-6.626zM1082.808 189.197h6.627v-10.705h-6.627zM1125.618 209.073h6.627V198.37h-6.627zM1114.917 209.073h6.625V198.37h-6.625zM1104.217 209.073h6.625V198.37h-6.625zM1093.513 209.073h6.626V198.37h-6.626zM1082.808 209.073h6.627V198.37h-6.627z"/>
        <path fill="#E1F4F9" d="M997.094 217.447h73.622v-90.305h-73.622z"/>
        <path fill="#FFF" d="M1051.997 209.073h6.627V198.37h-6.627zM1041.294 209.073h6.626V198.37h-6.626zM1030.59 209.073h6.627V198.37h-6.626zM1019.89 209.073h6.627V198.37h-6.626zM1009.19 209.073h6.626V198.37h-6.625zM1051.997 149.442h6.627v-10.703h-6.627zM1041.294 149.442h6.626v-10.703h-6.626zM1030.59 149.442h6.627v-10.703h-6.626zM1019.89 149.442h6.627v-10.703h-6.626zM1009.19 149.442h6.626v-10.703h-6.625zM1051.997 169.318h6.627v-10.703h-6.627zM1041.294 169.318h6.626v-10.703h-6.626zM1030.59 169.318h6.627v-10.703h-6.626zM1019.89 169.318h6.627v-10.703h-6.626zM1009.19 169.318h6.626v-10.703h-6.625zM1051.997 189.197h6.627v-10.705h-6.627zM1041.294 189.197h6.626v-10.705h-6.626zM1030.59 189.197h6.627v-10.705h-6.626zM1019.89 189.197h6.627v-10.705h-6.626zM1009.19 189.197h6.626v-10.705h-6.625z"/>
        <path fill="#E1F4F9" d="M496.544 217.447h63.105V.57h-63.105z"/>
        <path fill="#FFF" d="M503.156 19.483h30.175V12.53h-30.175zM539.667 19.483h13.369V12.53h-13.369zM539.667 29.793h13.369v-6.95h-13.369zM519.96 29.793h7.553v-6.95h-7.553zM503.156 29.793h13.718v-6.95h-13.718zM503.156 40.106h13.718v-6.952h-13.718zM519.96 40.106h3.494v-6.952h-3.494zM525.07 40.106h3.494v-6.952h-3.494zM530.18 40.106h3.492v-6.952h-3.493zM539.667 40.106h13.369v-6.952h-13.369zM519.96 50.415h33.076v-6.95H519.96zM530.18 60.727h22.857v-6.952H530.18zM519.659 81.349v-6.95h7.854v6.95h-7.553zM533.671 91.663h-3.742v-6.956h23.108v6.956h-13.369zM514.82 101.972v-6.95h38.217v6.95H519.96zM519.58 112.282h6.684v-6.947h-6.684zM503.157 112.282h13.581v-6.947h-13.58zM516.738 125.953v6.955H503.156v-6.955h13.495zM526.344 122.598H519.659v-6.955h33.379v6.955h-13.37zM519.98 143.216v-6.947h33.057v6.947H529.93zM519.659 64.087h13.672v6.95H503.156v-6.95h13.496zM539.667 71.036h13.369v-6.949h-13.369zM539.667 81.349h13.369v-6.95h-13.369zM516.875 74.398v6.95h-13.719v-6.95h13.495zM516.875 84.708v6.955h-13.719v-6.955h13.495zM519.96 91.663h3.494v-6.956h-3.494zM525.07 91.663h3.494v-6.956h-3.494zM543.509 112.282h-13.58v-6.948H553.036v6.948h-6.684zM503.156 122.598h13.496v-6.955h-13.496zM526.265 125.953h.079v6.955h-6.764v-6.955h.08zM503.156 143.216h13.496v-6.947h-13.496zM543.509 132.908H529.929v-6.956H553.036v6.956h-6.684zM514.82 153.527h38.217v-6.947H514.82zM546.353 163.843h6.684v-6.954h-6.684zM529.93 163.843h13.58v-6.954h-13.58zM519.58 163.843h6.684v-6.954h-6.684zM503.157 163.843h13.581v-6.954h-13.58zM546.353 184.462h6.684v-6.947h-6.684zM529.93 184.462h13.58v-6.947h-13.58zM519.58 184.46h6.684v-6.947h-6.684zM503.157 184.46h13.581v-6.947h-13.58zM519.98 174.152h33.057v-6.954H519.98zM519.98 194.772h33.057v-6.948H519.98z"/>
        <path fill="#E1F4F9" d="M559.649 217.447h48.233v-97.554h-48.233z"/>
        <path fill="#FFF" d="M584.709 136.52h3.566v-7.053h-3.566zM577.98 136.52h3.567v-7.053h-3.567zM571.252 136.52h3.567v-7.053h-3.567zM564.528 136.52h3.567v-7.053h-3.567zM584.709 156.534h3.566v-7.053h-3.566zM577.98 156.534h3.567v-7.053h-3.567zM571.252 156.534h3.567v-7.053h-3.567zM564.528 156.534h3.567v-7.053h-3.567zM584.709 176.549h3.566v-7.053h-3.566zM577.98 176.549h3.567v-7.053h-3.567zM571.252 176.549h3.567v-7.053h-3.567zM564.528 176.549h3.567v-7.053h-3.567z"/>
        <path fill="#E1F4F9" d="M292.763 217.447h128.403V60.144H292.763z"/>
        <path fill="#FFF" d="M309.592 88.904h62.016V74.583h-62.016zM309.592 114.875h62.016v-14.322h-62.016zM309.592 140.846h62.016v-14.322h-62.016zM309.592 166.817h62.016v-14.322h-62.016zM309.592 192.787h62.016v-14.322h-62.016z"/>
        <path fill="#FFF" d="M367.682 215.767H492.72V27.297H367.682z"/>
        <path fill="#E1F4F9" d="M366.002 217.445h128.4V25.615h-128.4v191.83zm3.362-3.36h121.675V28.979H369.364v185.106z"/>
        <path fill="#E1F4F9" d="M384.94 60.142h11.064V43.148H384.94zM404.803 60.142h11.068V43.148h-11.068zM424.668 60.142h11.064V43.148h-11.064zM444.53 60.142h11.066V43.148H444.53zM464.397 60.142h11.062V43.148h-11.062zM384.94 88.365h11.064V71.37H384.94zM404.803 88.365h11.068V71.37h-11.068zM424.668 88.365h11.064V71.37h-11.064zM444.53 88.365h11.066V71.37H444.53zM464.397 88.365h11.062V71.37h-11.062zM384.94 116.585h11.064V99.593H384.94zM404.803 116.585h11.068V99.593h-11.068zM424.668 116.585h11.064V99.593h-11.064zM444.53 116.585h11.066V99.593H444.53zM464.397 116.585h11.062V99.593h-11.062zM384.94 144.81h11.064v-16.994H384.94zM404.803 144.81h11.068v-16.994h-11.068zM424.668 144.81h11.064v-16.994h-11.064zM444.53 144.81h11.066v-16.994H444.53zM464.397 144.81h11.062v-16.994h-11.062zM384.94 173.03h11.064v-16.995H384.94zM404.803 173.03h11.068v-16.995h-11.068zM424.668 173.03h11.064v-16.995h-11.064zM444.53 173.03h11.066v-16.995H444.53zM464.397 173.03h11.062v-16.995h-11.062zM384.94 201.252h11.064v-16.994H384.94zM404.803 201.252h11.068v-16.994h-11.068zM424.668 201.252h11.064v-16.994h-11.064zM444.53 201.252h11.066v-16.994H444.53zM464.397 201.252h11.062v-16.994h-11.062z"/>
        <path fill="#FFF" d="M328.103 215.765H453.14V106.877H328.103z"/>
        <path fill="#E1F4F9" d="M326.422 217.445h128.397v-112.25H326.422v112.25zm3.363-3.36h121.672V108.558H329.785v105.527z"/>
        <path fill="#E1F4F9" d="M345.361 138.794h11.064v-16.992h-11.064zM365.225 138.794h11.064v-16.992h-11.064zM385.09 138.794h11.06v-16.992h-11.06zM404.953 138.794h11.064v-16.992h-11.064zM424.818 138.794h11.061v-16.992h-11.061zM345.361 165.025h11.064V148.03h-11.064zM365.225 165.025h11.064V148.03h-11.064zM385.09 165.025h11.06V148.03h-11.06zM404.953 165.025h11.064V148.03h-11.064zM424.818 165.025h11.061V148.03h-11.061zM345.361 191.252h11.064V174.26h-11.064zM365.225 191.252h11.064V174.26h-11.064zM385.09 191.252h11.06V174.26h-11.06zM404.953 191.252h11.064V174.26h-11.064zM424.818 191.252h11.061V174.26h-11.061z"/>
        <path fill="#FFF" d="M691.562 215.767h98.734V27.297h-98.734z"/>
        <path fill="#E1F4F9" d="M689.882 217.445h102.094V25.615H689.882v191.83zm3.36-3.36h95.372V28.979h-95.372v185.106z"/>
        <path fill="#E1F4F9" d="M768.12 60.142h8.795V43.148h-8.794zM752.324 60.142h8.799V43.148h-8.8zM736.531 60.142h8.798V43.148h-8.798zM720.739 60.142h8.798V43.148h-8.798zM704.946 60.142h8.793V43.148h-8.793zM768.12 88.365h8.795V71.37h-8.794zM752.324 88.365h8.799V71.37h-8.8zM736.531 88.365h8.798V71.37h-8.798zM720.739 88.365h8.798V71.37h-8.798zM704.946 88.365h8.793V71.37h-8.793zM768.12 116.585h8.795V99.593h-8.794zM752.324 116.585h8.799V99.593h-8.8zM736.531 116.585h8.798V99.593h-8.798zM720.739 116.585h8.798V99.593h-8.798zM704.946 116.585h8.793V99.593h-8.793zM768.12 144.81h8.795v-16.994h-8.794zM752.324 144.81h8.799v-16.994h-8.8zM736.531 144.81h8.798v-16.994h-8.798zM720.739 144.81h8.798v-16.994h-8.798zM704.946 144.81h8.793v-16.994h-8.793zM768.12 173.03h8.795v-16.995h-8.794zM752.324 173.03h8.799v-16.995h-8.8zM736.531 173.03h8.798v-16.995h-8.798zM720.739 173.03h8.798v-16.995h-8.798zM704.946 173.03h8.793v-16.995h-8.793zM768.12 201.252h8.795v-16.994h-8.794zM752.324 201.252h8.799v-16.994h-8.8zM736.531 201.252h8.798v-16.994h-8.798z"/>
        <path fill="#000" d="M720.739 201.252h8.798v-16.994h-8.798zM704.946 201.252h8.793v-16.994h-8.793z"/>
        <path fill="#FFF" d="M612.402 215.765h57.756V69.275h-57.756z"/>
        <path fill="#E1F4F9" d="M610.722 217.447h61.116V67.596h-61.116v149.85zm3.36-3.362h54.394V70.958h-54.394v143.127z"/>
        <path fill="#E1F4F9" d="M657.554 94.564h5.267V81.29h-5.267zM648.099 94.564h5.265V81.29H648.1zM638.647 94.564h5.26V81.29h-5.26zM629.187 94.564h5.27V81.29h-5.27zM619.734 94.564H625V81.29h-5.267zM657.554 116.612h5.267v-13.275h-5.267zM648.099 116.612h5.265v-13.275H648.1zM638.647 116.612h5.26v-13.275h-5.26zM629.187 116.612h5.27v-13.275h-5.27zM619.734 116.612H625v-13.275h-5.267zM657.554 138.657h5.267v-13.273h-5.267zM648.099 138.657h5.265v-13.273H648.1zM638.647 138.657h5.26v-13.273h-5.26zM629.187 138.657h5.27v-13.273h-5.27zM619.734 138.657H625v-13.273h-5.267zM657.554 160.705h5.267V147.43h-5.267zM648.099 160.705h5.265V147.43H648.1zM638.647 160.705h5.26V147.43h-5.26zM629.187 160.705h5.27V147.43h-5.27zM619.734 160.705H625V147.43h-5.267zM657.554 182.748h5.267v-13.274h-5.267zM648.099 182.748h5.265v-13.274H648.1zM638.647 182.748h5.26v-13.274h-5.26zM629.187 182.748h5.27v-13.274h-5.27zM619.734 182.748H625v-13.274h-5.267zM657.554 204.795h5.267v-13.273h-5.267zM648.099 204.795h5.265v-13.273H648.1zM638.647 204.795h5.26v-13.273h-5.26zM629.187 204.795h5.27v-13.273h-5.27zM619.734 204.795H625v-13.273h-5.267z"/>
        <path fill="#FFF" d="M612.402 215.765h125.035V106.877H612.402z"/>
        <path fill="#E1F4F9" d="M610.72 217.445h128.398v-112.25H610.72v112.25zm3.362-3.36h121.674V108.558H614.082v105.527z"/>
        <path fill="#E1F4F9" d="M709.115 138.794h11.063v-16.992h-11.063zM689.252 138.794h11.066v-16.992h-11.066zM669.387 138.794h11.066v-16.992h-11.066zM649.525 138.794h11.066v-16.992h-11.066zM629.66 138.794h11.066v-16.992H629.66zM709.115 165.025h11.063V148.03h-11.063zM689.252 165.025h11.066V148.03h-11.066zM669.387 165.025h11.066V148.03h-11.066zM649.525 165.025h11.066V148.03h-11.066zM629.66 165.025h11.066V148.03H629.66zM709.115 191.252h11.063V174.26h-11.063zM689.252 191.252h11.066V174.26h-11.066zM669.387 191.252h11.066V174.26h-11.066zM649.525 191.252h11.066V174.26h-11.066zM629.66 191.252h11.066V174.26H629.66zM833.543 45.304V97.18h14.112v120.266h-49.119V62.115z"/>
        <path fill="#FFF" d="M849.336 215.765V47.3l143.45 24.715v143.751z"/>
        <path fill="#E1F4F9" d="M847.655 45.304v172.142h146.81V70.597l-146.81-25.293zm3.362 3.99L991.106 73.43v140.655H851.017V49.294z"/>
        <path fill="#E1F4F9" d="M953.987 104.002h19.012V84.99h-19.012zM925.702 104.002h19.008V84.99h-19.008zM897.418 104.002h19.003V84.99h-19.003zM869.127 104.002h19.008V84.99h-19.008zM953.987 134.056h19.012v-19.01h-19.012zM925.702 134.056h19.008v-19.01h-19.008zM897.418 134.056h19.003v-19.01h-19.003zM869.127 134.056h19.008v-19.01h-19.008zM953.987 164.112h19.012v-19.01h-19.012zM925.702 164.112h19.008v-19.01h-19.008zM897.418 164.112h19.003v-19.01h-19.003zM869.127 164.112h19.008v-19.01h-19.008zM953.987 194.166h19.012v-19.009h-19.012zM925.702 194.166h19.008v-19.009h-19.008zM897.418 194.166h19.003v-19.009h-19.003zM869.127 194.166h19.008v-19.009h-19.008zM165.816 82.961H282.93v14.57h-5.045v119.916H170.859V97.53h-5.043z"/>
        <path fill="#FFF" d="M241.913 123.241h19.267v-19.266h-19.267zM214.739 123.241h19.266v-19.266h-19.266zM187.562 123.241h19.266v-19.266h-19.266zM241.913 151.989h19.267v-19.266h-19.267zM214.739 151.989h19.266v-19.266h-19.266zM187.562 151.989h19.266v-19.266h-19.266zM241.913 180.735h19.267v-19.266h-19.267zM214.739 180.735h19.266v-19.266h-19.266zM187.562 180.735h19.266v-19.266h-19.266zM241.913 217.447h19.267v-27.232h-19.267zM214.739 217.447h19.266v-27.232h-19.266zM187.562 217.447h19.266v-27.232h-19.266z"/>
        <path fill="#E1F4F9" d="M-61.851 107.938h99.183V63.774H24.348l71.255-40.753 71.262 40.753h-12.984v153.671h-210.69V123.6h-5.042z"/>
        <path fill="#FFF" d="M126.836 94.295h15.538V70.582h-15.538zM100.63 94.295h15.54V70.582h-15.54zM74.426 94.295h15.536V70.582H74.426zM48.219 94.295h15.535V70.582H48.22zM126.836 127.158h15.538v-23.713h-15.538zM100.63 127.158h15.54v-23.713h-15.54zM74.426 127.158h15.536v-23.713H74.426zM48.219 127.158h15.535v-23.713H48.22zM126.836 160.02h15.538v-23.712h-15.538zM100.63 160.02h15.54v-23.712h-15.54zM74.426 160.02h15.536v-23.712H74.426zM48.219 160.02h15.535v-23.712H48.22zM9.14 160.02h15.535v-23.712H9.14zM83.654 216.99h25.87v-40.547h-25.87z"/>
        <path fill="#E1F4F9" d="M-95.626 243.162h1445.187v-25.715H-95.626z"/>
    </g>
</svg>
