<svg xmlns="http://www.w3.org/2000/svg" xmlns:xlink="http://www.w3.org/1999/xlink" width="49" height="80" viewBox="0 0 49 80">
    <defs>
        <radialGradient id="b" cx="0%" cy="3.177%" r="139.193%" fx="0%" fy="3.177%" gradientTransform="matrix(.53369 .51673 -.84568 .3261 .027 .021)">
            <stop offset="0%" stop-color="#4FC3F7"/>
            <stop offset="49.494%" stop-color="#AB5CA4"/>
            <stop offset="100%" stop-color="#FF512F"/>
        </radialGradient>
        <path id="a" d="M.578 51.676c0-12.341 3.993-23.715 11.616-32.064C20.784 10.174 34.457 2.672 44.62.01c1.09 0 1.452 2.783 1.452 3.509-10.164 3.267-28.192 11.01-33.637 32.428 4.235-3.51 10.164-5.445 14.278-5.445 16.94 0 22.142 14.52 22.142 23.231 0 13.552-10.769 25.29-24.562 25.29C9.653 79.022.578 64.743.578 51.675zm10.406-2.178c0 10.89 4.598 25.531 14.278 25.531 7.623 0 13.31-8.107 13.31-18.997 0-10.285-4.357-19.601-15.246-19.601-3.51 0-7.865.484-11.858 4.84-.363 2.54-.484 5.323-.484 8.227z"/>
    </defs>
    <g fill="none" fill-rule="evenodd">
        <mask id="c" fill="#fff">
            <use xlink:href="#a"/>
        </mask>
        <use fill="url(#b)" fill-opacity=".82" xlink:href="#a"/>
        <path fill="#FFF" d="M-15.402-7.901h73.318v97.52h-73.318z" mask="url(#c)" opacity=".4"/>
    </g>
</svg>
