<svg xmlns="http://www.w3.org/2000/svg" width="1267" height="409" viewBox="0 0 1267 409">
    <g fill="none" fill-rule="evenodd" opacity=".7">
        <path fill="#FAFBFB" d="M.783 54.73h1.013a2.69 2.69 0 0 0 2.69-2.689v-.97c0-.422.316-.8.737-.822a.78.78 0 0 1 .821.778v1.014a2.69 2.69 0 0 0 2.69 2.689h1.013a.78.78 0 0 1 0 1.559H8.734a2.69 2.69 0 0 0-2.69 2.69v.969c0 .422-.315.8-.738.822a.78.78 0 0 1-.82-.778v-1.014a2.69 2.69 0 0 0-2.69-2.69H.783a.78.78 0 1 1 0-1.558M159.839 47.109h1.013a2.69 2.69 0 0 0 2.69-2.69v-.969c0-.422.316-.8.737-.822a.78.78 0 0 1 .822.778v1.013a2.69 2.69 0 0 0 2.689 2.69h1.013a.78.78 0 0 1 0 1.558h-1.013a2.69 2.69 0 0 0-2.69 2.69v.97c0 .422-.315.8-.738.822a.78.78 0 0 1-.82-.779v-1.013a2.69 2.69 0 0 0-2.69-2.69h-1.013a.78.78 0 1 1 0-1.558M216.95 95.349h.498c.728 0 1.318-.59 1.318-1.319v-.475c0-.208.156-.393.362-.404a.382.382 0 0 1 .403.382v.497a1.32 1.32 0 0 0 1.319 1.319h.497a.382.382 0 0 1 0 .764h-.497a1.32 1.32 0 0 0-1.319 1.32v.474c0 .208-.155.394-.361.404a.383.383 0 0 1-.404-.382v-.497c0-.728-.59-1.319-1.318-1.319h-.497a.382.382 0 0 1 0-.764M413.392 2.768h.497c.729 0 1.32-.59 1.32-1.32V.974c0-.207.155-.392.36-.403a.382.382 0 0 1 .404.382v.497a1.32 1.32 0 0 0 1.318 1.319h.497a.383.383 0 1 1 0 .764h-.497a1.32 1.32 0 0 0-1.318 1.32v.474c0 .207-.155.393-.362.404a.382.382 0 0 1-.402-.382V4.85a1.32 1.32 0 0 0-1.32-1.319h-.497a.382.382 0 1 1 0-.764M349.902 182.333h1.013a2.69 2.69 0 0 0 2.69-2.69v-.969c0-.422.316-.8.737-.822a.78.78 0 0 1 .821.778v1.013a2.69 2.69 0 0 0 2.69 2.69h1.013a.78.78 0 1 1 0 1.559h-1.013a2.69 2.69 0 0 0-2.69 2.689v.97c0 .422-.316.8-.737.822a.78.78 0 0 1-.821-.778v-1.014a2.69 2.69 0 0 0-2.69-2.69h-1.013a.78.78 0 0 1 0-1.558M109.839 167.109h1.013a2.69 2.69 0 0 0 2.69-2.69v-.969c0-.422.316-.8.737-.822a.78.78 0 0 1 .822.778v1.013a2.69 2.69 0 0 0 2.689 2.69h1.013a.78.78 0 0 1 0 1.558h-1.013a2.69 2.69 0 0 0-2.69 2.69v.97c0 .422-.315.8-.738.822a.78.78 0 0 1-.82-.779v-1.013a2.69 2.69 0 0 0-2.69-2.69h-1.013a.78.78 0 1 1 0-1.558M1.74 180.15h.496c.729 0 1.319-.59 1.319-1.32v-.475c0-.207.155-.392.362-.403a.382.382 0 0 1 .403.382v.497c0 .728.59 1.319 1.318 1.319h.498a.382.382 0 0 1 0 .764h-.498c-.728 0-1.318.59-1.318 1.319v.475c0 .207-.155.393-.362.404a.382.382 0 0 1-.403-.382v-.497c0-.728-.59-1.319-1.319-1.319H1.74a.382.382 0 0 1 0-.764M86.95 285.349h.498c.728 0 1.318-.59 1.318-1.319v-.475c0-.208.156-.393.362-.404a.382.382 0 0 1 .403.382v.497a1.32 1.32 0 0 0 1.319 1.319h.497a.382.382 0 0 1 0 .764h-.497a1.32 1.32 0 0 0-1.319 1.32v.474c0 .208-.155.394-.361.404a.383.383 0 0 1-.404-.382v-.497c0-.728-.59-1.319-1.318-1.319h-.497a.382.382 0 0 1 0-.764M349.605 240.755h.497c.729 0 1.319-.59 1.319-1.32v-.474c0-.207.156-.392.362-.404a.382.382 0 0 1 .403.383v.496c0 .729.59 1.32 1.318 1.32h.497a.383.383 0 1 1 0 .764h-.497c-.728 0-1.318.59-1.318 1.319v.475c0 .207-.156.392-.362.403a.382.382 0 0 1-.403-.381v-.497c0-.729-.59-1.32-1.319-1.32h-.497a.382.382 0 1 1 0-.764M.783 364.73h1.013a2.69 2.69 0 0 0 2.69-2.689v-.97c0-.422.316-.8.737-.822a.78.78 0 0 1 .821.778v1.014a2.69 2.69 0 0 0 2.69 2.689h1.013a.78.78 0 0 1 0 1.559H8.734a2.69 2.69 0 0 0-2.69 2.69v.969c0 .422-.315.8-.738.822a.78.78 0 0 1-.82-.778v-1.014a2.69 2.69 0 0 0-2.69-2.69H.783a.78.78 0 1 1 0-1.558M209.839 327.109h1.013a2.69 2.69 0 0 0 2.69-2.69v-.969c0-.422.316-.8.737-.822a.78.78 0 0 1 .822.778v1.013a2.69 2.69 0 0 0 2.689 2.69h1.013a.78.78 0 0 1 0 1.558h-1.013a2.69 2.69 0 0 0-2.69 2.69v.97c0 .422-.315.8-.738.822a.78.78 0 0 1-.82-.779v-1.013a2.69 2.69 0 0 0-2.69-2.69h-1.013a.78.78 0 1 1 0-1.558M216.95 405.349h.498c.728 0 1.318-.59 1.318-1.319v-.475c0-.208.156-.393.362-.404a.382.382 0 0 1 .403.382v.497a1.32 1.32 0 0 0 1.319 1.319h.497a.382.382 0 0 1 0 .764h-.497a1.32 1.32 0 0 0-1.319 1.32v.474c0 .208-.155.394-.361.404a.383.383 0 0 1-.404-.382v-.497c0-.728-.59-1.319-1.318-1.319h-.497a.382.382 0 0 1 0-.764M403.392 332.768h.497c.729 0 1.32-.59 1.32-1.32v-.475c0-.207.155-.392.36-.403a.382.382 0 0 1 .404.382v.497a1.32 1.32 0 0 0 1.318 1.319h.497a.383.383 0 1 1 0 .764h-.497a1.32 1.32 0 0 0-1.318 1.32v.474c0 .207-.155.393-.362.404a.382.382 0 0 1-.402-.382v-.497a1.32 1.32 0 0 0-1.32-1.319h-.497a.382.382 0 1 1 0-.764M300.716 29.85c18.583 0 33.65 15.065 33.65 33.65h-67.3c0-18.585 15.066-33.65 33.65-33.65"/>
        <path fill="#FAFBFB" d="M250.241 46.674c9.292 0 16.825 7.533 16.825 16.825h-33.65c0-9.292 7.533-16.825 16.825-16.825M65.295 76.674c7.645 0 13.844 6.198 13.844 13.844H51.45c0-7.646 6.197-13.844 13.844-13.844M44.528 83.596c3.823 0 6.922 3.1 6.922 6.922H37.606a6.922 6.922 0 0 1 6.922-6.922"/>
        <g fill="#FAFBFB">
            <path d="M1261.453 102.729h-1.014a2.689 2.689 0 0 1-2.689-2.689v-.97c0-.422-.316-.8-.737-.822a.78.78 0 0 0-.822.778v1.014a2.69 2.69 0 0 1-2.69 2.689h-1.013a.78.78 0 0 0 0 1.559h1.013a2.69 2.69 0 0 1 2.69 2.69v.969c0 .422.316.8.738.822a.78.78 0 0 0 .821-.778v-1.014a2.69 2.69 0 0 1 2.69-2.69h1.013a.78.78 0 1 0 0-1.558M1212.427 17.109h-1.014a2.69 2.69 0 0 1-2.689-2.69v-.969c0-.422-.317-.8-.737-.822a.78.78 0 0 0-.822.778v1.013a2.69 2.69 0 0 1-2.69 2.69h-1.013a.78.78 0 0 0 0 1.558h1.013a2.69 2.69 0 0 1 2.69 2.69v.97c0 .422.316.8.738.822a.78.78 0 0 0 .821-.779v-1.013a2.69 2.69 0 0 1 2.69-2.69h1.013a.78.78 0 1 0 0-1.558M1111.474 84.38h-.496a1.32 1.32 0 0 1-1.32-1.32v-.475c0-.207-.155-.392-.36-.403a.382.382 0 0 0-.404.381v.498a1.32 1.32 0 0 1-1.319 1.318h-.497a.382.382 0 1 0 0 .765h.497c.728 0 1.32.59 1.32 1.319v.475c0 .207.154.393.36.403a.382.382 0 0 0 .403-.381v-.497a1.32 1.32 0 0 1 1.32-1.319h.496a.383.383 0 1 0 0-.765M1231.42 197.109h-1.013a2.69 2.69 0 0 1-2.69-2.69v-.969c0-.422-.316-.8-.737-.822a.78.78 0 0 0-.822.778v1.013a2.69 2.69 0 0 1-2.69 2.69h-1.013a.78.78 0 0 0 0 1.558h1.013a2.69 2.69 0 0 1 2.69 2.69v.97c0 .422.316.8.738.822a.78.78 0 0 0 .821-.779v-1.013a2.69 2.69 0 0 1 2.69-2.69h1.013a.78.78 0 1 0 0-1.558M1084.115 170.15h-.497c-.728 0-1.319-.59-1.319-1.32v-.475c0-.207-.155-.392-.361-.403a.382.382 0 0 0-.403.382v.497c0 .728-.59 1.319-1.32 1.319h-.497a.382.382 0 0 0 0 .764h.498c.728 0 1.319.59 1.319 1.319v.475c0 .207.155.393.362.404a.382.382 0 0 0 .402-.382v-.497c0-.728.59-1.319 1.32-1.319h.496a.382.382 0 0 0 0-.764M1261.453 402.729h-1.014a2.689 2.689 0 0 1-2.689-2.689v-.97c0-.422-.316-.8-.737-.822a.78.78 0 0 0-.822.778v1.014a2.69 2.69 0 0 1-2.69 2.689h-1.013a.78.78 0 0 0 0 1.559h1.013a2.69 2.69 0 0 1 2.69 2.69v.969c0 .422.316.8.738.822a.78.78 0 0 0 .821-.778v-1.014a2.69 2.69 0 0 1 2.69-2.69h1.013a.78.78 0 1 0 0-1.558M932.364 382.333h-1.014a2.69 2.69 0 0 1-2.69-2.69v-.969c0-.422-.315-.8-.736-.822a.78.78 0 0 0-.822.778v1.013a2.69 2.69 0 0 1-2.69 2.69H923.4a.78.78 0 1 0 0 1.559h1.013a2.69 2.69 0 0 1 2.69 2.689v.97c0 .422.316.8.737.822a.78.78 0 0 0 .822-.778v-1.014a2.69 2.69 0 0 1 2.689-2.69h1.014a.78.78 0 0 0 0-1.558M1101.474 404.38h-.496a1.32 1.32 0 0 1-1.32-1.32v-.475c0-.207-.155-.392-.36-.403a.382.382 0 0 0-.404.381v.498a1.32 1.32 0 0 1-1.319 1.318h-.497a.382.382 0 1 0 0 .765h.497c.728 0 1.32.59 1.32 1.319v.475c0 .207.154.393.36.403a.382.382 0 0 0 .403-.381v-.497a1.32 1.32 0 0 1 1.32-1.319h.496a.383.383 0 1 0 0-.765M941.483 227.333h-1.014a2.69 2.69 0 0 1-2.69-2.69v-.969c0-.422-.315-.8-.736-.822a.78.78 0 0 0-.822.778v1.013a2.69 2.69 0 0 1-2.69 2.69h-1.013a.78.78 0 1 0 0 1.559h1.013a2.69 2.69 0 0 1 2.69 2.689v.97c0 .422.316.8.737.822a.78.78 0 0 0 .821-.778v-1.014a2.69 2.69 0 0 1 2.69-2.69h1.014a.78.78 0 0 0 0-1.558M502.364 229.73h-1.013a2.69 2.69 0 0 1-2.69-2.689v-.97c0-.422-.316-.8-.737-.822a.78.78 0 0 0-.822.778v1.014a2.69 2.69 0 0 1-2.69 2.689H493.4a.78.78 0 0 0 0 1.559h1.013a2.69 2.69 0 0 1 2.69 2.69v.969c0 .422.316.8.738.822a.78.78 0 0 0 .821-.778v-1.014a2.69 2.69 0 0 1 2.69-2.69h1.013a.78.78 0 1 0 0-1.558M604.115 205.15h-.497c-.728 0-1.319-.59-1.319-1.32v-.475c0-.207-.155-.392-.361-.403a.382.382 0 0 0-.403.382v.497c0 .728-.59 1.319-1.32 1.319h-.497a.382.382 0 0 0 0 .764h.498c.728 0 1.319.59 1.319 1.319v.475c0 .207.155.393.362.404a.382.382 0 0 0 .402-.382v-.497c0-.728.59-1.319 1.32-1.319h.496a.382.382 0 0 0 0-.764M1102.981 265.755h-.497c-.728 0-1.319-.59-1.319-1.32v-.474c0-.207-.155-.392-.361-.404a.382.382 0 0 0-.403.383v.496c0 .729-.59 1.32-1.319 1.32h-.497a.383.383 0 1 0 0 .764h.497c.729 0 1.319.59 1.319 1.319v.475c0 .207.155.392.362.403a.382.382 0 0 0 .402-.381v-.497c0-.729.59-1.32 1.32-1.32h.496a.382.382 0 1 0 0-.764M552.364 327.333h-1.014a2.69 2.69 0 0 1-2.69-2.69v-.969c0-.422-.315-.8-.736-.822a.78.78 0 0 0-.822.778v1.013a2.69 2.69 0 0 1-2.69 2.69H543.4a.78.78 0 1 0 0 1.559h1.013a2.69 2.69 0 0 1 2.69 2.689v.97c0 .422.316.8.737.822a.78.78 0 0 0 .822-.778v-1.014a2.69 2.69 0 0 1 2.689-2.69h1.014a.78.78 0 0 0 0-1.558M960.526 295.15h-.497c-.728 0-1.319-.59-1.319-1.32v-.475c0-.207-.155-.392-.362-.403a.382.382 0 0 0-.402.382v.497c0 .728-.59 1.319-1.32 1.319h-.497a.382.382 0 0 0 0 .764h.498c.728 0 1.319.59 1.319 1.319v.475c0 .207.155.393.361.404a.382.382 0 0 0 .403-.382v-.497c0-.728.59-1.319 1.32-1.319h.496a.382.382 0 0 0 0-.764M815.314 350.349h-.496c-.729 0-1.32-.59-1.32-1.319v-.475c0-.208-.155-.393-.361-.404a.382.382 0 0 0-.403.382v.497a1.32 1.32 0 0 1-1.319 1.319h-.497a.382.382 0 0 0 0 .764h.497c.728 0 1.32.59 1.32 1.32v.474c0 .208.154.394.36.404a.383.383 0 0 0 .404-.382v-.497c0-.728.59-1.319 1.319-1.319h.496a.382.382 0 0 0 0-.764M588.873 297.768h-.497a1.32 1.32 0 0 1-1.32-1.32v-.475c0-.207-.154-.392-.36-.403a.382.382 0 0 0-.404.382v.497a1.32 1.32 0 0 1-1.318 1.319h-.497a.383.383 0 1 0 0 .764h.497c.728 0 1.318.59 1.318 1.32v.474c0 .207.155.393.362.404a.382.382 0 0 0 .403-.382v-.497a1.32 1.32 0 0 1 1.319-1.319h.497a.382.382 0 1 0 0-.764M1061.55 29.85c-18.584 0-33.65 15.065-33.65 33.65h67.3c0-18.585-15.066-33.65-33.65-33.65"/>
            <path d="M1112.024 46.674c-9.292 0-16.825 7.533-16.825 16.825h33.65c0-9.292-7.533-16.825-16.825-16.825M1256.97 36.674c-7.645 0-13.843 6.198-13.843 13.844h27.688c0-7.646-6.198-13.844-13.844-13.844"/>
        </g>
        <g fill="#FAFBFB">
            <path d="M613.817 62.729h1.014a2.689 2.689 0 0 0 2.688-2.689v-.97c0-.422.317-.8.738-.822a.78.78 0 0 1 .822.778v1.014a2.69 2.69 0 0 0 2.69 2.689h1.012a.78.78 0 0 1 0 1.559h-1.013a2.69 2.69 0 0 0-2.69 2.69v.969c0 .422-.315.8-.737.822a.78.78 0 0 1-.822-.778v-1.014a2.69 2.69 0 0 0-2.688-2.69h-1.014a.78.78 0 1 1 0-1.558M932.906 22.333h1.014a2.69 2.69 0 0 0 2.69-2.69v-.969c0-.422.315-.8.736-.822a.78.78 0 0 1 .822.778v1.013a2.69 2.69 0 0 0 2.69 2.69h1.012a.78.78 0 1 1 0 1.559h-1.013a2.69 2.69 0 0 0-2.69 2.689v.97c0 .422-.315.8-.737.822a.78.78 0 0 1-.82-.778V26.58a2.69 2.69 0 0 0-2.69-2.69h-1.014a.78.78 0 0 1 0-1.558M483.787 24.73h1.013a2.69 2.69 0 0 0 2.69-2.689v-.97c0-.422.316-.8.737-.822a.78.78 0 0 1 .822.778v1.014a2.69 2.69 0 0 0 2.69 2.689h1.012a.78.78 0 0 1 0 1.559h-1.013a2.69 2.69 0 0 0-2.689 2.69v.969c0 .422-.316.8-.738.822a.78.78 0 0 1-.821-.778v-1.014a2.69 2.69 0 0 0-2.69-2.69h-1.013a.78.78 0 1 1 0-1.558M793.796 84.38h.496c.728 0 1.32-.59 1.32-1.32v-.475c0-.207.154-.392.36-.403a.382.382 0 0 1 .403.381v.498a1.32 1.32 0 0 0 1.32 1.318h.497a.382.382 0 1 1 0 .765h-.497c-.729 0-1.32.59-1.32 1.319v.475c0 .207-.155.393-.36.403a.382.382 0 0 1-.404-.381v-.497a1.32 1.32 0 0 0-1.32-1.319h-.495a.383.383 0 1 1 0-.765M962.61 90.755h.497c.728 0 1.319-.59 1.319-1.32v-.474c0-.207.155-.392.361-.404a.382.382 0 0 1 .403.383v.496c0 .729.59 1.32 1.319 1.32h.497a.383.383 0 1 1 0 .764h-.497c-.729 0-1.319.59-1.319 1.319v.475c0 .207-.155.392-.362.403a.382.382 0 0 1-.402-.381v-.497c0-.729-.59-1.32-1.32-1.32h-.496a.382.382 0 1 1 0-.764M508.797 71.268c14.119 0 25.564 11.445 25.564 25.564h-51.128c0-14.119 11.445-25.564 25.564-25.564M470.45 84.05c7.06 0 12.783 5.723 12.783 12.782h-25.564c0-7.06 5.722-12.782 12.782-12.782M843.72 19.85c18.584 0 33.65 15.065 33.65 33.65h-67.3c0-18.585 15.066-33.65 33.65-33.65M793.246 36.674c9.291 0 16.824 7.533 16.824 16.825h-33.649c0-9.292 7.533-16.825 16.825-16.825M688.736 74.289c5.514 0 9.983 4.47 9.983 9.983h-19.966c0-5.513 4.47-9.983 9.983-9.983M673.762 79.28a4.991 4.991 0 0 1 4.991 4.991h-9.982a4.991 4.991 0 0 1 4.99-4.99"/>
        </g>
    </g>
</svg>
