<svg xmlns="http://www.w3.org/2000/svg" width="27" height="31" viewBox="0 0 27 31">
    <g fill="#4FC3F7" fill-rule="nonzero">
        <path d="M2.6 28.135l2.466-1.644c.34-.226.78-.226 1.12 0l3.475 2.317 3.476-2.317c.34-.226.78-.226 1.12 0l3.475 2.317 3.476-2.317c.339-.226.78-.226 1.12 0l2.466 1.644V2.781H2.6v25.354zm-.45 2.725a1.009 1.009 0 0 1-1.568-.84V1.772c0-.557.451-1.009 1.009-1.009h24.212c.557 0 1.009.452 1.009 1.01V30.02c0 .806-.898 1.287-1.568.84l-3.476-2.317-3.476 2.317c-.339.226-.78.226-1.12 0l-3.475-2.317-3.476 2.317c-.339.226-.78.226-1.12 0l-3.475-2.317L2.15 30.86z"/>
        <path d="M6.971 10.852h6.726a1.009 1.009 0 1 0 0-2.018H6.97a1.009 1.009 0 1 0 0 2.018zM19.077 10.852h1.346a1.009 1.009 0 0 0 0-2.018h-1.346a1.009 1.009 0 0 0 0 2.018zM6.971 16.233h6.726a1.009 1.009 0 1 0 0-2.018H6.97a1.009 1.009 0 0 0 0 2.018zM19.077 16.233h1.346a1.009 1.009 0 0 0 0-2.018h-1.346a1.009 1.009 0 0 0 0 2.018zM6.971 21.613h6.726a1.009 1.009 0 1 0 0-2.017H6.97a1.009 1.009 0 1 0 0 2.017zM19.077 21.613h1.346a1.009 1.009 0 0 0 0-2.017h-1.346a1.009 1.009 0 1 0 0 2.017z"/>
    </g>
</svg>
