<svg xmlns="http://www.w3.org/2000/svg" width="378" height="245" viewBox="0 0 378 245">
    <g fill="none" fill-rule="evenodd">
        <path fill="#FF490F" d="M15.37 120.636h8.532v-4.679H15.37zM25.784 120.636h8.531v-4.679h-8.53zM20.389 127.198h8.53v-4.68h-8.53zM20.389 114.075h8.53v-4.68h-8.53zM15.37 226.872h8.532v-4.679H15.37zM25.784 226.872h8.531v-4.679h-8.53zM20.389 233.433h8.53v-4.678h-8.53zM126.069 124.858h8.531v-4.679h-8.531zM136.482 124.858h8.531v-4.679h-8.53zM131.087 131.419h8.53v-4.679h-8.53zM131.087 118.296h8.53v-4.678h-8.53zM146.896 124.858h8.531v-4.679h-8.53zM141.5 131.419h8.532v-4.679H141.5zM141.5 118.296h8.532v-4.678H141.5zM225.564 187.594h8.53v-4.679h-8.53zM235.977 187.594h8.531v-4.679h-8.531zM230.581 194.155h8.531v-4.678h-8.53zM230.581 181.032h8.531v-4.678h-8.53zM248.56 226.54h8.531v-4.678h-8.53zM258.975 226.54h8.53v-4.678h-8.53zM253.579 233.102h8.53v-4.678h-8.53zM238.147 226.54h8.531v-4.678h-8.531zM243.165 233.102h8.531v-4.678h-8.53zM342.486 153.636h8.531v-4.679h-8.53zM352.9 153.636h8.531v-4.679H352.9zM347.504 160.197h8.532v-4.68h-8.532zM347.504 147.075h8.532v-4.68h-8.532zM342.486 226.872h8.531v-4.679h-8.53zM352.9 226.872h8.531v-4.679H352.9zM347.504 233.433h8.532v-4.678h-8.532zM347.504 220.31h8.532v-4.679h-8.532zM261.398 115.015h8.531v-4.679h-8.531zM271.812 115.015h8.53v-4.679h-8.53zM266.416 121.577h8.53v-4.679h-8.53zM76.299 228.424h8.53v-4.68H76.3zM65.886 228.424h8.53v-4.68h-8.53zM71.281 221.862h8.531v-4.68h-8.53zM135.541 234.044h8.532v-4.679h-8.532zM140.937 227.482h8.531v-4.679h-8.53zM222.865 124.858h8.532v-4.679h-8.532zM228.261 118.296h8.53v-4.678h-8.53zM334.893 124.662h8.53v-4.679h-8.53zM329.875 118.1h8.531v-4.678h-8.531zM20.389 178.96h8.53v-4.68h-8.53zM15.37 172.398h8.532v-4.679H15.37z"/>
        <path fill="#FF7043" d="M29.023 5.82h317.926V.815H29.023z"/>
        <path fill="#000" d="M49.301 50.647h7.29V47.82h-7.29zM319.381 50.647h7.29V47.82h-7.29z"/>
        <path fill="#2E7D32" d="M377.07 234.513c0 9.816-7.957 17.772-17.772 17.772-9.816 0-17.772-7.956-17.772-17.772 0-9.814 7.956-17.772 17.772-17.772 9.815 0 17.771 7.958 17.771 17.772M336.763 203.607h-86.75a3.673 3.673 0 0 0-3.674 3.673v2.036h94.096v-2.036a3.673 3.673 0 0 0-3.672-3.673M125.96 203.607H39.21a3.673 3.673 0 0 0-3.673 3.673v2.036h94.095v-2.036a3.672 3.672 0 0 0-3.672-3.673"/>
        <path fill="#FFE082" d="M42.336 5.82a3.698 3.698 0 0 0 7.396 0h-7.396zM113.313 5.82a3.698 3.698 0 0 0 7.395 0h-7.395zM184.289 5.82a3.698 3.698 0 0 0 7.395 0h-7.395zM255.264 5.82a3.698 3.698 0 0 0 7.396 0h-7.396zM326.24 5.82a3.698 3.698 0 0 0 7.396 0h-7.395z"/>
        <path fill="#FFB74D" d="M1.881 245.83h3.734v-25.522H1.881zM43.693 245.83h3.735v-25.522h-3.735z"/>
        <path fill="#FFCC80" d="M.484 242.01h48.34v-64.63H.485z"/>
        <path fill="#212121" d="M3.748 238.747H45.56v-58.102H3.748z"/>
        <text fill="#FFF" font-family="SourceSansPro-Semibold, Source Sans Pro" font-size="12" font-weight="500" transform="translate(-.028 .7)">
            <tspan x="6.741" y="211.82">pulsuz </tspan> <tspan x="6.741" y="226.72">elanlar</tspan>
        </text>
    </g>
</svg>
