<svg xmlns="http://www.w3.org/2000/svg" width="33" height="33" viewBox="0 0 33 33">
    <defs>
        <radialGradient id="a" cx="0%" cy="3.177%" r="139.193%" fx="0%" fy="3.177%">
            <stop offset="0%" stop-color="#4FC3F7"/>
            <stop offset="49.494%" stop-color="#AB5CA4"/>
            <stop offset="100%" stop-color="#FF512F"/>
        </radialGradient>
        <radialGradient id="b" cx="0%" cy="3.177%" r="139.193%" fx="0%" fy="3.177%" gradientTransform="scale(.6717 1) rotate(33.039 0 .032)">
            <stop offset="0%" stop-color="#4FC3F7"/>
            <stop offset="49.494%" stop-color="#AB5CA4"/>
            <stop offset="100%" stop-color="#FF512F"/>
        </radialGradient>
    </defs>
    <g fill="none" fill-opacity=".82" fill-rule="nonzero">
        <path fill="url(#a)" d="M16.5 32.794c8.992 0 16.294-7.301 16.294-16.294C32.794 7.508 25.493.206 16.5.206 7.508.206.206 7.507.206 16.5c0 8.992 7.301 16.294 16.294 16.294zm0-29.7c7.384 0 13.406 6.022 13.406 13.406S23.884 29.906 16.5 29.906 3.094 23.884 3.094 16.5 9.116 3.094 16.5 3.094z"/>
        <path fill="url(#b)" d="M13.654 21.615c.289.289.66.413 1.031.413.371 0 .701-.124.99-.413l8.539-8.126a1.396 1.396 0 0 0 .041-2.022 1.396 1.396 0 0 0-2.021-.04l-7.549 7.136-3.919-3.92a1.444 1.444 0 0 0-2.062 0 1.444 1.444 0 0 0 0 2.063l4.95 4.909z"/>
    </g>
</svg>
