<svg xmlns="http://www.w3.org/2000/svg" width="37" height="35" viewBox="0 0 37 35">
    <defs>
        <radialGradient id="a" cx="0%" cy="3.177%" r="139.193%" fx="0%" fy="3.177%" gradientTransform="matrix(.68903 .66714 -.61708 .74493 .02 .008)">
            <stop offset="0%" stop-color="#4FC3F7"/>
            <stop offset="49.494%" stop-color="#AB5CA4"/>
            <stop offset="100%" stop-color="#FF512F"/>
        </radialGradient>
    </defs>
    <path fill="url(#a)" fill-opacity=".82" fill-rule="evenodd" d="M3.083 31.131v-7.344h4.625v2.951c0 .854.691 1.547 1.542 1.547.851 0 1.542-.693 1.542-1.547v-2.951h15.416v2.951c0 .854.691 1.547 1.542 1.547.851 0 1.542-.693 1.542-1.547v-2.951h4.625v7.344H3.083zm0-10.438h30.834V10.112H3.083v10.58zm7.709-13.669h15.416V3.095H10.792v3.93zm24.666 0h-6.166V1.548c0-.853-.691-1.546-1.542-1.546H9.25c-.851 0-1.542.693-1.542 1.546v5.476H1.542C.69 7.024 0 7.717 0 8.571v24.107c0 .854.69 1.547 1.542 1.547h33.916c.851 0 1.542-.693 1.542-1.547V8.571c0-.854-.69-1.547-1.542-1.547z"/>
</svg>
